<svg width="200" height="200" viewBox="0 0 200 200" fill="none" xmlns="http://www.w3.org/2000/svg">
<path d="M156.88 107.36L127.8 96.36C125.8 95.6 124.76 93.36 125.52 91.36L140.76 51.08C141.52 49.08 143.76 48.04 145.76 48.8L164.2 55.76L172.92 75.88L161.88 105.08C161.16 107.12 158.92 108.12 156.88 107.36Z" fill="#F5F5F5"/>
<path d="M164.24 55.8L159.96 67.1201C159.24 69.0001 160.2 71.08 162.08 71.8L172.96 75.92L164.24 55.8Z" fill="#EBEBEB"/>
<path d="M159.72 68.2C159.72 68.2 158.52 70.88 161.32 73C161.44 73.08 161.52 73.16 161.64 73.2C162.96 74 171.72 79.2 171.8 79C171.88 78.76 172.96 75.9599 172.96 75.9599L162.08 71.84C162.04 71.8 159.36 70.68 159.72 68.2Z" fill="#E0E0E0"/>
<path d="M157.68 65.7601C157.64 65.9201 154.56 64.8801 150.84 63.4801C147.12 62.0801 144.16 60.8001 144.2 60.6801C144.24 60.5201 147.32 61.5601 151.04 62.9601C154.76 64.3601 157.76 65.6001 157.68 65.7601Z" fill="#E0E0E0"/>
<path d="M163.96 75.4399C163.92 75.5999 158.92 73.8399 152.8 71.5199C146.68 69.1999 141.76 67.1999 141.84 67.0799C141.88 66.9199 146.88 68.6799 153 70.9999C159.08 73.3199 164 75.3199 163.96 75.4399Z" fill="#E0E0E0"/>
<path d="M163.92 81.56C163.88 81.72 158.4 79.76 151.76 77.24C145.08 74.72 139.72 72.56 139.8 72.4C139.84 72.24 145.32 74.2 151.96 76.72C158.64 79.24 164 81.4 163.92 81.56Z" fill="#E0E0E0"/>
<path d="M162 86.6C161.96 86.76 156.48 84.8 149.84 82.28C143.16 79.76 137.8 77.6001 137.88 77.4401C137.92 77.2801 143.4 79.24 150.04 81.76C156.72 84.28 162.08 86.44 162 86.6Z" fill="#E0E0E0"/>
<path d="M160.12 91.6401C160.08 91.8001 154.6 89.8401 147.96 87.3201C141.28 84.8001 135.92 82.6401 136 82.4801C136.04 82.3201 141.52 84.2801 148.16 86.8001C154.8 89.3601 160.16 91.5201 160.12 91.6401Z" fill="#E0E0E0"/>
<path d="M158.2 96.6799C158.16 96.8399 152.68 94.8799 146.04 92.3599C139.36 89.8399 134 87.6799 134.08 87.5199C134.12 87.3599 139.6 89.3199 146.24 91.8399C152.88 94.3999 158.24 96.5599 158.2 96.6799Z" fill="#E0E0E0"/>
<path d="M80.8398 125.32L42.4798 138.76C41.1598 139.24 39.7198 138.52 39.2398 137.2L19.9998 82.2401C19.5198 80.9201 20.2398 79.4801 21.5598 79.0001L59.9198 65.5601C61.2398 65.0801 62.6798 65.8001 63.1598 67.1201L82.3998 122.08C82.8398 123.4 82.1598 124.88 80.8398 125.32Z" fill="#EBEBEB"/>
<path d="M60.4037 69.0025L23.2935 81.9978L42.3699 136.474L79.4801 123.479L60.4037 69.0025Z" fill="#E0E0E0"/>
<path d="M59.7406 68.7306L22.6304 81.7258L41.3367 135.145L78.4469 122.15L59.7406 68.7306Z" fill="#FAFAFA"/>
<path d="M78.4396 122.16C78.2796 121.72 70.7596 100.28 59.6796 68.76L59.7596 68.8C48.5196 72.76 35.9196 77.16 22.6796 81.8L22.7196 81.72C29.7196 101.8 36.2396 120.32 41.3996 135.16L41.3596 135.12C63.8796 127.24 78.0796 122.28 78.4396 122.16C78.0796 122.28 63.9196 127.28 41.3596 135.2H41.3196V135.16C36.1196 120.32 29.6396 101.8 22.5996 81.76V81.72H22.6396C35.8796 77.08 48.4796 72.68 59.7196 68.72H59.7596V68.76C70.7996 100.24 78.2796 121.72 78.4396 122.16Z" fill="#E0E0E0"/>
<path d="M65.2798 126.76C65.2798 126.76 73.5598 119.8 74.9598 112.52C74.9598 112.52 72.6798 116.12 67.8798 116.76C67.9198 116.8 67.7598 124.4 65.2798 126.76Z" fill="#E0E0E0"/>
<path d="M36.9198 98.1602L34.9598 98.8402C34.2398 99.0802 33.4798 98.7202 33.1998 98.0002L32.5198 96.0402C32.2798 95.3202 32.6398 94.5602 33.3598 94.2802L35.3198 93.6002C36.0398 93.3602 36.7998 93.7202 37.0798 94.4402L37.7598 96.4002C37.9998 97.1202 37.5998 97.9202 36.9198 98.1602Z" fill="#EBEBEB"/>
<path d="M35.08 97.0001C35.04 97.0001 35 97.0001 35 97.0001L34.12 96.4801C34.08 96.4401 34.04 96.4001 34.08 96.3201C34.12 96.2801 34.16 96.2401 34.24 96.2801L35.04 96.7201L36 94.6801C36.04 94.6401 36.08 94.6001 36.16 94.6401C36.2 94.6801 36.24 94.7201 36.2 94.8001L35.2 96.9201C35.12 96.9601 35.12 97.0001 35.08 97.0001Z" fill="white"/>
<path d="M60.6796 85.3601C60.6796 85.4001 55.8796 87.1201 49.9196 89.2001C43.9596 91.2801 39.1196 92.9601 39.1196 92.9201C39.1196 92.8801 43.9196 91.1601 49.8796 89.0801C55.8396 87.0001 60.6796 85.3201 60.6796 85.3601Z" fill="#E0E0E0"/>
<path d="M49.3598 93.04C49.3598 93.04 49.2398 93.08 48.9998 93.2C48.7598 93.28 48.4398 93.4 48.0398 93.56C47.2398 93.84 46.0798 94.28 44.8398 94.72C43.5998 95.16 42.4398 95.56 41.6398 95.84C41.2398 95.96 40.9198 96.08 40.6798 96.16C40.4398 96.24 40.3198 96.28 40.3198 96.28C40.3198 96.28 40.4398 96.24 40.6798 96.12C40.9198 96.04 41.2398 95.92 41.6398 95.76C42.4398 95.48 43.5998 95.04 44.8398 94.6C46.0798 94.16 47.2398 93.76 48.0398 93.48C48.4398 93.36 48.7598 93.24 48.9998 93.16C49.2398 93.08 49.3598 93.04 49.3598 93.04Z" fill="#E0E0E0"/>
<path d="M61.1996 86.8401C61.1996 86.8801 56.3996 88.6001 50.4396 90.6801C44.4796 92.7601 39.6396 94.4401 39.6396 94.4001C39.6396 94.3601 44.4396 92.64 50.3996 90.5601C56.3596 88.4801 61.1996 86.8001 61.1996 86.8401Z" fill="#E0E0E0"/>
<path d="M39.6796 106.12L37.7196 106.8C36.9996 107.04 36.2396 106.68 35.9596 105.96L35.2796 104C35.0396 103.28 35.3996 102.52 36.1196 102.24L38.0796 101.56C38.7996 101.32 39.5596 101.68 39.8396 102.4L40.5196 104.36C40.7596 105.08 40.3996 105.88 39.6796 106.12Z" fill="#EBEBEB"/>
<path d="M37.8798 104.96C37.8398 104.96 37.7999 104.96 37.7999 104.96L36.9199 104.44C36.8799 104.4 36.8398 104.36 36.8798 104.28C36.9198 104.24 36.9598 104.2 37.0398 104.24L37.8398 104.68L38.7999 102.64C38.8399 102.6 38.8799 102.56 38.9599 102.6C38.9999 102.64 39.0399 102.68 38.9999 102.76L37.9999 104.88C37.9199 104.92 37.8798 104.96 37.8798 104.96Z" fill="white"/>
<path d="M63.4794 93.32C63.4794 93.36 58.6794 95.08 52.7194 97.16C46.7594 99.24 41.9194 100.92 41.9194 100.88C41.9194 100.84 46.7194 99.12 52.6794 97.04C58.6394 94.96 63.4794 93.28 63.4794 93.32Z" fill="#E0E0E0"/>
<path d="M52.1596 101C52.1596 101 52.0396 101.04 51.7996 101.16C51.5596 101.24 51.2396 101.36 50.8396 101.52C50.0396 101.8 48.8796 102.24 47.6396 102.68C46.3996 103.12 45.2396 103.52 44.4396 103.8C44.0396 103.92 43.7196 104.04 43.4796 104.12C43.2396 104.2 43.1196 104.24 43.1196 104.24C43.1196 104.24 43.2396 104.2 43.4796 104.08C43.7196 104 44.0396 103.88 44.4396 103.72C45.2396 103.44 46.3996 103 47.6396 102.56C48.8796 102.12 50.0396 101.72 50.8396 101.44C51.2396 101.32 51.5596 101.2 51.7996 101.12C52.0396 101.04 52.1596 101 52.1596 101Z" fill="#E0E0E0"/>
<path d="M63.9995 94.8C63.9995 94.84 59.1995 96.56 53.2395 98.64C47.2795 100.72 42.4395 102.4 42.4395 102.36C42.4395 102.32 47.2395 100.6 53.1995 98.52C59.1595 96.44 63.9995 94.76 63.9995 94.8Z" fill="#E0E0E0"/>
<path d="M42.4794 114.08L40.5194 114.76C39.7994 115 39.0394 114.64 38.7594 113.92L38.0794 111.96C37.8394 111.24 38.1994 110.48 38.9194 110.2L40.8794 109.52C41.5994 109.28 42.3594 109.64 42.6394 110.36L43.3194 112.32C43.5594 113.04 43.1994 113.84 42.4794 114.08Z" fill="#EBEBEB"/>
<path d="M40.6396 112.92C40.5996 112.92 40.5596 112.92 40.5596 112.92L39.6796 112.4C39.6396 112.36 39.5996 112.32 39.6396 112.24C39.6796 112.2 39.7196 112.16 39.7996 112.2L40.5996 112.64L41.5596 110.6C41.5996 110.56 41.6396 110.52 41.7196 110.56C41.7596 110.6 41.7996 110.64 41.7596 110.72L40.7596 112.84C40.7196 112.88 40.6796 112.92 40.6396 112.92Z" fill="white"/>
<path d="M66.2792 101.28C66.2792 101.32 61.4792 103.04 55.5192 105.12C49.5592 107.2 44.7192 108.88 44.7192 108.84C44.7192 108.8 49.5192 107.08 55.4792 105C61.4392 102.92 66.2392 101.24 66.2792 101.28Z" fill="#E0E0E0"/>
<path d="M54.9594 108.96C54.9594 108.96 54.8394 109 54.5994 109.12C54.3594 109.2 54.0394 109.32 53.6394 109.48C52.8394 109.76 51.6794 110.2 50.4394 110.64C49.1994 111.08 48.0394 111.48 47.2394 111.76C46.8394 111.88 46.5194 112 46.2794 112.08C46.0394 112.16 45.9194 112.2 45.9194 112.2C45.9194 112.2 46.0394 112.16 46.2794 112.04C46.5194 111.96 46.8394 111.84 47.2394 111.68C48.0394 111.4 49.1994 110.96 50.4394 110.52C51.6794 110.08 52.8394 109.68 53.6394 109.4C54.0394 109.28 54.3594 109.16 54.5994 109.08C54.8394 109 54.9594 108.96 54.9594 108.96Z" fill="#E0E0E0"/>
<path d="M66.7993 102.76C66.7993 102.8 61.9993 104.52 56.0393 106.6C50.0793 108.68 45.2393 110.36 45.2393 110.32C45.2393 110.28 50.0393 108.56 55.9993 106.48C61.9193 104.4 66.7593 102.72 66.7993 102.76Z" fill="#E0E0E0"/>
<path d="M45.2797 122.04L43.3197 122.72C42.5997 122.96 41.8397 122.6 41.5597 121.88L40.8797 119.92C40.6397 119.2 40.9997 118.44 41.7197 118.16L43.6797 117.48C44.3997 117.24 45.1597 117.6 45.4397 118.32L46.1197 120.28C46.3597 121 45.9597 121.8 45.2797 122.04Z" fill="#EBEBEB"/>
<path d="M43.4399 120.88C43.3999 120.88 43.3599 120.88 43.3599 120.88L42.4799 120.36C42.4399 120.32 42.3999 120.28 42.4399 120.2C42.4799 120.16 42.5199 120.12 42.5999 120.16L43.3999 120.6L44.3599 118.56C44.3999 118.52 44.4399 118.48 44.5199 118.52C44.5599 118.56 44.5999 118.6 44.5599 118.68L43.5599 120.8C43.4799 120.84 43.4799 120.88 43.4399 120.88Z" fill="white"/>
<path d="M69.0395 109.24C69.0395 109.28 64.2395 111 58.2795 113.08C52.3195 115.16 47.4795 116.84 47.4795 116.8C47.4795 116.76 52.2795 115.04 58.2395 112.96C64.1995 110.88 69.0395 109.2 69.0395 109.24Z" fill="#E0E0E0"/>
<path d="M57.7597 116.92C57.7597 116.92 57.6397 116.96 57.3997 117.08C57.1597 117.16 56.8397 117.28 56.4397 117.44C55.6397 117.72 54.4797 118.16 53.2397 118.6C51.9997 119.04 50.8397 119.44 50.0397 119.72C49.6397 119.84 49.3197 119.96 49.0797 120.04C48.8397 120.12 48.7197 120.16 48.7197 120.16C48.7197 120.16 48.8397 120.12 49.0797 120C49.3197 119.92 49.6397 119.8 50.0397 119.64C50.8397 119.36 51.9997 118.92 53.2397 118.48C54.4797 118.04 55.6397 117.64 56.4397 117.36C56.8397 117.24 57.1597 117.12 57.3997 117.04C57.5997 116.96 57.7197 116.92 57.7597 116.92Z" fill="#E0E0E0"/>
<path d="M69.5595 110.72C69.5595 110.76 64.7595 112.48 58.7995 114.56C52.8395 116.64 47.9995 118.32 47.9995 118.28C47.9995 118.24 52.7995 116.52 58.7595 114.44C64.7195 112.36 69.5595 110.68 69.5595 110.72Z" fill="#E0E0E0"/>
<path d="M26.8398 76.52L27.7998 79.32C28.3598 80.96 30.1598 81.8 31.7598 81.24L52.2798 74.04C53.9198 73.48 54.7598 71.68 54.1998 70.08L53.2398 67.28L26.8398 76.52Z" fill="#E0E0E0"/>
<path d="M40.3195 72.7201C38.7995 73.2401 37.1195 72.4401 36.5995 70.9201C36.0795 69.4001 36.8795 67.7201 38.3995 67.2001C39.9195 66.6801 41.5995 67.4801 42.1195 69.0001C42.6395 70.5201 41.8395 72.2001 40.3195 72.7201ZM38.7595 68.2801C37.8395 68.6001 37.3195 69.6401 37.6395 70.5601C37.9595 71.4801 38.9995 72.0001 39.9195 71.6801C40.8395 71.3601 41.3595 70.3201 41.0395 69.4001C40.7195 68.4401 39.6795 67.9601 38.7595 68.2801Z" fill="#E0E0E0"/>
<path d="M56.72 80C56.72 80.04 51.32 82 44.64 84.32C37.96 86.68 32.52 88.52 32.48 88.48C32.48 88.44 37.88 86.48 44.56 84.16C51.24 81.8 56.68 79.92 56.72 80Z" fill="#E0E0E0"/>
<path d="M49.7596 80.9602C49.7596 81.0002 47.3996 81.8802 44.4396 82.9202C41.4796 83.9602 39.0796 84.7602 39.0396 84.6802C39.0396 84.6402 41.3996 83.7602 44.3596 82.7202C47.3596 81.7202 49.7596 80.9202 49.7596 80.9602Z" fill="#E0E0E0"/>
<path d="M156.4 162.04C157.84 161.28 159.52 161.2 161.12 161.48C161.96 161.64 162.88 161.88 163.44 162.52C164.04 163.16 164.12 164.28 163.48 164.84C163.08 165.16 162.52 165.2 162 165.2C160.76 165.2 159.36 164.96 158.36 165.72C157.8 166.16 157.4 166.88 156.72 167.08C156.04 167.28 155.32 166.88 154.96 166.28C154.6 165.68 154.6 164.92 154.76 164.24C154.76 164.24 154.92 162.76 156.4 162.04Z" fill="#289A3F"/>
<path d="M153.08 155.68C153.96 156.92 155.68 156.52 156.44 155.76C157.24 155 157.56 153.88 157.88 152.84C158.56 150.44 159.28 147.88 158.76 145.44C158.6 144.72 158.32 143.96 157.8 143.44C157.28 142.88 156.48 142.56 155.76 142.76C154.88 143 154.36 143.84 153.96 144.64C152.84 147 152.24 149.6 152.2 152.24C152.24 153.4 152.4 154.68 153.08 155.68Z" fill="#289A3F"/>
<path d="M150.68 157.48C151.64 156.36 151.8 154.68 151.4 153.28C150.96 151.88 150 150.64 148.92 149.68C147.64 148.52 146.12 147.64 144.48 147.04C143.84 146.8 143.16 146.64 142.48 146.68C141.8 146.76 141.12 147.08 140.8 147.68C140.32 148.56 140.8 149.64 141.28 150.56C142.12 152.12 143.12 153.6 144.2 155C145.08 156.12 146.08 157.24 147.4 157.76C148.72 158.28 150.12 158.2 150.84 157.28" fill="#289A3F"/>
<path d="M153.04 174.6C153.04 174.6 153.08 174.4 153.12 174.04C153.16 173.64 153.2 173.12 153.28 172.48C153.36 171.84 153.44 171.04 153.64 170.2C153.84 169.36 154.12 168.44 154.48 167.52C154.84 166.6 155.32 165.76 155.84 165.08C156.36 164.4 157 163.92 157.56 163.64C158.16 163.36 158.68 163.24 159.04 163.2C159.4 163.16 159.6 163.12 159.6 163.12C159.6 163.12 159.4 163.12 159.04 163.12C158.68 163.16 158.12 163.24 157.52 163.52C156.92 163.8 156.24 164.28 155.68 164.96C155.12 165.64 154.64 166.52 154.24 167.44C153.88 168.4 153.6 169.32 153.4 170.16C153.24 171.04 153.16 171.8 153.08 172.48C153.04 173.16 153 173.68 153 174.04C153 174.4 153 174.6 153.04 174.6Z" fill="#263238"/>
<path d="M153.12 173.4C153.12 173.4 153.12 173.32 153.12 173.12C153.12 172.92 153.12 172.68 153.12 172.36C153.12 171.72 153.12 170.76 153.16 169.6C153.2 167.24 153.44 164.72 153.8 161.16C154.16 157.8 154.68 153.92 155.2 151.4C155.32 150.84 155.44 150.32 155.52 149.84C155.64 149.4 155.72 149 155.8 148.68C155.88 148.4 155.92 148.12 155.96 147.96C156 147.8 156 147.72 156 147.68C156 147.68 155.96 147.76 155.92 147.92C155.88 148.12 155.8 148.36 155.72 148.64C155.64 148.96 155.52 149.36 155.4 149.8C155.28 150.24 155.16 150.76 155.04 151.36C154.52 153.64 153.96 156.88 153.56 160.44C153.16 164 153 167.24 152.96 169.6C152.96 170.76 152.96 171.72 153 172.4C153 172.72 153.04 172.96 153.04 173.16C153.12 173.32 153.12 173.4 153.12 173.4Z" fill="#263238"/>
<path d="M153.16 167.16C153.16 167.16 153.16 166.88 153.16 166.36C153.12 165.84 153.08 165.12 152.92 164.2C152.76 163.32 152.56 162.24 152.24 161.08C152.08 160.56 151.76 159.28 150.92 157.4C149.84 154.84 148.36 152.72 147.08 151.44C146.8 151.08 146.44 150.84 146.16 150.6C146.04 150.48 145.88 150.36 145.76 150.28C145.64 150.2 145.52 150.12 145.4 150.04C144.96 149.76 144.76 149.6 144.72 149.6C144.68 149.64 145.68 150.24 146.92 151.56C148.16 152.88 149.6 154.96 150.64 157.52C151.24 158.92 151.64 160.12 151.96 161.16C152.32 162.32 152.52 163.36 152.72 164.24C152.88 165.12 152.96 165.84 153.04 166.36C153.12 166.88 153.12 167.16 153.16 167.16Z" fill="#263238"/>
<path d="M147.08 178.2L147.72 186.8H158.76L159.4 178.2H147.08Z" fill="#263238"/>
<path d="M160.72 174.8H146.04V178.2H160.72V174.8Z" fill="#263238"/>
<path d="M146.04 186.48V187.4H146.72H160.48V186.48H146.04Z" fill="#455A64"/>
<path d="M147.4 189.04L146.72 187.4H159.96L159.16 189.04H147.4Z" fill="#455A64"/>
<path d="M159.2 181C159.2 181 159.2 181.04 159.16 181.08C159.12 181.12 159.08 181.2 159 181.28C158.84 181.48 158.64 181.76 158.36 182.12L158.32 182.16L158.28 182.12C157.88 181.56 157.32 180.8 156.68 179.92H156.76C156.28 180.6 155.76 181.32 155.2 182.12L155.16 182.2L155.12 182.12C154.56 181.44 153.92 180.68 153.28 179.92H153.4C153.36 179.96 153.32 180 153.28 180.04C152.72 180.76 152.16 181.44 151.64 182.12L151.6 182.2L151.56 182.12C151 181.32 150.48 180.6 150 179.92H150.08C149.32 180.8 148.68 181.52 148.16 182.12L148.12 182.16L148.08 182.12C147.84 181.68 147.64 181.36 147.48 181.12C147.4 181 147.36 180.92 147.32 180.84C147.28 180.76 147.28 180.76 147.28 180.76C147.28 180.76 147.32 180.8 147.36 180.84C147.4 180.92 147.48 181 147.52 181.08C147.68 181.32 147.88 181.64 148.16 182.08H148.12C148.6 181.52 149.24 180.76 150 179.88L150.04 179.84L150.08 179.92C150.56 180.6 151.08 181.32 151.64 182.12H151.52C152.04 181.48 152.6 180.76 153.16 180.04C153.2 180 153.24 179.96 153.28 179.92L153.32 179.84L153.36 179.92C154 180.68 154.64 181.44 155.2 182.12H155.08C155.64 181.32 156.16 180.6 156.64 179.92L156.68 179.84L156.72 179.92C157.36 180.8 157.88 181.56 158.28 182.12H158.24C158.52 181.8 158.76 181.52 158.92 181.32C159 181.24 159.04 181.16 159.08 181.12C159.16 181.04 159.2 181 159.2 181Z" fill="#E0E0E0"/>
<path d="M159.56 178.12C159.56 178.16 156.8 178.2 153.36 178.2C149.96 178.2 147.16 178.16 147.16 178.12C147.16 178.08 149.92 178.04 153.36 178.04C156.8 178.08 159.56 178.08 159.56 178.12Z" fill="#455A64"/>
<path d="M160.12 187.48C160.12 187.52 157.12 187.56 153.4 187.56C149.68 187.56 146.68 187.52 146.68 187.48C146.68 187.44 149.68 187.4 153.4 187.4C157.12 187.44 160.12 187.48 160.12 187.48Z" fill="#263238"/>
<path d="M51.1198 160.04C51.0798 160.08 50.8398 159.92 50.5598 159.72C50.2798 159.48 50.0798 159.28 50.1198 159.24C50.1598 159.2 50.3998 159.36 50.6798 159.56C50.9598 159.8 51.1598 160.04 51.1198 160.04Z" fill="#263238"/>
<path d="M58.8001 148.6C58.8401 147.52 58.8801 146.44 58.5201 145.4C58.2001 144.4 57.4001 143.44 56.3601 143.24C55.1601 143 53.9201 143.76 53.2801 144.76C52.6401 145.76 52.3601 147.04 52.2001 148.24C50.8401 156.56 50.3201 165 50.6801 173.44L55.5601 174.12C57.7201 165.32 58.4001 157.64 58.8001 148.6Z" fill="#455A64"/>
<path d="M55.68 143.2C55.68 143.2 55.68 143.24 55.64 143.28C55.6 143.32 55.6 143.4 55.56 143.52C55.48 143.72 55.36 144 55.24 144.36C55.16 144.56 55.08 144.76 55 144.96C54.92 145.2 54.84 145.44 54.76 145.72C54.68 146 54.6 146.28 54.48 146.56C54.4 146.88 54.32 147.2 54.24 147.52C53.88 148.88 53.56 150.52 53.28 152.36C53 154.2 52.84 156.24 52.72 158.4C52.48 162.68 52.44 166.6 52.32 169.4C52.28 170.8 52.2 171.96 52.16 172.72C52.12 173.12 52.12 173.4 52.08 173.64C52.08 173.72 52.08 173.8 52.04 173.88C52.04 173.92 52.04 173.96 52.04 173.96C52.04 173.96 52.04 173.92 52.04 173.88C52.04 173.8 52.04 173.72 52.04 173.64C52.04 173.4 52.04 173.12 52.08 172.72C52.12 171.92 52.16 170.8 52.16 169.4C52.24 166.6 52.24 162.68 52.52 158.4C52.64 156.24 52.84 154.2 53.12 152.36C53.4 150.52 53.72 148.88 54.12 147.52C54.2 147.2 54.32 146.84 54.4 146.56C54.52 146.24 54.6 145.96 54.68 145.72C54.76 145.44 54.84 145.2 54.92 145C55 144.76 55.08 144.56 55.16 144.4C55.32 144.04 55.44 143.76 55.52 143.56C55.56 143.48 55.6 143.4 55.6 143.36C55.64 143.24 55.68 143.2 55.68 143.2Z" fill="#263238"/>
<path d="M56.12 143.2C56.12 143.2 56.44 143.52 56.72 144.2C57.04 144.88 57.24 146 57.16 147.36C57.04 150.08 56.8 153.8 56.48 157.92C56.16 162.04 55.8 165.76 55.52 168.44C55.36 169.8 55.24 170.88 55.16 171.64C55.12 172 55.08 172.28 55.04 172.52C55.04 172.6 55 172.68 55 172.76C55 172.8 55 172.84 55 172.84C55 172.84 55 172.8 55 172.76C55 172.68 55 172.64 55 172.52C55 172.32 55.04 172 55.08 171.64C55.16 170.88 55.24 169.8 55.4 168.44C55.64 165.76 56 162.04 56.32 157.92C56.64 153.8 56.92 150.08 57.08 147.36C57.16 146 56.96 144.92 56.68 144.24C56.4 143.56 56.12 143.24 56.12 143.2Z" fill="#263238"/>
<path d="M59.5202 155.88C59.5202 155.92 59.0802 155.8 58.6002 155.64C58.1202 155.48 57.7202 155.28 57.7202 155.24C57.7202 155.2 58.1602 155.32 58.6402 155.48C59.1602 155.68 59.5202 155.84 59.5202 155.88Z" fill="#263238"/>
<path d="M60.1198 150.92C60.1198 150.96 59.7598 151.2 59.2398 151.4C58.7198 151.64 58.3198 151.76 58.2798 151.72C58.2798 151.68 58.6398 151.44 59.1598 151.24C59.6798 151 60.0798 150.84 60.1198 150.92Z" fill="#263238"/>
<path d="M59.7999 146.84C59.7999 146.88 59.4799 146.92 59.0799 146.88C58.6799 146.84 58.3599 146.8 58.3599 146.76C58.3599 146.72 58.6799 146.68 59.0799 146.72C59.4799 146.72 59.7999 146.8 59.7999 146.84Z" fill="#263238"/>
<path d="M54.7602 144.2C54.7202 144.24 54.5202 143.96 54.2802 143.6C54.0402 143.24 53.9202 142.92 53.9602 142.92C54.0002 142.88 54.2002 143.16 54.4402 143.52C54.6402 143.88 54.8002 144.2 54.7602 144.2Z" fill="#263238"/>
<path d="M53.0802 146.68C53.0802 146.72 52.7602 146.76 52.4002 146.76C52.0002 146.76 51.7202 146.72 51.7202 146.64C51.7202 146.6 52.0402 146.56 52.4002 146.56C52.7602 146.6 53.0802 146.64 53.0802 146.68Z" fill="#263238"/>
<path d="M51.88 151.6C51.88 151.64 51.52 151.56 51.16 151.4C50.76 151.24 50.48 151.08 50.48 151.04C50.48 151 50.84 151.08 51.2 151.24C51.6 151.4 51.88 151.56 51.88 151.6Z" fill="#263238"/>
<path d="M51.76 155.76C51.76 155.8 51.48 155.92 51.12 156C50.76 156.08 50.48 156.08 50.48 156.04C50.48 156 50.76 155.88 51.12 155.8C51.44 155.72 51.76 155.72 51.76 155.76Z" fill="#263238"/>
<path d="M51.1998 162.52C51.1998 162.56 50.9198 162.68 50.5198 162.72C50.1598 162.8 49.8398 162.8 49.8398 162.76C49.8398 162.72 50.1198 162.6 50.5198 162.56C50.8798 162.52 51.1598 162.48 51.1998 162.52Z" fill="#263238"/>
<path d="M50.8 166.28C50.84 166.32 50.56 166.48 50.24 166.68C49.92 166.84 49.64 166.96 49.6 166.92C49.56 166.88 49.84 166.72 50.16 166.52C50.52 166.36 50.8 166.24 50.8 166.28Z" fill="#263238"/>
<path d="M53.8798 170.52C53.8398 170.56 53.6398 170.24 53.3998 169.84C53.1598 169.44 53.0398 169.12 53.0798 169.08C53.1198 169.04 53.3198 169.36 53.5598 169.76C53.7598 170.16 53.9198 170.52 53.8798 170.52Z" fill="#263238"/>
<path d="M54.7601 163.48C54.8001 163.52 54.5601 163.8 54.2401 164.12C53.9201 164.44 53.6001 164.68 53.6001 164.64C53.5601 164.6 53.8001 164.32 54.1201 164C54.4401 163.68 54.7201 163.44 54.7601 163.48Z" fill="#263238"/>
<path d="M54.56 159.76C54.52 159.8 54.32 159.6 54.08 159.36C53.84 159.12 53.68 158.88 53.72 158.84C53.76 158.8 53.96 159 54.2 159.24C54.44 159.48 54.6 159.72 54.56 159.76Z" fill="#263238"/>
<path d="M55.1599 155.04C55.1999 155.08 54.9999 155.36 54.7199 155.68C54.4399 156 54.1599 156.24 54.1599 156.2C54.1199 156.16 54.3199 155.88 54.5999 155.56C54.8799 155.24 55.1199 155 55.1599 155.04Z" fill="#263238"/>
<path d="M55.5199 151.6C55.4799 151.64 55.1999 151.4 54.8799 151.12C54.5599 150.8 54.3599 150.56 54.3599 150.52C54.3999 150.48 54.6799 150.72 54.9999 151C55.3199 151.28 55.5199 151.56 55.5199 151.6Z" fill="#263238"/>
<path d="M56.1601 146.96C56.2001 147 56.0801 147.28 55.8401 147.64C55.6401 148 55.4001 148.28 55.3601 148.24C55.3201 148.2 55.4401 147.92 55.6801 147.56C55.9201 147.2 56.1201 146.92 56.1601 146.96Z" fill="#263238"/>
<path d="M57.4401 142.64C57.4801 142.68 57.3601 142.96 57.1601 143.32C56.9601 143.68 56.7601 143.96 56.7201 143.92C56.6801 143.88 56.8001 143.6 57.0001 143.24C57.2001 142.92 57.4001 142.64 57.4401 142.64Z" fill="#263238"/>
<path d="M58.8801 144.6C58.9201 144.64 58.7201 144.8 58.4401 144.92C58.1601 145.04 57.9601 145.12 57.9201 145.08C57.8801 145.04 58.0801 144.88 58.3601 144.76C58.6001 144.64 58.8401 144.56 58.8801 144.6Z" fill="#263238"/>
<path d="M58.9201 160.04C58.9201 160.08 58.4801 160.04 57.9601 159.8C57.4401 159.6 57.1201 159.32 57.1201 159.28C57.1601 159.24 57.5201 159.44 58.0001 159.64C58.5201 159.88 58.9201 160 58.9201 160.04Z" fill="#263238"/>
<path d="M58.32 163.32C58.32 163.36 58.04 163.48 57.68 163.52C57.32 163.6 57 163.6 57 163.56C57 163.52 57.28 163.4 57.64 163.36C58 163.32 58.32 163.28 58.32 163.32Z" fill="#263238"/>
<path d="M57.6 168.96C57.56 169 57.2 168.76 56.84 168.32C56.48 167.88 56.32 167.48 56.36 167.44C56.4 167.4 56.64 167.8 56.96 168.2C57.32 168.6 57.64 168.92 57.6 168.96Z" fill="#263238"/>
<path d="M49.7199 171.52C49.6799 171.48 49.8799 171.28 50.1599 171.04C50.4399 170.8 50.6799 170.64 50.7199 170.68C50.7599 170.72 50.5599 170.92 50.2799 171.16C49.9999 171.4 49.7599 171.56 49.7199 171.52Z" fill="#263238"/>
<path d="M47.4796 159.28C47.1596 158.28 46.5597 157.12 45.5197 157.12C44.8797 157.12 44.3596 157.56 44.0396 158.12C43.7596 158.68 43.6396 159.32 43.6396 159.92C43.7596 164 44.4796 168.72 45.8796 172.96H49.7197C49.6397 168.2 48.9196 163.76 47.4796 159.28Z" fill="#455A64"/>
<path d="M40.5599 153C40.0399 150.88 38.4399 149.72 36.5599 149.6C34.8799 149.88 34.1999 151.56 33.9999 153.28C33.7999 155 34.3199 156.68 34.8399 158.32C36.5199 163.56 38.1999 168.8 39.8799 174.08C41.4799 173.92 43.0399 173.72 44.6399 173.56C43.1599 166.48 42.2799 159.96 40.5599 153Z" fill="#455A64"/>
<path d="M45.4801 157.08C45.4801 157.08 45.3201 157.24 45.1601 157.64C45.0001 158 44.9201 158.6 45.0001 159.32C45.0801 160.04 45.1601 160.92 45.2801 161.88C45.4001 162.84 45.5601 163.88 45.8001 165C46.2401 167.2 46.7201 169.16 47.0401 170.6C47.2001 171.32 47.3201 171.92 47.4001 172.32C47.4401 172.52 47.4401 172.68 47.4801 172.8C47.4801 172.92 47.5201 172.96 47.4801 172.96C47.4401 172.96 47.4401 172.92 47.4401 172.8C47.4001 172.68 47.3601 172.52 47.3201 172.36C47.2001 171.92 47.0801 171.36 46.9201 170.68C46.6001 169.24 46.0801 167.28 45.6401 165.08C45.4401 163.96 45.2401 162.92 45.1201 161.96C45.0401 161.48 45.0001 161 44.9601 160.6C44.9201 160.16 44.8801 159.76 44.8401 159.4C44.8001 158.68 44.8801 158.04 45.0801 157.68C45.3201 157.24 45.4801 157.08 45.4801 157.08Z" fill="#263238"/>
<path d="M36.64 149.44C36.64 149.44 36.4 149.68 36.08 150.2C35.76 150.72 35.4 151.6 35.36 152.68C35.28 153.8 35.52 155.12 35.96 156.52C36.36 157.92 36.84 159.48 37.32 161.12C38.28 164.4 39.12 167.32 39.76 169.48C40.04 170.52 40.32 171.4 40.48 172.04C40.56 172.32 40.6 172.56 40.68 172.72C40.72 172.88 40.72 172.96 40.72 172.96C40.72 172.96 40.68 172.88 40.64 172.72C40.6 172.56 40.52 172.32 40.44 172.04C40.24 171.44 40 170.56 39.68 169.52C39.04 167.36 38.16 164.4 37.2 161.16C36.72 159.52 36.28 157.96 35.84 156.56C35.44 155.16 35.2 153.8 35.28 152.68C35.36 151.56 35.72 150.68 36.08 150.16C36.36 149.68 36.64 149.44 36.64 149.44Z" fill="#263238"/>
<path d="M43.6399 173C43.6399 173 43.5999 172.92 43.5199 172.76C43.4399 172.6 43.3599 172.4 43.2399 172.08C42.9999 171.48 42.7199 170.64 42.4399 169.56C42.1199 168.48 41.8399 167.16 41.5599 165.72C41.2799 164.28 40.9999 162.68 40.6799 161C40.3599 159.32 39.9999 157.76 39.5599 156.32C39.1199 154.92 38.6399 153.68 38.1599 152.64C37.6799 151.64 37.2399 150.84 36.8799 150.32C36.7199 150.04 36.5599 149.88 36.4799 149.72C36.3999 149.6 36.3599 149.52 36.3599 149.52C36.3599 149.52 36.4399 149.6 36.5199 149.72C36.5999 149.84 36.7599 150.04 36.9599 150.32C37.3199 150.84 37.7999 151.6 38.2799 152.6C38.7599 153.6 39.2799 154.84 39.7199 156.28C40.1599 157.68 40.5199 159.28 40.8799 160.96C41.1999 162.64 41.4799 164.24 41.7599 165.68C42.0399 167.12 42.3199 168.44 42.5999 169.52C42.8799 170.6 43.1599 171.48 43.3599 172.04C43.4399 172.32 43.5599 172.56 43.5999 172.72C43.5999 172.92 43.6399 173 43.6399 173Z" fill="#263238"/>
<path d="M34.9598 157.52C34.9598 157.56 34.7198 157.68 34.3998 157.76C34.0798 157.84 33.7998 157.88 33.7998 157.84C33.7998 157.8 34.0398 157.68 34.3598 157.6C34.6798 157.48 34.9598 157.48 34.9598 157.52Z" fill="#263238"/>
<path d="M34.4398 154.28C34.4398 154.32 34.0798 154.36 33.6398 154.36C33.1998 154.36 32.8398 154.4 32.8398 154.32C32.8398 154.28 33.1998 154.2 33.6398 154.16C34.0798 154.16 34.4398 154.2 34.4398 154.28Z" fill="#263238"/>
<path d="M35 151.28C34.96 151.32 34.72 151.16 34.44 150.92C34.16 150.68 33.96 150.44 33.96 150.4C34 150.36 34.24 150.52 34.52 150.76C34.8 151.04 35 151.28 35 151.28Z" fill="#263238"/>
<path d="M36.4401 148.56C36.4801 148.56 36.4801 148.8 36.4801 149.08C36.4801 149.36 36.4801 149.6 36.4401 149.6C36.4001 149.6 36.3201 149.36 36.3201 149.08C36.2801 148.76 36.4001 148.56 36.4401 148.56Z" fill="#263238"/>
<path d="M39.3997 149.84C39.4397 149.88 39.3197 150.12 39.1597 150.36C38.9597 150.64 38.7997 150.8 38.7597 150.8C38.7197 150.76 38.8397 150.52 38.9997 150.28C39.1997 150 39.3597 149.8 39.3997 149.84Z" fill="#263238"/>
<path d="M41.3197 153.2C41.3197 153.24 41.0797 153.4 40.7597 153.52C40.4397 153.64 40.1597 153.72 40.1597 153.68C40.1597 153.64 40.3997 153.48 40.7197 153.36C41.0397 153.2 41.3197 153.16 41.3197 153.2Z" fill="#263238"/>
<path d="M42.4799 156.64C42.4799 156.68 42.1599 156.88 41.7199 156.96C41.2799 157.08 40.8799 157.04 40.8799 157C40.8799 156.96 41.2399 156.88 41.6799 156.8C42.1199 156.68 42.4799 156.6 42.4799 156.64Z" fill="#263238"/>
<path d="M37.1197 155.64C37.0797 155.64 37.1197 155.4 37.1997 155.12C37.2797 154.84 37.3997 154.64 37.4397 154.64C37.4797 154.64 37.4397 154.88 37.3597 155.16C37.2797 155.44 37.1597 155.68 37.1197 155.64Z" fill="#263238"/>
<path d="M37.8798 159.96C37.8398 159.96 37.9198 159.64 38.0798 159.24C38.2398 158.88 38.3998 158.56 38.4398 158.6C38.4798 158.64 38.3998 158.92 38.2398 159.32C38.0798 159.72 37.9198 160 37.8798 159.96Z" fill="#263238"/>
<path d="M36.0397 161.16C36.0397 161.2 35.7197 161.12 35.3597 161C34.9997 160.88 34.7197 160.8 34.7197 160.72C34.7197 160.68 35.0397 160.72 35.4397 160.8C35.7597 160.96 36.0397 161.12 36.0397 161.16Z" fill="#263238"/>
<path d="M37.0798 164.68C37.1198 164.72 36.9198 164.92 36.6398 165.12C36.3598 165.32 36.1198 165.44 36.0798 165.4C36.0398 165.36 36.2398 165.16 36.5198 164.96C36.8398 164.76 37.0798 164.64 37.0798 164.68Z" fill="#263238"/>
<path d="M37.9598 168.2C37.9598 168.24 37.7198 168.36 37.3998 168.44C37.0798 168.52 36.7998 168.56 36.7998 168.48C36.7998 168.44 37.0398 168.32 37.3598 168.24C37.6798 168.16 37.9598 168.16 37.9598 168.2Z" fill="#263238"/>
<path d="M42.6 159.56C42.64 159.6 42.4 159.76 42.08 159.88C41.76 160 41.48 160 41.48 159.96C41.48 159.92 41.72 159.84 42 159.72C42.32 159.6 42.56 159.52 42.6 159.56Z" fill="#263238"/>
<path d="M43.2397 165.04C43.1997 165.08 42.9597 165 42.6797 164.88C42.3997 164.76 42.1597 164.6 42.1997 164.56C42.2397 164.52 42.4797 164.6 42.7597 164.72C43.0397 164.84 43.2797 165 43.2397 165.04Z" fill="#263238"/>
<path d="M44.3999 168.92C44.3999 168.96 44.0399 168.88 43.6399 168.72C43.2399 168.56 42.9199 168.4 42.9599 168.36C42.9599 168.32 43.3199 168.4 43.7199 168.56C44.1199 168.72 44.4399 168.88 44.3999 168.92Z" fill="#263238"/>
<path d="M38.1196 172C38.0796 171.96 38.3996 171.76 38.7596 171.48C39.1196 171.2 39.3996 170.96 39.4396 170.96C39.4796 171 39.2396 171.32 38.8796 171.6C38.5196 171.88 38.1596 172.04 38.1196 172Z" fill="#263238"/>
<path d="M41.2398 170C41.1998 170 41.1198 169.76 40.9998 169.44C40.8798 169.12 40.7598 168.88 40.7998 168.88C40.8398 168.84 41.0398 169.08 41.1598 169.4C41.2798 169.72 41.2798 170 41.2398 170Z" fill="#263238"/>
<path d="M40.3996 165.32C40.3596 165.36 40.1596 165.28 39.9596 165.12C39.7596 164.96 39.5996 164.8 39.5996 164.76C39.6396 164.72 39.8396 164.8 40.0396 164.96C40.2796 165.12 40.4396 165.28 40.3996 165.32Z" fill="#263238"/>
<path d="M47.5999 157.96C47.6399 158 47.4399 158.2 47.1599 158.4C46.8799 158.6 46.6399 158.72 46.6399 158.68C46.5999 158.64 46.7999 158.44 47.0799 158.24C47.3599 158.04 47.5999 157.92 47.5999 157.96Z" fill="#263238"/>
<path d="M48.7199 160.92C48.7199 160.96 48.3999 161.04 48.0399 161C47.6799 160.96 47.3599 160.84 47.3999 160.8C47.3999 160.76 47.7199 160.8 48.0799 160.84C48.3999 160.84 48.6799 160.84 48.7199 160.92Z" fill="#263238"/>
<path d="M44.0398 161.56C44.0398 161.6 43.7598 161.72 43.3998 161.72C43.0398 161.76 42.7598 161.68 42.7598 161.64C42.7598 161.6 43.0398 161.56 43.3998 161.56C43.7198 161.56 44.0398 161.52 44.0398 161.56Z" fill="#263238"/>
<path d="M44.4401 158.76C44.4401 158.8 44.1601 158.8 43.8401 158.68C43.5201 158.52 43.3601 158.32 43.4001 158.28C43.4401 158.24 43.6401 158.4 43.9201 158.52C44.2001 158.64 44.4401 158.72 44.4401 158.76Z" fill="#263238"/>
<path d="M49.1198 164.08C49.0798 164.12 48.7998 164 48.4798 163.76C48.1598 163.56 47.8798 163.36 47.9198 163.32C47.9598 163.28 48.2398 163.4 48.5598 163.64C48.8798 163.84 49.1198 164.04 49.1198 164.08Z" fill="#263238"/>
<path d="M60.5201 172.44H35.6001V176.84H60.5201V172.44Z" fill="#289A3F"/>
<path d="M37.4399 175.96L40.4799 189.16H55.3199L58.6399 175.96H37.4399Z" fill="#289A3F"/>
<path d="M60.4799 176.84C60.4799 176.88 54.8799 176.92 47.9199 176.92C40.9999 176.92 35.3599 176.88 35.3599 176.84C35.3599 176.8 40.9599 176.76 47.9199 176.76C54.8399 176.76 60.4799 176.8 60.4799 176.84Z" fill="#263238"/>
<path d="M46.6399 161.68C46.5999 161.72 46.4399 161.52 46.2399 161.24C46.0799 160.96 45.9599 160.72 45.9999 160.72C46.0399 160.68 46.1999 160.88 46.3999 161.16C46.5599 161.4 46.6799 161.64 46.6399 161.68Z" fill="#263238"/>
<path d="M46.64 165.24C46.6 165.24 46.64 164.92 46.76 164.56C46.88 164.2 47 163.92 47.04 163.96C47.08 163.96 47.04 164.28 46.92 164.64C46.8 164.96 46.68 165.24 46.64 165.24Z" fill="#263238"/>
<path d="M47.8399 168.96C47.7999 169 47.5999 168.68 47.4399 168.28C47.2399 167.88 47.1199 167.56 47.1999 167.52C47.2399 167.48 47.4399 167.8 47.5999 168.2C47.7999 168.6 47.8799 168.92 47.8399 168.96Z" fill="#263238"/>
<path d="M45.2401 171.96C45.2001 171.92 45.3601 171.68 45.5601 171.44C45.7601 171.2 46.0001 171 46.0401 171.04C46.0801 171.08 45.9201 171.32 45.7201 171.56C45.4801 171.8 45.2401 172 45.2401 171.96Z" fill="#263238"/>
<path d="M44.6796 166.52C44.6796 166.56 44.4396 166.56 44.1596 166.52C43.8796 166.48 43.6396 166.4 43.6396 166.36C43.6396 166.32 43.8796 166.32 44.1596 166.36C44.4396 166.36 44.6796 166.44 44.6796 166.52Z" fill="#263238"/>
<path d="M131.28 142.08H72.2402V189.16H131.28V142.08Z" fill="#E0E0E0"/>
<g opacity="0.3">
<path d="M76.5601 142.2C83.5201 144.68 91.2001 145.2 98.6401 145.36C100.2 145.4 101.76 145.4 103.24 145.76C104.72 146.16 106.2 147 106.96 148.32C107.8 149.76 107.72 151.6 107.24 153.24C106.76 154.84 105.96 156.36 105.36 157.92C104.32 160.68 104 163.72 104.44 166.64C104.64 167.88 104.96 169.12 105.68 170.16C106.4 171.2 107.56 171.96 108.8 172C111.04 172.04 112.6 169.84 113.68 167.88C118.24 159.88 123.2 150.8 126.12 142.08L76.5601 142.2Z" fill="black"/>
</g>
<path d="M92.3602 188.92C92.3202 188.92 92.2402 178.48 92.2402 165.6C92.2402 152.72 92.2802 142.28 92.3602 142.28C92.4002 142.28 92.4802 152.72 92.4802 165.6C92.4802 178.48 92.4402 188.92 92.3602 188.92Z" fill="#455A64"/>
<path d="M116.56 107.28C116.4 106.12 112.88 102.24 112.88 102.24C112.88 102.24 111.12 95.1999 110.6 93.1199C110.48 92.5999 110.2 91.9999 109.84 91.3999C108.6 89.3199 106.8 87.6399 104.72 86.4399L99.8803 83.7199L98.7203 81.1199L87.0403 75.1199L83.8803 80.7199C83.8803 80.7199 76.2003 83.1599 75.1603 84.9199C74.1603 86.6799 75.6803 110.04 75.6803 110.04C75.6803 110.04 72.4803 123.52 71.8003 126.32C71.1203 129.12 72.0003 132.44 72.0003 132.44L77.7203 125.24C79.4803 123 83.4003 122 86.2003 122.04L110.16 122.16L109.2 115.44L128.56 119.2C128.56 119.2 131.88 112.68 132.16 112.56C132.44 112.44 116.56 107.28 116.56 107.28Z" fill="#007CAA"/>
<path d="M86.5199 82.9199C86.3599 82.7599 87.8799 87.8799 89.7999 93.1199C90.8399 95.9599 91.3599 98.9199 91.3599 101.96V113.48V120.92L102.84 120.12L101.12 107.64C101.12 107.64 99.7199 99.5999 99.3199 96.5199C98.9599 93.7199 97.7199 86.1199 97.7199 86.1199C97.7199 86.1199 91.3199 87.8399 86.5199 82.9199Z" fill="white"/>
<path d="M112.04 112C112.04 112 112.04 111.88 112.04 111.72C112.04 111.52 112.12 111.28 112.2 110.96C112.36 110.32 112.8 109.44 113.52 108.72C114.24 108 115.12 107.6 115.76 107.4C116.08 107.32 116.36 107.28 116.52 107.24C116.72 107.24 116.8 107.24 116.8 107.24C116.8 107.28 116.4 107.32 115.8 107.52C115.2 107.72 114.36 108.16 113.68 108.84C113 109.52 112.56 110.36 112.36 110.96C112.12 111.6 112.08 112 112.04 112Z" fill="#263238"/>
<path d="M112.6 107.44C112.56 107.4 113.32 107 114.36 106.92C115.4 106.84 116.2 107.08 116.16 107.12C116.16 107.2 115.36 107.04 114.36 107.12C113.4 107.24 112.64 107.52 112.6 107.44Z" fill="#263238"/>
<g opacity="0.3">
<path d="M74.52 117.8L73.52 118.92C74.6 120.16 75.96 121.2 77.56 121.6C79.16 122 80.8 122.04 82.44 122.04C83.12 122.04 83.76 122.04 84.4 121.84C85.04 121.64 85.64 121.28 86.32 121.24C86.76 121.2 87.2 121.32 87.68 121.44C88.12 121.52 88.6 121.6 89.04 121.48C89.48 121.36 89.84 120.96 89.84 120.48C84.84 119.04 79.68 118.12 74.52 117.8Z" fill="black"/>
</g>
<path d="M107.32 119.24L104.52 116.24L98.7201 114.76C98.7201 114.76 93.4001 116.36 93.2801 116.36C93.1601 116.36 88.6401 115.12 88.6401 115.12L87.0801 120.88L95.2001 121.44L104.44 121.08C104.44 121.08 104.92 120.64 104.64 120.32C104.36 120 106.2 120.84 106.4 120.84C106.6 120.84 107.04 121 107.32 120.68C107.48 120.48 107.72 119.72 107.32 119.24Z" fill="#FFBE9D"/>
<path d="M104.6 120.36C104.6 120.4 104.24 120.28 103.68 120.08C103.12 119.92 102.36 119.68 101.48 119.44C100.6 119.2 99.7998 119.04 99.2398 118.92C98.6798 118.8 98.3198 118.72 98.3198 118.72C98.3198 118.68 98.6798 118.72 99.2798 118.8C99.8798 118.88 100.68 119.04 101.56 119.24C102.44 119.48 103.2 119.72 103.76 119.96C104.28 120.16 104.6 120.32 104.6 120.36Z" fill="#EB996E"/>
<path d="M107.32 119.24C107.32 119.28 106.84 119.08 106.04 118.84C105.24 118.56 104.16 118.24 102.92 117.92C101.68 117.56 100.6 117.2 99.7599 117.16C98.9199 117.08 98.4399 117.24 98.4399 117.2C98.4399 117.2 98.5599 117.12 98.7999 117.08C99.0399 117.04 99.3599 117 99.7999 117C100.64 117 101.76 117.36 103 117.72C104.24 118.08 105.32 118.4 106.12 118.72C106.52 118.88 106.84 119 107.04 119.12C107.2 119.16 107.32 119.24 107.32 119.24Z" fill="#EB996E"/>
<path d="M75.1601 84.9199C75.1601 84.9199 70.9601 87.8399 69.9601 91.9999C68.9601 96.1999 64.5201 113.28 65.4401 115.84C66.3601 118.4 83.9201 120.92 83.9201 120.92L86.0001 112.12L77.0801 109.68C77.0801 109.68 77.2001 101.52 77.3201 98.1599C77.4401 94.7999 75.1601 84.9199 75.1601 84.9199Z" fill="#007CAA"/>
<path d="M85.8802 113.44L88.7602 114.16L87.0402 120.8L84.2002 120.36L85.8802 113.44Z" fill="white"/>
<path d="M65.3604 114.96C65.3604 114.96 65.3604 115.12 65.4004 115.36C65.4404 115.64 65.6404 116 66.0004 116.36C66.7604 117.08 68.2404 117.68 70.0804 118C70.9204 118.28 71.8804 118.48 72.9204 118.72C73.9604 118.96 75.0404 119.2 76.2404 119.44C78.5604 119.92 81.1604 120.44 83.9204 120.92L83.8004 121C84.0004 120.2 84.2004 119.32 84.4404 118.44C84.9204 116.44 85.4004 114.48 85.8804 112.6L85.9604 112.72C83.0004 111.88 80.3204 111.12 78.0404 110.44C76.8404 109.96 75.6404 109.76 74.5604 109.84C73.5204 109.88 72.6404 110.16 71.9604 110.44C71.2804 110.72 70.8004 111.04 70.4404 111.28C70.2804 111.4 70.1604 111.48 70.0804 111.56C70.0004 111.6 69.9604 111.64 69.9604 111.64C69.9604 111.64 70.0004 111.6 70.0804 111.52C70.1604 111.44 70.2804 111.36 70.4404 111.24C70.7604 111 71.2404 110.68 71.9204 110.36C72.6004 110.04 73.4804 109.76 74.5604 109.72C75.6404 109.64 76.8404 109.8 78.0804 110.32C80.3604 110.96 83.0804 111.72 86.0404 112.56L86.1204 112.6L86.0804 112.68C85.6404 114.52 85.1604 116.48 84.6804 118.52C84.4804 119.4 84.2404 120.24 84.0404 121.08L84.0004 121.16H83.9204C81.1604 120.64 78.6004 120.12 76.2404 119.64C75.0804 119.4 73.9604 119.16 72.9204 118.92C71.8804 118.68 70.9204 118.44 70.0804 118.16C68.2004 117.8 66.7604 117.2 65.9604 116.44C65.5604 116.08 65.4004 115.68 65.3604 115.4C65.3604 115.12 65.3604 114.96 65.3604 114.96Z" fill="#263238"/>
<path d="M77.5599 110.28C77.5199 110.32 77.2399 110.04 76.7199 109.68C76.1999 109.32 75.3999 108.88 74.4399 108.64C73.4799 108.36 72.5999 108.28 71.9599 108.32C71.3199 108.32 70.9199 108.4 70.9199 108.36C70.9199 108.32 71.3199 108.2 71.9599 108.16C72.5999 108.12 73.5199 108.16 74.5199 108.44C75.4799 108.72 76.2799 109.2 76.7999 109.56C77.3199 109.96 77.5599 110.28 77.5599 110.28Z" fill="#263238"/>
<path d="M78.7201 95.96C78.7201 95.96 78.7201 96.16 78.7201 96.48C78.7201 96.84 78.6801 97.32 78.6401 97.92C78.5601 99.16 78.3601 100.84 78.0401 102.68C77.7201 104.52 77.3201 106.2 76.9201 107.36C76.8401 107.64 76.7201 107.92 76.6401 108.16C76.5601 108.36 76.4401 108.56 76.4001 108.72C76.2401 109.04 76.1201 109.2 76.1201 109.2C76.1201 109.2 76.1601 109 76.3201 108.72C76.4001 108.56 76.4401 108.36 76.5601 108.12C76.6401 107.88 76.7201 107.64 76.8001 107.32C77.1601 106.16 77.5201 104.48 77.8401 102.64C78.1601 100.8 78.3601 99.12 78.5201 97.88C78.6001 97.32 78.6401 96.8 78.6801 96.44C78.6801 96.16 78.7201 95.96 78.7201 95.96Z" fill="#263238"/>
<path d="M88.9203 91.4398C88.9203 91.4398 88.8803 91.3198 88.8003 91.1598C88.7203 90.9598 88.5203 90.7198 88.2003 90.5198C87.8803 90.3198 87.4003 90.1598 86.8803 90.3198C86.4003 90.4798 85.9203 90.9598 85.8003 91.5598L85.7603 91.8398L85.6403 91.5598C85.2003 90.6398 84.8003 89.5998 84.4003 88.4798C83.7203 86.4398 83.4403 84.4398 83.4803 83.0398C83.4803 82.6798 83.5203 82.3598 83.5603 82.0798C83.6003 81.7998 83.6403 81.5598 83.6803 81.3598C83.8003 80.9598 83.8403 80.7598 83.8403 80.7598C83.8803 80.7598 83.6003 81.5998 83.6003 83.0398C83.5603 84.4398 83.8803 86.3998 84.5603 88.4398C84.9203 89.5598 85.3603 90.5998 85.7603 91.5198L85.6003 91.5598C85.7603 90.8398 86.2803 90.3598 86.8403 90.1998C87.4003 90.0398 87.9203 90.1998 88.2403 90.4398C88.5603 90.6798 88.7603 90.9598 88.8403 91.1598C88.8803 91.2798 88.9203 91.3598 88.9203 91.3998V91.4398Z" fill="#263238"/>
<path d="M98.6801 92.3199C98.6801 92.3199 98.6401 92.1599 98.6001 91.8399C98.5601 91.5199 98.4401 91.0799 98.5201 90.4799C98.6001 89.9199 98.8801 89.2399 99.4801 88.7199C99.8001 88.4799 100.2 88.3199 100.64 88.3199C101.08 88.3199 101.56 88.4799 101.88 88.8799L101.72 88.9999C101.6 88.6799 101.48 88.3599 101.36 88.0399C100.6 86.1599 99.9601 84.4399 99.4801 83.1999C99.2401 82.5999 99.0801 82.1199 98.9201 81.7199C98.8001 81.3599 98.7201 81.1599 98.7601 81.1599C98.7601 81.1599 98.8801 81.3599 99.0001 81.6799C99.1601 82.0399 99.3601 82.5599 99.6001 83.1199C100.12 84.3599 100.8 86.0399 101.52 87.9199C101.64 88.2399 101.76 88.5599 101.88 88.8799L102.12 89.4799L101.68 88.9599C101.4 88.6399 101 88.4799 100.6 88.4799C100.2 88.4799 99.8401 88.5999 99.5601 88.8399C99.0001 89.2799 98.7201 89.9599 98.6001 90.4799C98.5201 91.0399 98.6001 91.4799 98.6401 91.7999C98.6801 92.1599 98.6801 92.3199 98.6801 92.3199Z" fill="#263238"/>
<path d="M106.08 93.3198C106.12 93.3198 107.04 99.3998 108.08 106.92C109.12 114.44 109.96 120.52 109.88 120.52C109.84 120.52 108.92 114.44 107.88 106.92C106.84 99.4398 106.04 93.3198 106.08 93.3198Z" fill="#263238"/>
<g opacity="0.3">
<path d="M84.52 88.5198C84.56 90.0798 84.92 91.5998 85.52 93.0398C85.96 92.5198 86.44 91.9198 87.12 91.7598C87.96 91.5598 88.8 92.0798 89.36 92.6798C89.24 92.0798 89.04 91.4398 88.64 90.9598C88.24 90.4798 87.68 90.1198 87.04 90.1198C86.44 90.1198 85.8 90.5998 85.72 91.1998L84.56 88.5198" fill="black"/>
</g>
<path d="M77.7603 92.9199C77.7203 92.9199 77.7203 92.5199 77.6003 91.8399C77.4803 91.1999 77.2003 90.3199 76.6403 89.4799C76.3603 89.0799 76.0403 88.6799 75.7203 88.3999C75.4003 88.1199 75.0803 87.8399 74.8003 87.6799C74.2403 87.3199 73.8403 87.1999 73.8403 87.1599C73.8403 87.1599 73.9603 87.1599 74.1203 87.2399C74.2003 87.2799 74.3203 87.3199 74.4403 87.3599C74.5603 87.3999 74.7203 87.4799 74.8403 87.5599C75.1603 87.7199 75.4803 87.9599 75.8003 88.2399C76.1203 88.5599 76.4803 88.9199 76.7603 89.3599C77.3603 90.2399 77.6403 91.1599 77.7203 91.8399C77.7603 92.1599 77.7603 92.4399 77.7603 92.6399C77.8003 92.8399 77.7603 92.9199 77.7603 92.9199Z" fill="#263238"/>
<path d="M100.96 64.3599C100.48 59.9199 96.6802 56.5999 92.2002 56.7199H91.7602C87.0002 57.1199 84.6402 61.3999 85.2002 66.1599L86.5202 82.92L87.0802 83.5999C89.6402 86.7599 94.0002 87.7999 97.7202 86.1199L97.3602 80.7199C97.3602 80.7199 101.96 79.8799 101.88 75.2799C101.84 73.0799 101.4 68.5199 100.96 64.3599Z" fill="#FFBE9D"/>
<path d="M97.4003 80.7199C97.4003 80.7199 94.4803 80.9599 91.3203 79.1199C91.3203 79.1199 92.8403 82.3999 97.4003 81.8799V80.7199Z" fill="#EB996E"/>
<path d="M99.5201 68.2C99.5601 68.56 99.2801 68.84 98.9201 68.88C98.5601 68.92 98.2401 68.64 98.2401 68.32C98.2001 67.96 98.4801 67.68 98.8401 67.64C99.2001 67.56 99.4801 67.84 99.5201 68.2Z" fill="#263238"/>
<path d="M99.8003 65.6799C99.7603 65.7599 99.2403 65.7999 98.6003 66.1599C97.9603 66.4799 97.6003 66.9199 97.5203 66.9199C97.4803 66.9199 97.5203 66.7999 97.6803 66.5999C97.8403 66.3999 98.1203 66.1599 98.5203 65.9599C98.9203 65.7599 99.2803 65.6399 99.4803 65.6399C99.7203 65.5999 99.8403 65.6399 99.8003 65.6799Z" fill="#263238"/>
<path d="M92.88 68.5199C92.92 68.8799 92.64 69.1599 92.28 69.1999C91.92 69.2399 91.6 68.9599 91.6 68.6399C91.56 68.2799 91.84 67.9999 92.2 67.9599C92.56 67.9199 92.88 68.1999 92.88 68.5199Z" fill="#263238"/>
<path d="M92.8 66.64C92.72 66.68 92.28 66.36 91.6 66.2C90.92 66.04 90.36 66.08 90.28 66C90.24 65.96 90.36 65.92 90.6 65.92C90.84 65.88 91.24 65.92 91.64 66.04C92.08 66.16 92.4 66.32 92.6 66.44C92.76 66.56 92.84 66.64 92.8 66.64Z" fill="#263238"/>
<path d="M95.5604 72.16C95.5604 72.12 96.0004 72.0401 96.7204 71.9201C96.8804 71.8801 97.0804 71.8401 97.0804 71.7201C97.1204 71.6001 97.0404 71.4001 96.9604 71.2001C96.7604 70.7601 96.6004 70.3201 96.4004 69.8401C95.6004 67.9201 95.0404 66.32 95.1204 66.28C95.2004 66.24 95.9204 67.8001 96.6804 69.7201C96.8804 70.2001 97.0404 70.64 97.2404 71.08C97.3204 71.28 97.4404 71.5201 97.3604 71.8001C97.3204 71.9201 97.2004 72.04 97.0804 72.08C96.9604 72.12 96.8804 72.1201 96.7604 72.1201C96.0004 72.1601 95.5604 72.2 95.5604 72.16Z" fill="#263238"/>
<path d="M92.8003 63.9199C92.7203 64.1199 92.0403 63.9999 91.2003 64.0399C90.3603 64.0799 89.6803 64.2799 89.6003 64.1199C89.5603 64.0399 89.6803 63.8799 89.9603 63.6799C90.2403 63.5199 90.6803 63.3599 91.1603 63.3199C91.6803 63.2799 92.1203 63.3999 92.4003 63.5199C92.6803 63.6799 92.8403 63.8399 92.8003 63.9199Z" fill="#263238"/>
<path d="M99.8002 64.0799C99.6402 64.2399 99.0402 64.0799 98.3202 64.0799C97.6002 64.0399 96.9602 64.1999 96.8402 64.0399C96.7602 63.9599 96.8802 63.7999 97.1602 63.6399C97.4402 63.4799 97.8802 63.3599 98.3602 63.3599C98.8802 63.3599 99.2802 63.5199 99.5602 63.6799C99.7602 63.8399 99.8802 63.9999 99.8002 64.0799Z" fill="#263238"/>
<path d="M102.32 60.3199C102.24 59.9199 101.84 59.5599 101.4 59.5999C101.64 59.5199 101.84 59.4399 102.04 59.2799C102.2 59.1199 102.32 58.8799 102.24 58.6399C102.12 58.2799 101.68 58.1999 101.32 58.1199C100.84 57.9999 100.44 57.7199 100.12 57.3199C99.6799 56.7599 99.5199 56.0399 99.1199 55.4399C98.6399 54.6799 97.7999 54.1599 96.8799 54.0399C95.9599 53.9599 95.0399 54.2799 94.3999 54.9199C93.6799 54.1999 92.6399 53.8399 91.6399 53.9999C90.6399 54.1599 89.7199 54.7999 89.2799 55.7199C88.0399 55.1999 86.5599 55.4399 85.5199 56.2399C84.4799 57.0799 83.9599 58.4799 84.1999 59.7599L87.0799 61.5199C87.1199 60.6399 88.1199 59.9199 88.9599 60.1599C89.8399 60.3999 90.3599 61.3999 91.2799 61.4799C91.9599 61.5199 92.5599 60.9999 93.2399 60.7999C94.0799 60.5599 94.9199 60.9199 95.6799 61.3199C96.4399 61.7199 97.1199 62.2399 97.9599 62.4799C98.9199 62.7199 99.9599 62.5199 100.88 62.1199C101.28 61.9599 101.68 61.7599 101.96 61.4399C102.2 61.1599 102.4 60.7199 102.32 60.3199Z" fill="#263238"/>
<path d="M87.5602 60.16L100.68 60.08C100.24 59.2 99.4802 58.48 98.6802 57.92C96.9602 56.68 94.8402 55.92 92.6802 55.96C90.5602 56 86.2802 58.72 84.7602 60.24C83.5602 61.44 83.6002 62.48 83.6002 62.48C83.4402 64.2 84.4402 66.08 84.8802 67.76C85.0802 68.6 85.5602 71.2 85.5602 71.2C86.2802 71.16 86.5202 70.6 86.4002 69.88L86.2002 67.08C86.2002 67.08 88.6002 65.28 87.3602 62.12C87.1202 61.84 86.7202 60.68 87.5602 60.16Z" fill="#263238"/>
<path d="M85.9602 66.88C85.2802 64.56 84.6802 62.08 85.4002 59.76C85.2802 59.76 85.1602 59.76 85.0002 59.76L84.8402 59.88C84.1202 59.64 83.2402 59.92 82.7602 60.52C82.3202 61.16 82.3202 62.08 82.7602 62.68C82.0002 62.64 81.2402 63.28 81.1602 64.08C81.1202 64.6 81.3602 65.12 81.6002 65.6C81.8402 66.08 82.0802 66.56 82.0802 67.12C82.0802 67.64 81.7202 68.24 81.2002 68.32C81.4402 68.88 82.1202 69.2 82.6802 69.04C82.4802 69.48 82.1602 69.88 81.7602 70.16C82.6002 70.76 83.8002 70.56 84.7202 70.08C85.2802 69.8 85.8002 69.44 86.0402 68.84C86.3602 68.24 86.1602 67.52 85.9602 66.88Z" fill="#263238"/>
<path d="M85.7602 69.5599C85.6802 69.5199 82.5602 68.7199 82.7602 71.8399C82.9602 74.9999 86.0402 74.1599 86.0402 74.0799C86.0402 73.9999 85.7602 69.5599 85.7602 69.5599Z" fill="#FFBE9D"/>
<path d="M85.2802 72.9199C85.2802 72.9199 85.2402 72.9599 85.1202 72.9999C85.0402 73.0399 84.8802 73.0799 84.7202 73.0399C84.4002 72.9199 84.0802 72.4399 84.0402 71.8799C84.0002 71.5999 84.0402 71.3199 84.1602 71.0799C84.2402 70.8399 84.4002 70.6799 84.5602 70.6399C84.7202 70.5999 84.8402 70.6799 84.8802 70.7599C84.9202 70.8399 84.9202 70.9199 84.9202 70.9199C84.9202 70.9199 85.0002 70.8799 84.9602 70.7199C84.9602 70.6399 84.9202 70.5999 84.8402 70.5199C84.7602 70.4799 84.6402 70.4399 84.5202 70.4399C84.2802 70.4799 84.0802 70.7199 83.9602 70.9599C83.8402 71.1999 83.8002 71.5199 83.8402 71.8399C83.8802 72.4799 84.2402 73.0399 84.7202 73.1599C84.9602 73.1999 85.1202 73.1199 85.2002 73.0399C85.2802 72.9999 85.3202 72.9199 85.2802 72.9199Z" fill="#EB996E"/>
<path d="M82.4804 66.9598C82.4804 66.9598 82.4004 66.8398 82.4404 66.5998C82.4804 66.3598 82.6404 65.9998 83.0404 65.7998C83.4404 65.5598 83.9604 65.5198 84.4804 65.4398C85.0004 65.3998 85.6004 65.2398 85.9204 64.7198C86.2404 64.1998 86.2404 63.5998 86.1604 63.0798C86.0804 62.5598 85.9604 62.0798 85.8804 61.6798C85.7204 60.8398 85.8804 60.3198 85.9204 60.3198C85.9604 60.3198 85.8804 60.8398 86.0804 61.6398C86.1604 62.0398 86.3204 62.5198 86.4004 63.0798C86.4804 63.6398 86.4804 64.2798 86.1204 64.8798C85.9604 65.1598 85.6804 65.3998 85.3604 65.5198C85.0804 65.6398 84.7604 65.6798 84.4804 65.7198C83.9204 65.7598 83.4404 65.7998 83.0804 65.9998C82.7204 66.1998 82.5604 66.4798 82.5204 66.6798C82.4804 66.8398 82.5204 66.9598 82.4804 66.9598Z" fill="#455A64"/>
<path d="M81.7199 65.6C81.7199 65.6 81.6399 65.52 81.6399 65.32C81.5999 65.12 81.6399 64.84 81.7999 64.52C81.8799 64.36 81.9999 64.2 82.1599 64.08C82.3199 63.96 82.5599 63.84 82.7599 63.8C82.9599 63.72 83.1999 63.68 83.3599 63.56C83.5199 63.44 83.5999 63.24 83.5999 63C83.5999 62.76 83.5599 62.52 83.5599 62.24C83.5599 62 83.5999 61.76 83.6399 61.52C83.7199 61.08 83.9199 60.68 84.0799 60.4C84.2799 60.08 84.5599 59.96 84.7599 59.96C84.9599 59.96 85.0399 60.04 85.0399 60.08C85.0399 60.08 84.9199 60.04 84.7599 60.08C84.5999 60.12 84.3599 60.24 84.1999 60.52C84.0399 60.8 83.9199 61.16 83.8399 61.6C83.7999 61.8 83.7599 62.04 83.7599 62.28C83.7599 62.52 83.7999 62.76 83.7999 63.04C83.7999 63.32 83.7199 63.6 83.4799 63.8C83.2399 63.96 82.9999 64 82.7999 64.08C82.3599 64.16 82.0799 64.4 81.9199 64.68C81.5999 65.16 81.7599 65.6 81.7199 65.6Z" fill="#455A64"/>
<path d="M100.12 57.3199C100.12 57.3199 99.8802 57.4799 99.4802 57.2799C99.2802 57.1999 99.0802 56.9999 98.8802 56.7599C98.6802 56.5199 98.4802 56.2799 98.1602 56.1199C97.5602 55.7599 96.5602 55.6799 95.8002 56.2799C95.4002 56.5599 95.0802 56.9599 94.6002 57.2799C94.3602 57.4399 94.1202 57.5999 93.8002 57.6399C93.5202 57.6799 93.2002 57.6399 92.9202 57.5599C92.3602 57.3599 91.9202 56.9999 91.4002 56.8399C90.9202 56.6399 90.4002 56.5599 89.9202 56.5599C88.9602 56.5599 88.1202 56.9199 87.5602 57.3599C86.9602 57.7999 86.6402 58.3199 86.4402 58.6799C86.2402 59.0399 86.1602 59.2799 86.1602 59.2399C86.1602 59.2399 86.1602 59.1999 86.2002 59.0799C86.2402 58.9599 86.2802 58.7999 86.3602 58.6399C86.5202 58.2399 86.8802 57.7199 87.4802 57.2399C88.0802 56.7599 88.9602 56.3599 89.9602 56.3199C90.4802 56.3199 91.0002 56.3999 91.5202 56.5999C92.0402 56.7999 92.5202 57.1199 93.0002 57.3199C93.2402 57.3999 93.5202 57.4399 93.7602 57.3999C94.0002 57.3599 94.2402 57.2399 94.4402 57.0799C94.8802 56.7599 95.2002 56.3999 95.6402 56.0799C96.0402 55.7599 96.5602 55.6399 97.0002 55.6399C97.4402 55.6399 97.8802 55.7599 98.2002 55.9599C98.5202 56.1599 98.7602 56.4399 98.9602 56.6799C99.1602 56.9199 99.3202 57.0799 99.4802 57.1999C99.8802 57.3999 100.12 57.2799 100.12 57.3199Z" fill="#455A64"/>
<path d="M93.8002 72.9599C93.8802 72.9199 94.0002 73.5999 94.6802 73.9999C95.3202 74.3999 96.0402 74.1999 96.0402 74.2799C96.0402 74.3199 95.9202 74.4399 95.6002 74.4799C95.3202 74.5599 94.8402 74.5199 94.4402 74.2799C94.0402 74.0399 93.8402 73.6799 93.7602 73.3999C93.7202 73.1599 93.7602 72.9599 93.8002 72.9599Z" fill="#263238"/>
<path d="M135.2 135.48C134 134.44 132.36 133.92 130.8 134.04L128.08 142.64C130.08 142.72 132.04 143.76 133.96 143.24C135.48 142.8 136.68 141.36 136.88 139.8C137.08 138.16 136.4 136.52 135.2 135.48Z" fill="#007CAA"/>
<path d="M130.84 133.8C130.84 133.72 131.12 133.68 131.64 133.68C132.16 133.68 132.92 133.76 133.84 134.08C134.76 134.4 135.76 135.12 136.52 136.16C136.92 136.68 137.24 137.32 137.4 138.04C137.6 138.76 137.64 139.52 137.48 140.28C137.32 141.04 137 141.76 136.48 142.32C136 142.88 135.36 143.28 134.72 143.52C133.44 144 132.24 143.92 131.32 143.72C130.4 143.52 129.68 143.28 129.2 143.08C128.72 142.88 128.48 142.72 128.48 142.64C128.52 142.56 128.8 142.6 129.28 142.68C129.8 142.76 130.52 142.92 131.4 143C132.28 143.08 133.32 143.04 134.32 142.64C134.8 142.44 135.28 142.12 135.64 141.68C136 141.24 136.28 140.68 136.4 140.08C136.64 138.84 136.28 137.64 135.68 136.72C135.04 135.8 134.24 135.12 133.48 134.76C132.72 134.36 132 134.2 131.52 134.08C131.12 133.96 130.84 133.88 130.84 133.8Z" fill="#F5F5F5"/>
<path d="M105.8 166.04L99.9204 182.52L120.36 189.96C120.96 187.96 111.8 180.2 111.8 180.2L116 169.8L105.8 166.04Z" fill="#007CAA"/>
<g opacity="0.6">
<path d="M105.8 176.96C105.36 176.92 104.92 177.28 104.88 177.72C104.84 178.16 105.16 178.6 105.6 178.64C106.04 178.68 106.56 178.28 106.56 177.84C106.56 177.4 106.12 176.92 105.68 176.96" fill="white"/>
</g>
<path d="M99.9204 182.52L100.52 180.84L119.96 188.6C119.96 188.6 120.72 189.32 120.4 189.92L99.9204 182.52Z" fill="white"/>
<path d="M112.161 180.16C112.121 180.24 111.601 180.12 111.001 180.28C110.401 180.4 109.961 180.76 109.921 180.68C109.841 180.64 110.201 180.08 110.921 179.92C111.641 179.76 112.201 180.08 112.161 180.16Z" fill="#263238"/>
<path d="M114.001 181.84C114.001 181.96 113.481 181.96 113.001 182.24C112.481 182.52 112.241 182.96 112.161 182.92C112.081 182.92 112.201 182.28 112.841 181.92C113.401 181.56 114.001 181.76 114.001 181.84Z" fill="#263238"/>
<path d="M114.28 184.84C114.2 184.84 114.24 184.28 114.68 183.84C115.12 183.4 115.68 183.32 115.68 183.44C115.72 183.56 115.28 183.72 114.92 184.12C114.56 184.48 114.36 184.88 114.28 184.84Z" fill="#263238"/>
<path d="M112.84 177.72C112.76 177.8 112.36 177.48 111.76 177.32C111.2 177.16 110.68 177.16 110.64 177.08C110.6 177 111.16 176.76 111.84 176.96C112.56 177.16 112.92 177.64 112.84 177.72Z" fill="#263238"/>
<path d="M113.241 175.08C113.241 175.12 112.801 175.04 112.201 174.72C111.921 174.56 111.561 174.32 111.241 174C111.081 173.84 110.921 173.68 110.761 173.48C110.681 173.4 110.601 173.28 110.521 173.12C110.441 172.96 110.481 172.68 110.681 172.56C110.841 172.44 111.041 172.44 111.201 172.48C111.361 172.52 111.481 172.6 111.561 172.68C111.761 172.8 111.961 172.96 112.121 173.12C112.441 173.44 112.681 173.76 112.841 174.08C113.161 174.68 113.201 175.12 113.161 175.12C113.121 175.12 113.001 174.76 112.641 174.2C112.481 173.92 112.241 173.64 111.921 173.36C111.761 173.24 111.601 173.08 111.401 172.96C111.201 172.84 111.041 172.76 110.921 172.84C110.881 172.88 110.881 172.88 110.921 172.96C110.961 173.04 111.001 173.12 111.081 173.2C111.201 173.4 111.361 173.56 111.521 173.72C111.801 174.04 112.121 174.28 112.361 174.44C112.881 174.88 113.281 175.04 113.241 175.08Z" fill="#263238"/>
<path d="M113.08 175.2C113.04 175.2 112.96 174.76 113.16 174.12C113.24 173.8 113.44 173.4 113.72 173.04C113.84 172.84 114 172.68 114.2 172.52C114.4 172.36 114.64 172.16 115.04 172.24C115.24 172.32 115.36 172.52 115.36 172.68C115.36 172.84 115.36 172.96 115.32 173.08C115.28 173.32 115.2 173.56 115.08 173.76C114.84 174.16 114.56 174.48 114.24 174.64C113.64 175.04 113.2 175 113.2 174.96C113.2 174.88 113.6 174.84 114.08 174.44C114.32 174.24 114.56 173.96 114.76 173.6C114.84 173.4 114.92 173.2 114.96 173C115 172.76 115 172.56 114.88 172.56C114.76 172.52 114.56 172.64 114.4 172.76C114.24 172.92 114.08 173.08 113.96 173.24C113.68 173.56 113.52 173.88 113.4 174.2C113.16 174.8 113.12 175.2 113.08 175.2Z" fill="#263238"/>
<path d="M85.9602 122.04C82.8402 122.12 79.9202 122.56 77.7602 124.8C74.9202 127.8 71.4002 132.04 71.2002 135C70.9202 139.4 73.5602 140.72 75.5202 141.8C76.3602 142.28 77.3602 142.48 78.3202 142.44L114.2 142.16L115.32 136.08L92.1202 130.36L93.0802 121.64L85.9602 122.04Z" fill="#263238"/>
<path d="M93.1201 121.6L104.4 121.08C104.4 121.08 123.88 122.16 128.04 125.96C132.2 129.76 131.68 134.12 130.28 138.28C128.88 142.44 116.68 169.04 116.68 169.04C116.68 169.04 117.68 170.72 117.12 172.4C116.24 175 113.92 175.44 113.92 175.44L103.08 171.44C103.08 171.44 101.6 170.92 102.64 169.52C103.68 168.12 104.36 167.88 104.36 167.88V165.12C104.36 165.12 108.16 158.2 108.52 157.24C108.88 156.28 112.52 142.2 112.52 142.2L114.96 138.04C114.96 138.04 109.08 135.28 104 133.28L92.1201 130.36L93.1201 121.6Z" fill="#263238"/>
<path d="M111.4 170.96C111.36 171 111.04 170.72 110.44 170.32C109.84 169.92 109 169.48 108 169.08C107 168.72 106.04 168.48 105.36 168.4C104.68 168.28 104.24 168.28 104.24 168.24C104.24 168.2 104.68 168.2 105.4 168.24C106.12 168.32 107.08 168.48 108.08 168.88C109.08 169.28 109.96 169.76 110.52 170.2C111.12 170.64 111.44 170.96 111.4 170.96Z" fill="#455A64"/>
<path d="M116.84 169.08C116.8 169.08 116.56 168.84 116.2 168.4C115.84 167.96 115.36 167.36 114.84 166.68C114.32 166 113.88 165.32 113.6 164.88C113.28 164.4 113.12 164.08 113.16 164.08C113.2 164.08 113.4 164.36 113.72 164.8C114.08 165.32 114.52 165.92 115 166.56C115.48 167.2 115.92 167.8 116.32 168.32C116.68 168.76 116.88 169.04 116.84 169.08Z" fill="#455A64"/>
<path d="M120.8 134.24C120.8 134.28 120.4 134.36 119.76 134.56C119.12 134.76 118.28 135.12 117.44 135.64C116.6 136.16 115.88 136.8 115.44 137.24C114.96 137.72 114.72 138.04 114.68 138C114.68 138 114.88 137.64 115.32 137.12C115.76 136.6 116.44 135.96 117.32 135.44C118.2 134.88 119.08 134.56 119.72 134.4C120.4 134.24 120.8 134.2 120.8 134.24Z" fill="#455A64"/>
<path d="M109.72 153.08C109.72 153.08 109.72 153 109.76 152.84C109.8 152.68 109.84 152.44 109.92 152.16C110.08 151.56 110.32 150.76 110.56 149.72C111.12 147.64 111.92 144.84 112.8 141.76C113.24 140.2 113.64 138.72 114.08 137.4C114.6 136.08 115.4 135.04 116.12 134.28C116.88 133.52 117.56 133 118.04 132.68C118.28 132.52 118.48 132.4 118.64 132.32C118.76 132.24 118.84 132.2 118.84 132.2C118.84 132.2 118.56 132.4 118.08 132.72C117.6 133.08 116.92 133.6 116.2 134.36C115.48 135.12 114.72 136.16 114.24 137.44C113.84 138.76 113.44 140.28 113 141.8C112.12 144.88 111.32 147.68 110.72 149.76C110.44 150.76 110.2 151.56 110 152.16C109.92 152.44 109.84 152.64 109.8 152.8C109.76 153 109.72 153.08 109.72 153.08Z" fill="#455A64"/>
<path d="M99.7201 132.76C99.6801 132.76 99.4401 130.64 99.2001 128.04C98.9601 125.44 98.8401 123.32 98.8801 123.32C98.9201 123.32 99.1601 125.44 99.4001 128.04C99.6401 130.64 99.8001 132.76 99.7201 132.76Z" fill="#455A64"/>
<path d="M80.9601 138.4C80.9201 138.4 80.7601 138.08 80.4001 137.56C80.0401 137.04 79.4801 136.4 78.7601 135.84C78.0401 135.28 77.2801 134.88 76.6801 134.68C76.1201 134.44 75.7201 134.36 75.7601 134.32C75.7601 134.28 76.1601 134.32 76.7601 134.52C77.3601 134.72 78.1601 135.08 78.9201 135.68C79.6801 136.28 80.2401 136.96 80.5601 137.48C80.8401 138 80.9601 138.36 80.9601 138.4Z" fill="#455A64"/>
<path d="M87.8802 130.72C87.8402 130.76 87.4002 130.44 86.5602 130.08C85.7202 129.72 84.5202 129.28 83.1602 129.08C81.8002 128.88 80.5202 128.96 79.6402 129.08C78.7202 129.2 78.2002 129.36 78.2002 129.32C78.2002 129.32 78.3202 129.24 78.5602 129.16C78.8002 129.08 79.1602 129 79.6002 128.92C80.5202 128.76 81.8002 128.68 83.2002 128.88C84.6002 129.08 85.8002 129.52 86.6402 129.96C87.0402 130.16 87.3602 130.36 87.6002 130.52C87.7602 130.64 87.8802 130.72 87.8802 130.72Z" fill="#455A64"/>
<path d="M114.88 136.08C114.88 136.08 114.8 136.08 114.6 136.04C114.4 136 114.12 135.92 113.8 135.88C113.08 135.72 112.08 135.48 110.88 135.24C108.4 134.68 105 133.96 101.2 133.2C97.4004 132.44 93.9604 131.84 91.4804 131.4C90.2404 131.2 89.2404 131 88.5204 130.88C88.2004 130.84 87.9204 130.76 87.7204 130.72C87.5204 130.68 87.4404 130.68 87.4404 130.64C87.4404 130.6 87.5204 130.64 87.7204 130.68C87.9204 130.72 88.2004 130.76 88.5204 130.8C89.2404 130.88 90.2404 131.04 91.4804 131.24C94.0004 131.64 97.4404 132.24 101.2 132.96C105 133.72 108.4 134.48 110.88 135.08C112.12 135.36 113.12 135.64 113.8 135.8C114.12 135.88 114.4 135.96 114.6 136C114.8 136.04 114.88 136.04 114.88 136.08Z" fill="#455A64"/>
<path d="M92.16 131.4C92.12 131.4 92.04 130.92 91.68 130.24C91.48 129.92 91.2 129.52 90.84 129.16C90.48 128.8 90.04 128.44 89.6 128.08C88.68 127.36 87.72 126.84 87.04 126.48C86.36 126.12 85.92 125.88 85.96 125.84C85.96 125.8 86.4 126 87.12 126.32C87.84 126.64 88.8 127.16 89.76 127.88C90.24 128.24 90.68 128.6 91.04 129C91.4 129.36 91.68 129.76 91.84 130.12C92 130.48 92.12 130.8 92.16 131C92.16 131.24 92.16 131.36 92.16 131.4Z" fill="#455A64"/>
<path d="M132.12 136.8C132.16 136.84 131.56 137.44 131.08 138.36C130.6 139.28 130.48 140.12 130.4 140.12C130.36 140.12 130.4 139.24 130.88 138.28C131.4 137.32 132.08 136.76 132.12 136.8Z" fill="#263238"/>
<g opacity="0.3">
<path d="M106.44 95.7998L109 113.88L109.12 114.16C109.72 107.96 108.8 101.6 106.44 95.7998Z" fill="black"/>
</g>
<path d="M120.28 106.2L111.92 120.8L91.3603 121.24L91.3203 122.16L111.24 122L111.88 121.96L132.92 122L137.16 114.68L142.6 106.88C142.96 106.36 142.6 105.68 141.96 105.68L120.96 105.76C120.64 105.84 120.4 105.96 120.28 106.2Z" fill="#E0E0E0"/>
<path d="M137.121 114.72C137.121 114.72 138.201 115.72 138.041 116.56C137.881 117.4 137.921 118.04 137.121 118.08C137.121 118.08 137.161 119.16 136.041 119.32C136.041 119.32 136.281 120.64 134.761 120.88C134.761 120.88 134.281 122.28 133.321 121.96C132.361 121.6 131.721 121.24 131.721 121.24L131.441 120.72C131.441 120.72 130.001 120.2 130.361 119.36C130.561 118.88 131.321 118.76 131.321 118.76C131.321 118.76 131.001 118.04 131.401 117.52C131.761 117.08 132.841 117.44 132.841 117.44C132.841 117.44 132.761 116.84 133.201 116.36C133.561 115.92 135.361 117.12 135.361 117.12L136.321 115.96L137.121 114.72Z" fill="#FFBE9D"/>
<path d="M134.76 120.88C134.72 120.92 133.92 120.48 133 119.88C132.04 119.28 131.32 118.76 131.32 118.72C131.36 118.68 132.16 119.12 133.08 119.72C134.04 120.32 134.8 120.84 134.76 120.88Z" fill="#EB996E"/>
<path d="M136.041 119.36C136.001 119.4 135.281 119 134.401 118.48C133.521 117.96 132.841 117.48 132.881 117.44C132.921 117.4 133.641 117.8 134.521 118.32C135.401 118.84 136.081 119.28 136.041 119.36Z" fill="#EB996E"/>
<path d="M134.281 116.44C134.321 116.4 134.961 116.72 135.761 117.2C136.521 117.68 137.161 118.08 137.121 118.12C137.081 118.2 136.401 117.88 135.641 117.4C134.881 116.92 134.241 116.48 134.281 116.44Z" fill="#EB996E"/>
<path d="M142.56 106.28C142.56 106.28 142.52 106.28 142.44 106.28C142.36 106.28 142.28 106.28 142.16 106.28C141.88 106.28 141.52 106.28 141.04 106.28C140.04 106.28 138.6 106.28 136.88 106.32C133.32 106.32 128.48 106.32 123.08 106.36C122.76 106.36 122.4 106.36 122.08 106.36C121.76 106.32 121.48 106.48 121.32 106.72C121 107.28 120.68 107.84 120.4 108.4C119.8 109.52 119.2 110.6 118.64 111.6C117.52 113.64 116.48 115.48 115.64 117C114.8 118.52 114.08 119.76 113.6 120.64C113.36 121.04 113.16 121.4 113.04 121.64C112.96 121.76 112.92 121.84 112.88 121.88C112.84 121.92 112.84 121.96 112.84 121.96C112.84 121.96 112.84 121.92 112.88 121.88C112.92 121.8 112.96 121.72 113 121.6C113.12 121.36 113.32 121.04 113.52 120.6C114 119.72 114.68 118.48 115.52 116.92C116.36 115.36 117.36 113.52 118.48 111.48C119.04 110.44 119.64 109.4 120.24 108.28C120.56 107.72 120.88 107.16 121.2 106.56C121.4 106.24 121.8 106.08 122.12 106.12C122.44 106.12 122.8 106.12 123.12 106.12C128.48 106.12 133.36 106.16 136.92 106.16C138.68 106.16 140.08 106.2 141.08 106.2C141.56 106.2 141.92 106.2 142.2 106.2C142.32 106.2 142.4 106.2 142.48 106.2C142.52 106.28 142.56 106.28 142.56 106.28Z" fill="#263238"/>
<path d="M127.76 113.64C127.4 114.04 127.36 114.64 127.76 114.96C128.12 115.28 128.72 115.2 129.08 114.8C129.44 114.4 129.48 113.8 129.08 113.48C128.72 113.16 128.12 113.24 127.76 113.64Z" fill="white"/>
<g opacity="0.3">
<path d="M69.36 108C69.2 108.08 68.96 108.2 68.96 108.4C68.96 108.56 69.12 108.68 69.24 108.72C69.4 108.76 69.96 108.52 70.08 108.48C72.24 108 74.04 108.48 76.08 109.28L76.16 109.2C75.36 107.44 71.68 107.04 69.36 108Z" fill="black"/>
</g>
<path d="M180.8 189.2C180.8 189.24 144.6 189.32 100 189.32C55.3602 189.32 19.2002 189.28 19.2002 189.2C19.2002 189.12 55.3602 189.08 100 189.08C144.64 189.08 180.8 189.12 180.8 189.2Z" fill="#263238"/>
<path d="M58.1601 61.68C58.2401 61.76 71.5201 57.2 71.5201 57.2L66.4001 45.48L54.6001 50L61.1201 53.72L58.1601 61.68Z" fill="#3AB4DD"/>
<path d="M64.3999 48.9999V33.0399C64.3999 33.0399 82.7199 29.6799 95.9199 29.8799C109.12 30.0799 122.72 32.2399 122.72 32.2399V47.5599C122.72 47.5599 81.3599 43.8799 64.3999 48.9999Z" fill="#3AB4DD"/>
<path d="M64.3203 48.9998L71.5203 57.2398V47.5598C71.5203 47.5598 65.4803 48.2798 64.3203 48.9998Z" fill="#263238"/>
<path d="M64.4002 33.04C64.4402 33.04 64.4802 36.6 64.4402 41.04C64.4002 45.44 64.3602 49.04 64.2802 49.04C64.2402 49.04 64.2002 45.48 64.2402 41.04C64.2802 36.6 64.3602 33.04 64.4002 33.04Z" fill="#263238"/>
<path d="M128.92 60.44C128.84 60.52 115.56 55.96 115.56 55.96L120.68 44.24L132.52 48.76L126 52.48L128.92 60.44Z" fill="#3AB4DD"/>
<path d="M122.8 47.8L115.6 56.04V47.04C118 47.12 120.4 47.36 122.8 47.8Z" fill="#263238"/>
<path d="M122.72 32.24C122.76 32.24 122.84 35.72 122.88 40C122.92 44.28 122.88 47.76 122.8 47.76C122.76 47.76 122.68 44.28 122.64 40C122.64 35.72 122.68 32.24 122.72 32.24Z" fill="#263238"/>
<path d="M74.7202 40.0399C74.5602 38.7599 75.4002 37.7199 76.7202 37.5199C77.4402 37.3999 78.0802 37.5999 78.5602 38.0399L78.0002 38.7199C77.6802 38.4399 77.2802 38.3199 76.8802 38.3599C76.0802 38.4799 75.6002 39.1199 75.7202 39.8799C75.8402 40.6799 76.4802 41.1599 77.2402 41.0399C77.6802 40.9999 78.0002 40.7599 78.2402 40.3999L78.9602 40.8799C78.6402 41.4399 78.0402 41.7599 77.3202 41.8799C76.0002 42.0799 74.9202 41.3199 74.7202 40.0399Z" fill="white"/>
<path d="M79.0803 39.4399C78.9603 38.1999 79.8403 37.1599 81.1603 36.9999C82.4803 36.8799 83.5603 37.6799 83.7203 38.9599C83.8403 40.2399 82.9603 41.2399 81.6403 41.3999C80.3203 41.5199 79.2403 40.6799 79.0803 39.4399ZM82.7603 39.0799C82.6803 38.2799 82.0403 37.7999 81.2803 37.8799C80.5203 37.9599 80.0003 38.5599 80.0803 39.3599C80.1603 40.1599 80.8003 40.6399 81.5603 40.5599C82.3203 40.4799 82.8403 39.8799 82.7603 39.0799Z" fill="white"/>
<path d="M88.5204 40.7599L88.3604 38.1999L87.2404 40.3999L86.8004 40.4399L85.4404 38.4799L85.6004 40.9599L84.6804 40.9999L84.4004 36.7599L85.2004 36.7199L86.9604 39.2399L88.3604 36.4799L89.1604 36.4399L89.4404 40.6799L88.5204 40.7599Z" fill="white"/>
<path d="M94.0403 37.8398C94.0803 38.7998 93.3603 39.3998 92.2403 39.4398L91.4003 39.4798L91.4403 40.6398L90.4403 40.6798L90.2803 36.3998L92.1203 36.3598C93.2803 36.3198 94.0003 36.9198 94.0403 37.8398ZM93.0403 37.8798C93.0403 37.3998 92.7203 37.1598 92.1203 37.1598L91.3203 37.1998L91.3603 38.6798L92.1603 38.6398C92.7603 38.6398 93.0403 38.3598 93.0403 37.8798Z" fill="white"/>
<path d="M94.7603 36.3198H95.7603V39.7598H97.8803V40.5598H94.7603V36.3198Z" fill="white"/>
<path d="M101.76 39.8799L101.72 40.6799L98.4399 40.5999L98.5599 36.3599L101.76 36.4399L101.72 37.2399L99.4799 37.1599L99.4399 38.0799L101.4 38.1199L101.36 38.8799L99.3999 38.8399L99.3599 39.8399L101.76 39.8799Z" fill="white"/>
<path d="M103.56 37.3199L102.2 37.2399L102.24 36.4399L105.96 36.6799L105.92 37.4799L104.56 37.3999L104.36 40.8399L103.36 40.7999L103.56 37.3199Z" fill="white"/>
<path d="M109.56 40.4797L109.48 41.2797L106.2 40.9597L106.6 36.7197L109.8 36.9997L109.72 37.7997L107.48 37.5997L107.4 38.5197L109.36 38.7197L109.28 39.4797L107.32 39.2797L107.24 40.2797L109.56 40.4797Z" fill="white"/>
<path d="M110.76 37.1199L112.68 37.3599C114.08 37.5599 114.88 38.5199 114.72 39.7999C114.56 41.0799 113.48 41.7999 112.12 41.5999L110.2 41.3599L110.76 37.1199ZM112.2 40.7999C113.04 40.9199 113.64 40.4799 113.76 39.6799C113.88 38.8799 113.4 38.2799 112.56 38.1999L111.68 38.0799L111.32 40.6799L112.2 40.7999Z" fill="white"/>
<path d="M130.92 33.7201L131.96 34.9201L134.92 33.7201L134.04 32.4001L130.92 33.7201Z" fill="#455A64"/>
<path d="M129.56 27.8801C129.56 28.7201 128.88 29.4001 128.04 29.4001C127.2 29.4001 126.52 28.7201 126.52 27.8801C126.52 27.0401 127.2 26.3601 128.04 26.3601C128.88 26.3201 129.56 27.0001 129.56 27.8801Z" fill="#289A3F"/>
<path d="M95.1601 50.76C95.1601 51.2 94.8001 51.52 94.4001 51.52C93.9601 51.52 93.6401 51.16 93.6401 50.76C93.6401 50.32 94.0001 50 94.4001 50C94.8001 50 95.1601 50.36 95.1601 50.76Z" fill="#289A3F"/>
<path d="M59.3602 39.2401C59.3602 39.5601 59.0802 39.8401 58.7602 39.8401C58.4402 39.8401 58.1602 39.5601 58.1602 39.2401C58.1602 38.9201 58.4402 38.6401 58.7602 38.6401C59.1202 38.6401 59.3602 38.9201 59.3602 39.2401Z" fill="#289A3F"/>
<path d="M57.2002 32.8L58.9202 32.92L59.7602 29.52L58.1202 29.6L57.2002 32.8Z" fill="#455A64"/>
<path d="M110.96 59.8001L111.56 61.4401L114.96 60.8801L114.28 59.4001L110.96 59.8001Z" fill="#289A3F"/>
<path d="M76.2402 50.4402L75.2002 51.8002L77.5202 54.4002L78.3602 53.0402L76.2402 50.4402Z" fill="#455A64"/>
<path d="M72.1601 18.48L76.2001 22.64L81.9201 20.48L82.1601 21.88L79.6801 26.96L81.9601 30.76L81.7601 31.88L76.2401 30.96L72.9601 34.52L72.2001 33.96L71.5201 29.4L66.3601 26.68L66.1201 25.64L71.3201 24.24L72.1601 18.48Z" fill="#DC2020"/>
<g opacity="0.3">
<path d="M72.1601 18.48L76.2001 22.64L81.9201 20.48L82.1601 21.88L79.6801 26.96L81.9601 30.76L81.7601 31.88L76.2401 30.96L72.9601 34.52L72.2001 33.96L71.5201 29.4L66.3601 26.68L66.1201 25.64L71.3201 24.24L72.1601 18.48Z" fill="black"/>
</g>
<path d="M72.1601 17.3201L76.2001 21.4801L81.9201 20.4801L79.2401 25.6001L81.9601 30.7601L76.2401 29.8001L72.2001 33.9601L71.3601 28.2001L66.1201 25.6401L71.3201 23.0801L72.1601 17.3201Z" fill="#DC2020"/>
<path d="M114.24 18.48L110.2 22.64L104.48 20.48L104.24 21.88L106.72 26.96L104.44 30.76L104.64 31.88L110.16 30.96L113.44 34.52L114.2 33.96L114.88 29.4L120.04 26.68L120.24 25.64L115.08 24.24L114.24 18.48Z" fill="#DC2020"/>
<g opacity="0.3">
<path d="M114.24 18.48L110.2 22.64L104.48 20.48L104.24 21.88L106.72 26.96L104.44 30.76L104.64 31.88L110.16 30.96L113.44 34.52L114.2 33.96L114.88 29.4L120.04 26.68L120.24 25.64L115.08 24.24L114.24 18.48Z" fill="black"/>
</g>
<path d="M114.24 17.3201L110.2 21.4801L104.48 20.4801L107.16 25.6001L104.44 30.7601L110.16 29.8001L114.2 33.9601L115.04 28.2001L120.24 25.6401L115.08 23.0801L114.24 17.3201Z" fill="#DC2020"/>
<path d="M93.0799 11.24L96.4399 17.84L104.24 17.36L103.96 19.2L99.0399 24.44L100.36 29.92L99.7199 31.2L93.3199 27.96L87.9599 31.12L87.2399 30.12L88.1599 24.28L82.8799 19.04L82.9999 17.68L89.8799 17.92L93.0799 11.24Z" fill="#DC2020"/>
<g opacity="0.3">
<path d="M93.0799 11.24L96.4399 17.84L104.24 17.36L103.96 19.2L99.0399 24.44L100.36 29.92L99.7199 31.2L93.3199 27.96L87.9599 31.12L87.2399 30.12L88.1599 24.28L82.8799 19.04L82.9999 17.68L89.8799 17.92L93.0799 11.24Z" fill="black"/>
</g>
<path d="M93.52 9.80005L96.88 16.4L104.24 17.36L99 22.64L100.36 29.92L93.76 26.56L87.24 30.1201L88.4 22.76L83 17.68L90.32 16.52L93.52 9.80005Z" fill="#DC2020"/>
<path d="M106.96 69.0398L112.6 69.6798C113.96 67.7598 115.84 66.1598 118.2 65.1598C124.92 62.2798 132.68 65.3598 135.56 72.0798C138.44 78.7998 135.36 86.5598 128.64 89.4398C121.92 92.3198 114.16 89.2398 111.28 82.5198C110.08 79.7198 109.92 76.7198 110.64 73.9998L106.96 69.0398Z" fill="#FAFAFA"/>
<path d="M106.96 69.0399C107.2 69.3199 108.32 70.8399 110.68 73.9599H110.6C110.6 73.9199 110.64 73.9199 110.68 73.9199C110.72 73.9199 110.72 73.9599 110.72 73.9599C110.24 75.7999 110.08 78.1999 110.8 80.7999C111 81.4399 111.2 82.1199 111.52 82.7599C111.68 83.0799 111.84 83.3999 112 83.7199C112.2 84.0399 112.4 84.3599 112.6 84.6799C113.44 85.9199 114.56 87.0799 115.96 88.0399C117.32 88.9999 118.92 89.7199 120.68 90.0799C122.44 90.4799 124.32 90.5199 126.2 90.1199C128.04 89.7199 129.88 88.8799 131.48 87.6799C133.04 86.4799 134.44 84.8799 135.32 82.9999C136.24 81.0799 136.72 78.9999 136.64 76.9599C136.6 74.9199 136.04 72.9599 135.16 71.2399C134.28 69.5199 133.04 68.0399 131.6 66.9199C130.16 65.7999 128.56 65.0399 126.92 64.5999C125.28 64.1599 123.68 64.0799 122.16 64.1999C120.64 64.3599 119.24 64.7999 118 65.3599C115.52 66.4799 113.84 68.1999 112.76 69.7199L112.72 69.7599C109.04 69.2799 107.32 69.0799 106.96 69.0399C107.32 69.0799 109.04 69.2399 112.6 69.5999L112.56 69.6399C113.64 68.1199 115.32 66.3599 117.8 65.2399C119.04 64.6799 120.44 64.2399 122 64.0799C123.52 63.9199 125.2 63.9999 126.84 64.4399C128.48 64.8799 130.12 65.6399 131.6 66.7599C133.08 67.8799 134.32 69.3999 135.24 71.1199C136.16 72.8799 136.68 74.8799 136.76 76.9199C136.84 78.9999 136.36 81.1199 135.44 83.0399C134.56 84.9599 133.16 86.5599 131.56 87.7999C129.96 89.0399 128.08 89.8799 126.2 90.2799C124.32 90.6799 122.4 90.6399 120.6 90.2399C118.84 89.8399 117.2 89.1199 115.84 88.1599C114.44 87.1999 113.32 85.9999 112.48 84.7599C112.28 84.4399 112.08 84.1199 111.88 83.7999C111.72 83.4799 111.56 83.1199 111.4 82.7999C111.08 82.1599 110.84 81.4799 110.68 80.8399C109.96 78.1999 110.16 75.7999 110.64 73.9599L110.72 73.9999C110.72 74.0399 110.68 74.0399 110.64 74.0399C108.32 70.8799 107.2 69.3599 106.96 69.0399Z" fill="#263238"/>
<path d="M118.56 72.56C118.56 72.56 118.56 72.64 118.56 72.76C118.56 72.88 118.56 73.08 118.56 73.28C118.56 73.76 118.56 74.4 118.6 75.2C118.6 76.84 118.64 79.2 118.64 82L118.56 81.92C121.28 81.92 124.52 81.92 127.96 81.92C128 81.88 127.76 82.12 127.84 82.04V82V81.96V81.88V81.72V81.4C127.84 81.2 127.84 80.96 127.84 80.76C127.84 80.32 127.84 79.92 127.84 79.52C127.84 78.68 127.84 77.88 127.84 77.08C127.84 75.52 127.84 74 127.84 72.64L127.92 72.72C125.12 72.72 122.8 72.68 121.12 72.68C120.32 72.68 119.64 72.68 119.2 72.64C119 72.64 118.8 72.64 118.68 72.64C118.64 72.6 118.56 72.6 118.56 72.56C118.56 72.56 118.6 72.56 118.72 72.56C118.84 72.56 119 72.56 119.2 72.56C119.64 72.56 120.28 72.56 121.12 72.52C122.8 72.52 125.16 72.48 127.96 72.48H128.04V72.56C128.04 73.92 128.04 75.44 128.04 77C128.04 77.8 128.04 78.6 128.04 79.44C128.04 79.84 128.04 80.28 128.04 80.68C128.04 80.88 128.04 81.12 128.04 81.32V81.64V81.8V81.88V81.92V81.96C128.12 81.88 127.92 82.08 127.92 82.08C124.48 82.08 121.24 82.08 118.52 82.08H118.44V82C118.44 79.16 118.48 76.8 118.48 75.16C118.48 74.36 118.48 73.72 118.52 73.24C118.52 73.04 118.52 72.88 118.52 72.76C118.56 72.64 118.56 72.56 118.56 72.56Z" fill="#263238"/>
<path d="M126.96 74.12C127.08 74.24 125.84 76.04 124.12 78.2C123.8 78.64 123.44 79.04 123.16 79.4L122.96 79.64L122.72 79.44C121.24 78.12 120.24 77.08 120.36 77C120.44 76.88 121.6 77.72 123.12 79L122.68 79.04C122.96 78.64 123.28 78.24 123.64 77.8C125.32 75.68 126.84 74.04 126.96 74.12Z" fill="#289A3F"/>
</svg>
