<svg width="414" height="174" viewBox="0 0 414 174" fill="none" xmlns="http://www.w3.org/2000/svg">
<g opacity="0.34">
<path d="M124.086 96.3478C178.832 95.167 232.921 108.126 287.659 111.152C333.262 113.665 381.999 107.967 420.191 84.3464L405.301 2.36764L-10.4293 77.8778L0.590283 138.548C32.9343 109.749 79.7483 97.3207 124.086 96.3478Z" fill="#67C4E5"/>
<path d="M348.588 103.1C347.23 103.347 345.861 103.525 344.504 103.772C344.3 103.809 344.14 103.698 344.103 103.494C344.066 103.291 344.245 103.118 344.38 103.093C345.75 102.915 347.107 102.668 348.464 102.422C348.668 102.385 348.828 102.496 348.865 102.699C348.89 102.835 348.791 103.063 348.588 103.1ZM352.659 102.361C352.456 102.398 352.296 102.287 352.259 102.083C352.222 101.879 352.333 101.719 352.536 101.682C353.894 101.435 355.238 101.121 356.596 100.875C356.799 100.838 356.96 100.949 356.997 101.152C357.034 101.356 356.923 101.516 356.719 101.553C355.362 101.8 354.004 102.046 352.659 102.361ZM340.395 104.308C339.025 104.487 337.656 104.665 336.274 104.776C336.07 104.813 335.897 104.634 335.873 104.498C335.836 104.295 335.947 104.134 336.15 104.097C337.52 103.919 338.902 103.808 340.259 103.561C340.463 103.524 340.623 103.635 340.66 103.839C340.709 104.111 340.531 104.283 340.395 104.308ZM360.754 100.61C360.55 100.647 360.39 100.536 360.353 100.332C360.316 100.129 360.427 99.9684 360.63 99.9314C361.975 99.617 363.32 99.3026 364.653 98.9204C364.857 98.8834 365.017 98.9945 365.054 99.198C365.091 99.4016 364.98 99.562 364.776 99.599C363.444 99.9812 362.099 100.296 360.754 100.61ZM332.153 105.244C330.771 105.355 329.389 105.466 328.007 105.576C327.803 105.613 327.631 105.435 327.674 105.286C327.637 105.083 327.816 104.91 327.964 104.953C329.346 104.843 330.728 104.732 332.11 104.621C332.313 104.584 332.486 104.763 332.51 104.899C332.467 105.047 332.356 105.207 332.153 105.244ZM368.719 98.5324C368.515 98.5694 368.355 98.4583 368.318 98.2547C368.281 98.0511 368.392 97.8908 368.527 97.8661C369.86 97.4839 371.193 97.1016 372.525 96.7194C372.729 96.6824 372.889 96.7935 372.982 96.9169C373.019 97.1205 372.908 97.2808 372.784 97.3734C371.452 97.7556 370.119 98.1378 368.719 98.5324C368.786 98.5201 368.719 98.5324 368.719 98.5324ZM323.917 105.829C323.917 105.829 323.849 105.841 323.917 105.829C323.361 105.859 322.806 105.89 322.251 105.921C321.412 105.933 320.585 106.013 319.746 106.025C319.543 106.062 319.37 105.883 319.401 105.667C319.364 105.464 319.543 105.291 319.759 105.322C320.598 105.31 321.424 105.23 322.263 105.218C322.819 105.187 323.374 105.156 323.861 105.138C324.065 105.101 324.238 105.28 324.207 105.496C324.176 105.712 324.052 105.804 323.917 105.829ZM376.622 96.1155C376.486 96.1402 376.258 96.0414 376.233 95.9057C376.196 95.7021 376.307 95.5417 376.431 95.4492C377.751 94.9991 379.071 94.549 380.324 94.1112C380.527 94.0742 380.675 94.1174 380.78 94.3087C380.817 94.5123 380.774 94.6603 380.583 94.7652C379.33 95.203 378.01 95.6531 376.622 96.1155C376.69 96.1032 376.69 96.1032 376.622 96.1155ZM315.644 106.21C315.644 106.21 315.576 106.222 315.644 106.21C314.182 106.265 312.855 106.296 311.449 106.271C311.245 106.308 311.072 106.129 311.103 105.913C311.066 105.709 311.245 105.536 311.461 105.567C312.855 105.524 314.194 105.562 315.588 105.519C315.792 105.482 315.965 105.661 315.934 105.877C315.891 106.025 315.779 106.185 315.644 106.21ZM384.451 93.2915C384.315 93.3161 384.155 93.205 384.062 93.0816C383.957 92.8904 384.069 92.73 384.26 92.6251C385.568 92.1072 386.808 91.6015 388.116 91.0835C388.307 90.9787 388.467 91.0898 388.572 91.281C388.677 91.4723 388.566 91.6327 388.375 91.7375C387.054 92.1876 385.759 92.7735 384.451 93.2915ZM307.377 106.239C307.309 106.251 307.309 106.251 307.377 106.239C305.903 106.226 304.564 106.189 303.157 106.164C302.941 106.133 302.849 106.01 302.812 105.806C302.843 105.59 302.966 105.498 303.17 105.461C304.576 105.486 305.915 105.523 307.309 105.48C307.525 105.511 307.686 105.622 307.655 105.838C307.636 106.122 307.513 106.214 307.377 106.239ZM392.07 90.0848C391.935 90.1095 391.774 89.9984 391.682 89.875C391.577 89.6838 391.688 89.5234 391.879 89.4185C393.107 88.845 394.403 88.2592 395.63 87.6857C395.822 87.5808 395.982 87.6919 396.075 87.8153C396.179 88.0066 396.068 88.1669 395.945 88.2595C394.717 88.833 393.434 89.4867 392.194 89.9923C392.126 90.0047 392.07 90.0848 392.07 90.0848ZM299.086 106.133L299.018 106.145C297.611 106.12 296.26 106.015 294.854 105.99C294.638 105.959 294.545 105.836 294.508 105.632C294.539 105.416 294.662 105.324 294.866 105.287C296.205 105.324 297.624 105.417 299.03 105.442C299.246 105.473 299.339 105.596 299.376 105.8C299.332 105.948 299.221 106.108 299.086 106.133ZM399.468 86.4278C399.332 86.4525 399.184 86.4093 399.079 86.218C398.974 86.0268 399.086 85.8664 399.209 85.7739C400.424 85.1325 401.64 84.4911 402.843 83.7819C403.034 83.677 403.195 83.7881 403.287 83.9115C403.392 84.1028 403.281 84.2632 403.157 84.3557C401.942 84.997 400.739 85.7063 399.523 86.3477C399.536 86.4155 399.536 86.4155 399.468 86.4278ZM290.813 105.743L290.745 105.755C289.394 105.65 287.987 105.625 286.636 105.52C286.42 105.489 286.328 105.365 286.291 105.162C286.322 104.946 286.445 104.853 286.649 104.816C288 104.922 289.419 105.014 290.757 105.052C290.973 105.082 291.066 105.206 291.103 105.409C291.072 105.625 290.949 105.718 290.813 105.743ZM282.583 105.204L282.515 105.217C281.164 105.112 279.745 105.019 278.382 104.846C278.166 104.815 278.074 104.692 278.037 104.488C278.068 104.272 278.191 104.179 278.395 104.143C279.746 104.248 281.165 104.34 282.528 104.513C282.744 104.544 282.836 104.668 282.873 104.871C282.83 105.019 282.719 105.18 282.583 105.204ZM406.736 82.4439C406.6 82.4685 406.452 82.4253 406.36 82.3019C406.255 82.1106 406.298 81.9626 406.489 81.8577C407.692 81.1485 408.828 80.4516 410.018 79.6745C410.21 79.5696 410.358 79.6129 410.53 79.7918C410.703 79.9707 410.592 80.1311 410.413 80.3038C409.29 81.0686 408.087 81.7778 406.884 82.4871C406.791 82.3637 406.736 82.4439 406.736 82.4439ZM274.317 104.463L274.249 104.475C272.898 104.37 271.534 104.197 270.103 104.036C269.887 104.005 269.782 103.814 269.826 103.666C269.857 103.45 270.048 103.345 270.196 103.388C271.559 103.561 272.91 103.667 274.341 103.827C274.557 103.858 274.662 104.049 274.619 104.197C274.576 104.345 274.452 104.438 274.317 104.463ZM413.702 77.9539C413.566 77.9786 413.418 77.9354 413.325 77.812C413.221 77.6207 413.264 77.4727 413.443 77.3C414.566 76.5352 415.676 75.7026 416.799 74.9378C416.923 74.8453 417.139 74.8761 417.299 74.9872C417.391 75.1106 417.361 75.3265 417.249 75.4869C416.139 76.3196 415.016 77.0843 413.825 77.8614C413.77 77.9416 413.77 77.9416 413.702 77.9539ZM266.093 103.573L266.025 103.585C264.662 103.412 263.299 103.239 261.935 103.066C261.719 103.035 261.615 102.844 261.658 102.696C261.689 102.48 261.88 102.375 262.028 102.418C263.391 102.591 264.755 102.764 266.118 102.937C266.334 102.968 266.439 103.159 266.396 103.308C266.352 103.456 266.229 103.548 266.093 103.573ZM257.858 102.615C257.858 102.615 257.79 102.627 257.722 102.64C256.359 102.467 254.995 102.294 253.632 102.121C253.416 102.09 253.311 101.899 253.354 101.751C253.385 101.535 253.576 101.43 253.724 101.473C255.088 101.646 256.451 101.819 257.815 101.992C258.03 102.023 258.135 102.214 258.092 102.362C258.104 102.43 257.993 102.59 257.858 102.615ZM420.39 73.0938C420.254 73.1185 420.106 73.0753 420.082 72.9396C419.989 72.8161 420.02 72.6002 420.131 72.4399C421.242 71.6072 422.272 70.719 423.37 69.8185C423.494 69.726 423.697 69.689 423.87 69.868C423.962 69.9914 423.999 70.195 423.821 70.3677C422.79 71.2558 421.692 72.1564 420.581 72.989C420.446 73.0136 420.458 73.0815 420.39 73.0938ZM249.665 101.509C249.597 101.522 249.597 101.522 249.529 101.534C248.166 101.361 246.79 101.12 245.427 100.947C245.211 100.916 245.106 100.725 245.149 100.577C245.18 100.361 245.372 100.256 245.52 100.299C246.883 100.472 248.259 100.713 249.622 100.886C249.838 100.917 249.943 101.108 249.9 101.256C249.924 101.392 249.801 101.485 249.665 101.509ZM426.708 67.7401C426.572 67.7648 426.492 67.7092 426.412 67.6537C426.32 67.5303 426.283 67.3267 426.462 67.154C427.492 66.2658 428.51 65.3098 429.46 64.3661C429.571 64.2057 429.787 64.2366 429.948 64.3477C430.108 64.4587 430.077 64.6746 429.966 64.835C428.948 65.7911 427.93 66.7471 426.899 67.6353C426.844 67.7155 426.776 67.7278 426.708 67.7401ZM241.46 100.336C241.393 100.348 241.392 100.348 241.325 100.36C239.961 100.187 238.586 99.9465 237.222 99.7735C237.006 99.7426 236.901 99.5514 236.945 99.4033C236.976 99.1874 237.167 99.0826 237.315 99.1258C238.691 99.3666 240.054 99.5396 241.417 99.7126C241.633 99.7435 241.738 99.9347 241.695 100.083C241.707 100.151 241.596 100.311 241.46 100.336ZM233.311 99.0819C233.243 99.0942 233.243 99.0942 233.175 99.1065C231.8 98.8657 230.436 98.6927 229.061 98.4518C228.845 98.421 228.74 98.2297 228.783 98.0816C228.814 97.8657 229.005 97.7609 229.153 97.8041C230.529 98.0449 231.892 98.2179 233.268 98.4588C233.484 98.4896 233.589 98.6809 233.546 98.829C233.558 98.8968 233.447 99.0572 233.311 99.0819ZM-10.5333 140.989C-10.6011 141.001 -10.7492 140.958 -10.8294 140.902C-10.9897 140.791 -11.0267 140.587 -10.9156 140.427C-10.0579 139.36 -9.21256 138.225 -8.35485 137.158C-8.24378 136.997 -8.04019 136.96 -7.86749 137.139C-7.70711 137.25 -7.67013 137.454 -7.84906 137.627C-8.70677 138.694 -9.56448 139.761 -10.4222 140.828C-10.3297 140.952 -10.4654 140.976 -10.5333 140.989ZM225.15 97.7602C225.082 97.7725 225.082 97.7725 225.014 97.7848L220.899 97.1302C220.683 97.0993 220.578 96.908 220.622 96.76C220.652 96.5441 220.844 96.4392 220.992 96.4824L225.106 97.1371C225.322 97.168 225.427 97.3592 225.384 97.5073C225.409 97.643 225.285 97.7355 225.15 97.7602ZM216.92 96.4508C216.852 96.4632 216.852 96.4632 216.784 96.4755L212.67 95.8208C212.454 95.7899 212.349 95.5987 212.392 95.4506C212.423 95.2347 212.614 95.1299 212.762 95.1731L216.877 95.8277C217.093 95.8586 217.198 96.0499 217.155 96.1979C217.179 96.3337 217.124 96.4139 216.92 96.4508ZM-5.23896 134.629C-5.30683 134.641 -5.45488 134.598 -5.53507 134.543C-5.69545 134.432 -5.66456 134.216 -5.55349 134.055C-4.61559 133.044 -3.67769 132.032 -2.7398 131.021C-2.62872 130.86 -2.41281 130.891 -2.25243 131.002C-2.09205 131.113 -2.12293 131.329 -2.23401 131.489C-3.17191 132.501 -4.1098 133.513 -5.0477 134.524C-5.11556 134.537 -5.1711 134.617 -5.23896 134.629ZM208.758 95.1292C208.691 95.1415 208.691 95.1415 208.623 95.1538L204.508 94.4992C204.292 94.4683 204.187 94.277 204.23 94.129C204.261 93.913 204.453 93.8082 204.601 93.8514L208.715 94.5061C208.931 94.537 209.036 94.7282 208.993 94.8763C209.018 95.012 208.894 95.1045 208.758 95.1292ZM200.597 93.8075C200.529 93.8198 200.529 93.8198 200.461 93.8322C199.085 93.5913 197.722 93.4183 196.346 93.1775C196.131 93.1466 196.026 92.9553 196.069 92.8073C196.1 92.5914 196.291 92.4865 196.439 92.5297C197.815 92.7706 199.178 92.9436 200.554 93.1844C200.77 93.2153 200.875 93.4066 200.831 93.5546C200.856 93.6903 200.733 93.7829 200.597 93.8075ZM0.468608 128.615C0.332882 128.64 0.252692 128.584 0.172503 128.529C0.0121243 128.418 0.0430093 128.202 0.154083 128.041C1.10431 127.098 2.12239 126.142 3.14048 125.186C3.26388 125.093 3.46747 125.056 3.64018 125.235C3.73269 125.358 3.76967 125.562 3.59073 125.735C2.57264 126.691 1.55456 127.647 0.604334 128.59C0.604334 128.59 0.536471 128.603 0.468608 128.615ZM192.448 92.5537C192.38 92.566 192.38 92.566 192.312 92.5784C190.949 92.4054 189.573 92.1645 188.21 91.9915C187.994 91.9607 187.889 91.7694 187.932 91.6213C187.963 91.4054 188.154 91.3006 188.302 91.3438C189.666 91.5168 191.041 91.7576 192.405 91.9306C192.62 91.9615 192.725 92.1527 192.682 92.3008C192.694 92.3687 192.583 92.529 192.448 92.5537ZM184.231 91.3122C184.163 91.3245 184.163 91.3245 184.095 91.3369C182.731 91.1639 181.356 90.923 179.992 90.7501C179.776 90.7192 179.672 90.5279 179.715 90.3799C179.746 90.1639 179.937 90.0591 180.085 90.1023C181.448 90.2753 182.824 90.5161 184.187 90.6891C184.403 90.72 184.508 90.9113 184.465 91.0593C184.49 91.195 184.366 91.2876 184.231 91.3122ZM6.53392 123.027C6.39819 123.052 6.318 122.996 6.23781 122.941C6.1453 122.817 6.10832 122.614 6.28725 122.441C7.31767 121.553 8.41594 120.652 9.52655 119.819C9.64995 119.727 9.86586 119.758 10.0262 119.869C10.1188 119.992 10.0879 120.208 9.9768 120.369C8.86619 121.201 7.83578 122.089 6.80537 122.978C6.66964 123.002 6.60178 123.015 6.53392 123.027ZM176.038 90.2065C175.97 90.2188 175.97 90.2188 175.902 90.2311C174.539 90.0581 173.176 89.8852 171.812 89.7122C171.596 89.6813 171.491 89.49 171.535 89.342C171.566 89.1261 171.757 89.0212 171.905 89.0644C173.268 89.2374 174.632 89.4104 175.995 89.5834C176.211 89.6143 176.316 89.8055 176.273 89.9536C176.297 90.0893 176.174 90.1818 176.038 90.2065ZM13.0248 117.852C12.8891 117.877 12.741 117.834 12.7164 117.698C12.6239 117.574 12.6548 117.359 12.7658 117.198C13.8764 116.366 14.987 115.533 16.11 114.768C16.3012 114.663 16.4493 114.706 16.6097 114.818C16.7145 115.009 16.6713 115.157 16.5602 115.317C15.4373 116.082 14.3267 116.915 13.2161 117.747C13.0927 117.84 13.0927 117.84 13.0248 117.852ZM167.858 89.1686L167.79 89.1809C166.427 89.0079 165.063 88.8349 163.712 88.7298C163.496 88.6989 163.392 88.5077 163.435 88.3596C163.466 88.1437 163.657 88.0389 163.805 88.0821C165.168 88.2551 166.532 88.428 167.883 88.5332C168.099 88.564 168.203 88.7553 168.16 88.9034C168.105 88.9835 167.994 89.1439 167.858 89.1686ZM159.635 88.2787L159.567 88.2911C158.203 88.1181 156.852 88.013 155.433 87.9202C155.217 87.8893 155.113 87.698 155.156 87.55C155.187 87.3341 155.378 87.2292 155.526 87.2724C156.877 87.3775 158.308 87.5382 159.659 87.6433C159.875 87.6742 159.98 87.8655 159.937 88.0135C159.881 88.0937 159.77 88.2541 159.635 88.2787ZM19.8056 113.115C19.6699 113.14 19.5218 113.097 19.4293 112.973C19.3245 112.782 19.3677 112.634 19.5466 112.461C20.6695 111.697 21.8727 110.987 23.0635 110.21C23.2547 110.105 23.4028 110.149 23.5076 110.34C23.6125 110.531 23.5692 110.679 23.378 110.784C22.1749 111.493 21.0519 112.258 19.8488 112.967C19.8735 113.103 19.8735 113.103 19.8056 113.115ZM151.356 87.4691L151.288 87.4814C149.937 87.3763 148.518 87.2835 147.167 87.1784C146.951 87.1475 146.858 87.0241 146.821 86.8205C146.852 86.6046 146.976 86.5121 147.179 86.4751C148.53 86.5802 149.949 86.673 151.3 86.7781C151.516 86.809 151.609 86.9324 151.646 87.136C151.615 87.3519 151.491 87.4444 151.356 87.4691ZM26.8763 108.817C26.7405 108.841 26.5925 108.798 26.5 108.675C26.3951 108.484 26.4383 108.336 26.6296 108.231C27.8327 107.521 29.0482 106.88 30.2636 106.239C30.4549 106.134 30.6152 106.245 30.7078 106.368C30.8126 106.56 30.7015 106.72 30.5781 106.812C29.3627 107.454 28.1596 108.163 26.9441 108.804C26.9441 108.804 26.9441 108.804 26.8763 108.817ZM143.114 86.863L143.046 86.8754C141.695 86.7702 140.276 86.6774 138.937 86.6402C138.721 86.6093 138.629 86.4859 138.592 86.2823C138.623 86.0664 138.746 85.9739 138.95 85.9369C140.301 86.042 141.707 86.067 143.058 86.1721C143.274 86.203 143.367 86.3264 143.404 86.5299C143.373 86.7459 143.249 86.8384 143.114 86.863ZM34.1566 104.901C34.0209 104.925 33.8728 104.882 33.768 104.691C33.6631 104.5 33.7742 104.339 33.8976 104.247C35.113 103.605 36.4087 103.019 37.6364 102.446C37.8277 102.341 37.9881 102.452 38.0929 102.643C38.1978 102.835 38.0867 102.995 37.8954 103.1C36.6677 103.673 35.3844 104.327 34.1566 104.901C34.2245 104.888 34.2245 104.888 34.1566 104.901ZM134.829 86.405L134.761 86.4173C133.354 86.3924 132.003 86.2873 130.597 86.2624C130.381 86.2315 130.288 86.1081 130.251 85.9045C130.282 85.6886 130.405 85.5961 130.609 85.5591C132.016 85.584 133.354 85.6213 134.773 85.7141C134.989 85.7449 135.082 85.8683 135.119 86.0719C135.088 86.2879 134.964 86.3804 134.829 86.405ZM126.593 86.2185C126.525 86.2308 126.525 86.2308 126.593 86.2185C125.118 86.2059 123.78 86.1686 122.385 86.2115C122.182 86.2485 122.009 86.0696 122.04 85.8537C122.071 85.6378 122.182 85.4774 122.398 85.5083C123.804 85.5332 125.131 85.5026 126.537 85.5275C126.753 85.5584 126.846 85.6818 126.883 85.8854C126.84 86.0334 126.729 86.1938 126.593 86.2185ZM41.6589 101.435C41.5232 101.46 41.3628 101.349 41.2703 101.225C41.1655 101.034 41.2765 100.873 41.4678 100.769C42.6956 100.195 44.0035 99.6771 45.3115 99.1592C45.5028 99.0543 45.6631 99.1654 45.768 99.3567C45.8728 99.5479 45.7618 99.7083 45.5705 99.8131C44.2625 100.331 43.0224 100.837 41.7947 101.41C41.7268 101.423 41.7268 101.423 41.6589 101.435ZM118.246 86.1923C116.784 86.2476 115.457 86.2782 114.063 86.3211C113.86 86.3581 113.687 86.1791 113.718 85.9632C113.681 85.7596 113.86 85.5869 114.076 85.6178C115.47 85.5749 116.864 85.5319 118.19 85.5013C118.394 85.4644 118.567 85.6433 118.536 85.8592C118.573 86.0628 118.449 86.1553 118.246 86.1923ZM49.3586 98.2839C49.2229 98.3085 49.0625 98.1974 48.97 98.074C48.933 97.8704 48.9763 97.7224 49.1675 97.6176C50.4755 97.0996 51.7958 96.6495 53.0482 96.2117C53.2518 96.1747 53.3998 96.2179 53.5047 96.4092C53.5416 96.6128 53.4984 96.7608 53.3072 96.8657C51.9869 97.3158 50.6666 97.7659 49.3586 98.2839ZM110.016 86.4252C110.016 86.4252 109.948 86.4376 110.016 86.4252C108.622 86.4682 107.24 86.579 105.846 86.6219C105.642 86.6589 105.469 86.48 105.5 86.264C105.463 86.0604 105.642 85.8877 105.858 85.9186C107.24 85.8078 108.634 85.7649 110.029 85.722C110.232 85.685 110.405 85.8639 110.374 86.0798C110.275 86.3081 110.152 86.4006 110.016 86.4252ZM57.1323 95.54C56.9966 95.5646 56.7683 95.4659 56.7437 95.3301C56.7067 95.1266 56.8178 94.9662 56.9412 94.8737C58.2615 94.4236 59.5941 94.0413 60.9267 93.6591C61.1303 93.6221 61.2907 93.7331 61.3832 93.8565C61.4201 94.0601 61.3091 94.2205 61.1857 94.313C59.8531 94.6953 58.5328 95.1454 57.1323 95.54C57.2002 95.5276 57.2002 95.5276 57.1323 95.54ZM101.768 86.942C101.768 86.942 101.7 86.9543 101.768 86.942C100.386 87.0528 99.004 87.1636 97.6221 87.2744C97.4185 87.3113 97.2458 87.1324 97.2212 86.9967C97.1842 86.7931 97.3631 86.6204 97.4988 86.5957C98.8808 86.4849 100.25 86.3063 101.632 86.1955C101.836 86.1585 102.009 86.3374 101.965 86.4855C102.015 86.7569 101.904 86.9173 101.768 86.942ZM65.1156 93.1786C64.9121 93.2156 64.7517 93.1045 64.7147 92.9009C64.6777 92.6973 64.7888 92.537 64.9924 92.5C66.325 92.1177 67.6699 91.8033 69.0025 91.4211C69.2061 91.3841 69.3665 91.4952 69.4035 91.6988C69.4405 91.9024 69.3294 92.0627 69.1258 92.0997C67.7932 92.482 66.4483 92.7964 65.1156 93.1786ZM93.501 87.7425C92.1314 87.9211 90.7618 88.0998 89.3922 88.2785C89.1887 88.3154 89.0283 88.2044 88.9913 88.0008C88.9543 87.7972 89.1333 87.6245 89.269 87.5998C90.6386 87.4212 92.0082 87.2425 93.3778 87.0639C93.5813 87.0269 93.7541 87.2058 93.7787 87.3415C93.8157 87.5451 93.7046 87.7055 93.501 87.7425ZM73.1051 91.2367C72.9015 91.2737 72.7411 91.1627 72.7041 90.9591C72.6672 90.7555 72.7782 90.5951 72.9818 90.5581C74.3268 90.2437 75.684 89.9972 77.029 89.6828C77.2325 89.6458 77.3929 89.7569 77.4299 89.9605C77.4669 90.1641 77.3558 90.3245 77.1522 90.3615C75.795 90.608 74.45 90.9224 73.1051 91.2367C73.1729 91.2244 73.1051 91.2367 73.1051 91.2367ZM85.2958 88.8823C83.9385 89.1288 82.5689 89.3075 81.2117 89.554C81.0081 89.591 80.8477 89.4799 80.8107 89.2763C80.7738 89.0727 80.8848 88.9124 81.0884 88.8754C82.4457 88.6289 83.8029 88.3823 85.1725 88.2037C85.3761 88.1667 85.5365 88.2778 85.5735 88.4814C85.6105 88.685 85.4994 88.8453 85.2958 88.8823Z" fill="#FCFCFC"/>
</g>
<path d="M382.727 102.762C386.793 104.195 391.285 103.536 394.77 101C394.944 105.298 397.209 109.248 400.849 111.552L401.236 111.784L398.351 117.728C395.544 123.497 389.213 126.692 382.901 125.472C378.042 121.271 376.628 114.32 379.416 108.551L382.301 102.607L382.727 102.762Z" fill="#91D4ED"/>
<path d="M383.502 124.252C389.097 125.162 394.653 122.277 397.151 117.166L399.532 112.268C396.493 110.119 394.402 106.866 393.705 103.226C390.413 104.93 386.58 105.298 382.998 104.252L380.617 109.151C378.139 114.262 379.32 120.419 383.502 124.252Z" fill="#3AB4DD"/>
<path d="M386.735 105.666L384.199 110.893C382.282 114.862 381.759 119.431 382.901 122.413C379.959 118.831 379.3 113.759 381.353 109.519L383.424 105.24C384.528 105.492 385.631 105.646 386.735 105.666Z" fill="#91D4ED"/>
<path d="M385.089 110.893L387.723 112.171L388.981 109.557L391.711 110.874L390.452 113.488L393.008 114.727L391.691 117.437L389.136 116.198L387.858 118.793L385.148 117.476L386.406 114.882L383.773 113.604L385.089 110.893Z" fill="#91D4ED"/>
<path d="M298.004 91.7902C299.485 86.5846 296.466 81.1637 291.26 79.6823C286.054 78.2009 280.634 81.22 279.152 86.4257C277.671 91.6313 280.69 97.0522 285.896 98.5336C291.101 100.015 296.522 96.9958 298.004 91.7902Z" fill="#91D4ED"/>
<path d="M296.196 86.8338L283.196 95.0338C282.196 95.6338 280.896 95.3338 280.196 94.3338C279.596 93.3338 279.896 92.0338 280.896 91.3338L293.796 83.1338C294.796 82.5338 296.096 82.8338 296.796 83.8338C297.496 84.8338 297.196 86.2338 296.196 86.8338Z" fill="#3AB4DD"/>
<path d="M368.151 98.6181C369.073 92.4459 364.816 86.6956 358.644 85.7745C352.471 84.8533 346.721 89.1101 345.8 95.2823C344.879 101.454 349.136 107.205 355.308 108.126C361.48 109.047 367.23 104.79 368.151 98.6181Z" fill="#91D4ED"/>
<path d="M365.196 100.934L347.796 97.7339C346.396 97.4339 345.596 96.1339 345.796 94.8339C346.096 93.4339 347.396 92.6339 348.696 92.8339L366.096 96.0339C367.496 96.3339 368.296 97.6339 368.096 98.9339C367.796 100.234 366.496 101.134 365.196 100.934Z" fill="#3AB4DD"/>
<path d="M265.396 107.434C261.696 108.734 257.696 106.734 256.396 102.934C255.096 99.2339 257.096 95.2339 260.896 93.9339C264.596 92.6339 268.596 94.6339 269.896 98.4339C271.096 102.234 269.096 106.234 265.396 107.434Z" fill="#91D4ED"/>
<path d="M263.396 106.434L259.896 95.9338C259.596 95.1338 260.096 94.2338 260.896 93.9338C261.696 93.6338 262.596 94.1338 262.896 94.9338L266.396 105.434C266.696 106.234 266.196 107.134 265.396 107.434C264.596 107.734 263.696 107.334 263.396 106.434Z" fill="#3AB4DD"/>
</svg>
