<svg width="692" height="154" viewBox="0 0 692 154" fill="none" xmlns="http://www.w3.org/2000/svg">
<g opacity="0.34">
<path d="M202.401 78.9554C294.417 79.5286 385.222 94.6411 477.194 99.5468C553.815 103.625 631.134 90.0763 695.5 66.9999L671.101 -17.9069L-23.5298 55.539L-5.47288 118.376C49.1053 89.7771 127.877 78.5082 202.401 78.9554Z" fill="#67C4E5"/>
<path d="M578.991 90.2124C576.711 90.4542 574.411 90.6281 572.131 90.8699C571.789 90.9061 571.52 90.7945 571.458 90.5908C571.397 90.3871 571.697 90.215 571.925 90.1908C574.226 90.0169 576.505 89.7751 578.785 89.5333C579.127 89.497 579.396 89.6087 579.458 89.8124C579.499 89.9482 579.333 90.1761 578.991 90.2124ZM585.83 89.4869C585.488 89.5232 585.219 89.4116 585.157 89.2079C585.096 89.0041 585.282 88.8441 585.624 88.8079C587.904 88.5661 590.163 88.2564 592.443 88.0146C592.785 87.9783 593.054 88.0899 593.116 88.2936C593.177 88.4973 592.991 88.6573 592.649 88.6936C590.369 88.9354 588.089 89.1772 585.83 89.4869ZM565.23 91.3916C562.93 91.5655 560.629 91.7394 558.309 91.8454C557.967 91.8816 557.677 91.7021 557.636 91.5663C557.574 91.3626 557.761 91.2026 558.103 91.1663C560.403 90.9924 562.724 90.8864 565.004 90.6446C565.346 90.6083 565.615 90.72 565.677 90.9237C565.759 91.1953 565.458 91.3674 565.23 91.3916ZM599.426 87.7645C599.084 87.8007 598.815 87.6891 598.753 87.4854C598.692 87.2817 598.879 87.1217 599.221 87.0854C601.48 86.7757 603.739 86.466 605.978 86.0884C606.32 86.0521 606.589 86.1637 606.65 86.3675C606.712 86.5712 606.525 86.7312 606.183 86.7674C603.945 87.1451 601.685 87.4548 599.426 87.7645ZM551.387 92.2992C549.066 92.4052 546.745 92.5111 544.424 92.6171C544.082 92.6534 543.793 92.4739 543.866 92.326C543.804 92.1223 544.105 91.9502 544.353 91.9939C546.674 91.8879 548.995 91.7819 551.316 91.6759C551.658 91.6396 551.948 91.8192 551.989 91.955C551.916 92.1029 551.729 92.2629 551.387 92.2992ZM612.806 85.7146C612.464 85.7508 612.195 85.6392 612.133 85.4355C612.071 85.2318 612.258 85.0718 612.486 85.0476C614.725 84.67 616.963 84.2924 619.202 83.9148C619.544 83.8785 619.813 83.9901 619.968 84.1138C620.03 84.3176 619.843 84.4775 619.636 84.5696C617.397 84.9473 615.158 85.3249 612.806 85.7146C612.806 85.7146 612.92 85.7025 612.806 85.7146ZM537.555 92.8551C537.555 92.8551 537.441 92.8672 537.555 92.8551C536.623 92.8839 535.69 92.9128 534.758 92.9416C533.349 92.9508 531.961 93.028 530.552 93.0373C530.21 93.0736 529.92 92.894 529.972 92.6782C529.911 92.4745 530.211 92.3024 530.574 92.3341C531.983 92.3248 533.371 92.2476 534.78 92.2383C535.713 92.2095 536.645 92.1807 537.464 92.164C537.806 92.1277 538.095 92.3072 538.043 92.523C537.991 92.7389 537.783 92.8309 537.555 92.8551ZM626.082 83.3251C625.854 83.3493 625.471 83.2498 625.43 83.114C625.369 82.9103 625.555 82.7503 625.763 82.6582C627.981 82.2127 630.199 81.7671 632.303 81.3337C632.645 81.2974 632.893 81.3412 633.069 81.5328C633.131 81.7365 633.058 81.8844 632.737 81.9886C630.632 82.422 628.414 82.8675 626.082 83.3251C626.196 83.3131 626.196 83.3131 626.082 83.3251ZM523.662 93.2074C523.662 93.2074 523.548 93.2195 523.662 93.2074C521.206 93.2576 518.979 93.2836 516.617 93.2537C516.275 93.29 515.985 93.1105 516.038 92.8947C515.976 92.6909 516.277 92.5189 516.639 92.5505C518.981 92.5124 521.229 92.5543 523.57 92.5162C523.912 92.48 524.202 92.6595 524.15 92.8753C524.077 93.0232 523.89 93.1832 523.662 93.2074ZM639.236 80.5283C639.008 80.5525 638.739 80.4408 638.583 80.3171C638.408 80.1255 638.595 79.9655 638.916 79.8613C641.114 79.3479 643.197 78.8465 645.395 78.3331C645.716 78.2289 645.985 78.3406 646.161 78.5322C646.336 78.7238 646.15 78.8838 645.828 78.988C643.61 79.4335 641.433 80.0149 639.236 80.5283ZM509.78 93.208C509.666 93.2201 509.666 93.2201 509.78 93.208C507.304 93.1903 505.056 93.1484 502.694 93.1186C502.331 93.0869 502.176 92.9632 502.114 92.7595C502.167 92.5437 502.374 92.4516 502.716 92.4153C505.078 92.4451 507.326 92.487 509.667 92.449C510.03 92.4806 510.299 92.5922 510.247 92.808C510.215 93.0917 510.008 93.1838 509.78 93.208ZM652.038 77.3482C651.81 77.3723 651.541 77.2607 651.385 77.137C651.21 76.9454 651.397 76.7854 651.718 76.6812C653.781 76.1119 655.958 75.5306 658.021 74.9614C658.342 74.8572 658.611 74.9688 658.767 75.0925C658.942 75.2842 658.755 75.4442 658.548 75.5363C656.485 76.1055 654.329 76.7547 652.245 77.2561C652.131 77.2682 652.038 77.3482 652.038 77.3482ZM495.856 93.0728L495.742 93.0849C493.38 93.0551 491.112 92.9453 488.75 92.9155C488.387 92.8838 488.232 92.7601 488.17 92.5564C488.223 92.3406 488.43 92.2485 488.772 92.2122C491.02 92.2541 493.403 92.3519 495.765 92.3817C496.127 92.4133 496.282 92.537 496.344 92.7408C496.271 92.8887 496.084 93.0486 495.856 93.0728ZM664.468 73.7169C664.24 73.7411 663.991 73.6973 663.816 73.5057C663.64 73.3141 663.827 73.1541 664.034 73.062C666.077 72.4249 668.119 71.7877 670.141 71.0826C670.462 70.9785 670.731 71.0901 670.886 71.2138C671.062 71.4055 670.875 71.5654 670.668 71.6575C668.625 72.2947 666.604 72.9997 664.561 73.6369C664.582 73.7048 664.582 73.7048 664.468 73.7169ZM481.965 92.6539L481.851 92.666C479.582 92.5562 477.22 92.5264 474.952 92.4166C474.589 92.3849 474.434 92.2612 474.372 92.0575C474.425 91.8417 474.632 91.7496 474.974 91.7133C477.242 91.8232 479.625 91.9209 481.873 91.9628C482.236 91.9944 482.391 92.1181 482.452 92.3219C482.4 92.5377 482.193 92.6298 481.965 92.6539ZM468.146 92.0871L468.032 92.0992C465.763 91.9894 463.381 91.8917 461.092 91.714C460.729 91.6823 460.574 91.5586 460.512 91.3549C460.565 91.1391 460.772 91.047 461.114 91.0107C463.383 91.1206 465.765 91.2183 468.054 91.396C468.417 91.4276 468.572 91.5514 468.634 91.7551C468.561 91.903 468.374 92.063 468.146 92.0871ZM676.681 69.7582C676.453 69.7823 676.205 69.7386 676.05 69.6149C675.874 69.4233 675.947 69.2754 676.268 69.1712C678.29 68.4661 680.198 67.7732 682.199 67.0002C682.52 66.896 682.769 66.9398 683.059 67.1193C683.348 67.2988 683.161 67.4588 682.861 67.6309C680.973 68.3918 678.951 69.0968 676.93 69.8019C676.774 69.6782 676.681 69.7582 676.681 69.7582ZM454.265 91.3166L454.151 91.3287C451.883 91.2189 449.594 91.0412 447.191 90.8756C446.828 90.8439 446.653 90.6523 446.725 90.5044C446.778 90.2886 447.099 90.1844 447.348 90.2281C449.637 90.4059 451.905 90.5157 454.308 90.6813C454.671 90.7129 454.847 90.9046 454.774 91.0525C454.701 91.2004 454.493 91.2924 454.265 91.3166ZM688.388 65.2925C688.16 65.3167 687.911 65.2729 687.756 65.1492C687.581 64.9576 687.654 64.8097 687.954 64.6376C689.842 63.8767 691.708 63.0479 693.596 62.2871C693.803 62.195 694.166 62.2266 694.435 62.3382C694.59 62.462 694.538 62.6778 694.351 62.8378C692.484 63.6666 690.597 64.4274 688.595 65.2004C688.502 65.2804 688.502 65.2804 688.388 65.2925ZM440.458 90.3982L440.344 90.4103C438.055 90.2326 435.766 90.0549 433.477 89.8771C433.114 89.8455 432.938 89.6539 433.011 89.506C433.064 89.2902 433.385 89.186 433.633 89.2297C435.923 89.4074 438.212 89.5852 440.501 89.7629C440.863 89.7945 441.039 89.9861 440.966 90.134C440.893 90.2819 440.686 90.374 440.458 90.3982ZM426.63 89.4119C426.63 89.4119 426.516 89.424 426.402 89.4361C424.113 89.2584 421.824 89.0806 419.534 88.9029C419.172 88.8713 418.996 88.6797 419.069 88.5318C419.121 88.3159 419.443 88.2118 419.691 88.2555C421.981 88.4332 424.27 88.6109 426.559 88.7887C426.921 88.8203 427.097 89.0119 427.024 89.1598C427.045 89.2277 426.858 89.3877 426.63 89.4119ZM699.63 60.4556C699.402 60.4798 699.153 60.4361 699.112 60.3003C698.957 60.1765 699.009 59.9607 699.196 59.8007C701.063 58.972 702.795 58.0874 704.641 57.1907C704.849 57.0986 705.19 57.0623 705.48 57.2419C705.635 57.3656 705.697 57.5693 705.396 57.7414C703.664 58.626 701.818 59.5227 699.951 60.3514C699.723 60.3756 699.744 60.4435 699.63 60.4556ZM412.875 88.2777C412.761 88.2898 412.761 88.2898 412.647 88.3018C410.357 88.1241 408.048 87.8785 405.759 87.7008C405.396 87.6691 405.221 87.4775 405.293 87.3296C405.346 87.1138 405.667 87.0096 405.916 87.0534C408.205 87.2311 410.514 87.4767 412.804 87.6544C413.166 87.6861 413.342 87.8777 413.269 88.0256C413.31 88.1614 413.103 88.2535 412.875 88.2777ZM710.251 55.1239C710.023 55.1481 709.888 55.0922 709.754 55.0364C709.599 54.9127 709.537 54.709 709.838 54.5369C711.57 53.6523 713.282 52.6998 714.879 51.7594C715.066 51.5994 715.429 51.631 715.698 51.7427C715.967 51.8543 715.914 52.0701 715.728 52.2301C714.016 53.1826 712.304 54.1351 710.572 55.0197C710.479 55.0997 710.365 55.1118 710.251 55.1239ZM399.099 87.0755C398.985 87.0876 398.985 87.0876 398.871 87.0997C396.582 86.922 394.272 86.6764 391.983 86.4987C391.62 86.467 391.445 86.2754 391.518 86.1275C391.57 85.9117 391.891 85.8075 392.14 85.8512C394.449 86.0969 396.739 86.2746 399.028 86.4523C399.39 86.4839 399.566 86.6756 399.493 86.8235C399.514 86.8914 399.327 87.0514 399.099 87.0755ZM385.416 85.7934C385.302 85.8055 385.302 85.8055 385.188 85.8176C382.879 85.572 380.59 85.3943 378.28 85.1486C377.917 85.117 377.742 84.9254 377.815 84.7775C377.867 84.5617 378.188 84.4575 378.437 84.5012C380.747 84.7468 383.036 84.9245 385.345 85.1702C385.708 85.2018 385.884 85.3934 385.811 85.5413C385.831 85.6092 385.644 85.7692 385.416 85.7934ZM-24.1553 126.853C-24.2693 126.865 -24.5179 126.821 -24.6524 126.765C-24.9215 126.653 -24.9832 126.45 -24.7963 126.29C-23.3538 125.226 -21.9318 124.094 -20.4892 123.029C-20.3024 122.869 -19.9604 122.833 -19.6708 123.013C-19.4017 123.124 -19.34 123.328 -19.6408 123.5C-21.0834 124.564 -22.5259 125.628 -23.9685 126.693C-23.8134 126.816 -24.0413 126.84 -24.1553 126.853ZM371.713 84.4434C371.599 84.4555 371.599 84.4555 371.486 84.4676L364.577 83.7986C364.215 83.767 364.039 83.5753 364.112 83.4274C364.164 83.2116 364.485 83.1074 364.734 83.1512L371.642 83.8201C372.005 83.8518 372.181 84.0434 372.108 84.1913C372.149 84.3271 371.941 84.4192 371.713 84.4434ZM357.897 83.1054C357.783 83.1175 357.783 83.1175 357.669 83.1296L350.76 82.4607C350.398 82.429 350.222 82.2374 350.295 82.0895C350.347 81.8737 350.669 81.7695 350.917 81.8132L357.826 82.4822C358.188 82.5138 358.364 82.7055 358.291 82.8534C358.332 82.9892 358.239 83.0692 357.897 83.1054ZM-15.2515 120.511C-15.3655 120.524 -15.614 120.48 -15.7486 120.424C-16.0177 120.312 -15.9654 120.097 -15.7785 119.937C-14.2014 118.928 -12.6243 117.92 -11.0472 116.912C-10.8604 116.752 -10.4979 116.783 -10.2288 116.895C-9.95967 117.007 -10.012 117.222 -10.1988 117.382C-11.7759 118.391 -13.353 119.399 -14.9301 120.407C-15.0441 120.419 -15.1375 120.499 -15.2515 120.511ZM344.194 81.7554C344.08 81.7675 344.08 81.7675 343.966 81.7796L337.057 81.1106C336.695 81.079 336.519 80.8874 336.592 80.7395C336.644 80.5237 336.966 80.4195 337.214 80.4632L344.123 81.1322C344.485 81.1638 344.661 81.3554 344.588 81.5033C344.629 81.6391 344.422 81.7312 344.194 81.7554ZM330.491 80.4054C330.377 80.4175 330.377 80.4175 330.263 80.4296C327.953 80.1839 325.664 80.0062 323.354 79.7606C322.992 79.729 322.816 79.5373 322.889 79.3894C322.941 79.1736 323.263 79.0694 323.511 79.1132C325.821 79.3588 328.11 79.5365 330.42 79.7821C330.782 79.8138 330.958 80.0054 330.885 80.1533C330.926 80.2891 330.719 80.3812 330.491 80.4054ZM-5.65442 114.517C-5.88239 114.542 -6.01694 114.486 -6.15148 114.43C-6.42058 114.318 -6.36826 114.103 -6.18141 113.943C-4.58375 113.002 -2.87212 112.05 -1.16048 111.097C-0.95306 111.005 -0.611097 110.969 -0.321446 111.148C-0.166341 111.272 -0.104666 111.476 -0.40551 111.648C-2.11715 112.6 -3.82879 113.553 -5.42644 114.493C-5.42644 114.493 -5.54043 114.505 -5.65442 114.517ZM316.808 79.1233C316.694 79.1353 316.694 79.1353 316.58 79.1474C314.291 78.9697 311.982 78.7241 309.692 78.5464C309.33 78.5147 309.154 78.3231 309.227 78.1752C309.279 77.9594 309.601 77.8552 309.849 77.899C312.139 78.0767 314.448 78.3223 316.737 78.5C317.1 78.5316 317.275 78.7233 317.203 78.8712C317.223 78.9391 317.036 79.0991 316.808 79.1233ZM303.012 77.8532C302.898 77.8653 302.898 77.8653 302.784 77.8774C300.495 77.6997 298.185 77.4541 295.896 77.2763C295.534 77.2447 295.358 77.0531 295.431 76.9052C295.483 76.6894 295.805 76.5852 296.053 76.6289C298.342 76.8066 300.652 77.0523 302.941 77.23C303.303 77.2616 303.479 77.4532 303.406 77.6011C303.447 77.737 303.24 77.829 303.012 77.8532ZM4.54255 108.95C4.31457 108.974 4.18003 108.919 4.04548 108.863C3.89038 108.739 3.8287 108.535 4.12955 108.363C5.86175 107.479 7.70793 106.582 9.57468 105.753C9.78209 105.661 10.1446 105.693 10.4137 105.804C10.5688 105.928 10.5165 106.144 10.3296 106.304C8.4629 107.133 6.7307 108.017 4.9985 108.902C4.77052 108.926 4.65654 108.938 4.54255 108.95ZM289.257 76.719C289.143 76.7311 289.143 76.7311 289.029 76.7432C286.74 76.5655 284.451 76.3877 282.161 76.21C281.799 76.1784 281.623 75.9868 281.696 75.8389C281.748 75.623 282.07 75.5189 282.318 75.5626C284.607 75.7403 286.897 75.918 289.186 76.0958C289.548 76.1274 289.724 76.319 289.651 76.4669C289.692 76.6027 289.485 76.6948 289.257 76.719ZM15.4534 103.798C15.2254 103.822 14.9769 103.779 14.9357 103.643C14.7806 103.519 14.8329 103.303 15.0198 103.143C16.8865 102.314 18.7533 101.486 20.6406 100.725C20.962 100.621 21.2105 100.664 21.4796 100.776C21.6553 100.968 21.5824 101.115 21.3956 101.275C19.5083 102.036 17.6415 102.865 15.7748 103.694C15.5674 103.786 15.5674 103.786 15.4534 103.798ZM275.522 75.6527L275.408 75.6648C273.119 75.4871 270.83 75.3093 268.561 75.1995C268.199 75.1679 268.023 74.9763 268.096 74.8284C268.148 74.6125 268.47 74.5084 268.718 74.5521C271.007 74.7298 273.296 74.9075 275.565 75.0173C275.928 75.049 276.103 75.2406 276.03 75.3885C275.937 75.4685 275.75 75.6285 275.522 75.6527ZM261.715 74.7343L261.601 74.7464C259.311 74.5686 257.043 74.4588 254.66 74.3611C254.298 74.3295 254.122 74.1378 254.195 73.9899C254.247 73.7741 254.569 73.67 254.817 73.7137C257.086 73.8235 259.489 73.9891 261.757 74.0989C262.12 74.1306 262.296 74.3222 262.223 74.4701C262.129 74.5501 261.942 74.7101 261.715 74.7343ZM26.85 99.085C26.6221 99.1091 26.3735 99.0654 26.2184 98.9417C26.0428 98.7501 26.1156 98.6022 26.4165 98.4301C28.3038 97.6692 30.3256 96.9641 32.3269 96.1912C32.6483 96.087 32.8969 96.1307 33.0725 96.3224C33.2482 96.514 33.1753 96.6619 32.8539 96.7661C30.8321 97.4711 28.9448 98.232 26.9229 98.9371C26.964 99.0729 26.964 99.0729 26.85 99.085ZM247.814 73.8958L247.7 73.9079C245.431 73.7981 243.048 73.7004 240.78 73.5906C240.417 73.559 240.262 73.4352 240.201 73.2315C240.253 73.0157 240.46 72.9236 240.802 72.8873C243.071 72.9972 245.453 73.0949 247.722 73.2047C248.084 73.2363 248.24 73.3601 248.301 73.5638C248.249 73.7796 248.042 73.8717 247.814 73.8958ZM38.7326 94.8109C38.5046 94.8351 38.2561 94.7913 38.101 94.6676C37.9253 94.476 37.9982 94.3281 38.3196 94.2239C40.3415 93.5189 42.3839 92.8817 44.4263 92.2446C44.7477 92.1404 45.0168 92.252 45.1719 92.3757C45.3475 92.5674 45.1607 92.7274 44.9533 92.8194C42.9109 93.4566 40.889 94.1616 38.8466 94.7988C38.8466 94.7988 38.8466 94.7988 38.7326 94.8109ZM233.974 73.2611L233.86 73.2732C231.592 73.1634 229.209 73.0657 226.961 73.0238C226.599 72.9922 226.444 72.8684 226.382 72.6647C226.434 72.4489 226.642 72.3568 226.984 72.3206C229.252 72.4304 231.614 72.4602 233.883 72.57C234.245 72.6016 234.4 72.7254 234.462 72.9291C234.41 73.1449 234.202 73.237 233.974 73.2611ZM50.9665 90.9201C50.7385 90.9443 50.49 90.9005 50.3143 90.7089C50.1387 90.5173 50.3255 90.3573 50.5329 90.2652C52.5753 89.628 54.7523 89.0467 56.8153 88.4775C57.1367 88.3733 57.4058 88.4849 57.5814 88.6765C57.7571 88.8682 57.5702 89.0282 57.2488 89.1323C55.1859 89.7016 53.0295 90.3508 50.9665 90.9201C51.0805 90.908 51.0805 90.908 50.9665 90.9201ZM220.062 72.7743L219.948 72.7864C217.586 72.7566 215.318 72.6468 212.956 72.617C212.593 72.5854 212.438 72.4616 212.376 72.2579C212.429 72.0421 212.636 71.95 212.978 71.9137C215.34 71.9436 217.588 71.9855 219.971 72.0832C220.333 72.1148 220.488 72.2386 220.55 72.4423C220.497 72.6581 220.29 72.7502 220.062 72.7743ZM206.232 72.5592C206.118 72.5713 206.118 72.5713 206.232 72.5592C203.756 72.5414 201.508 72.4995 199.167 72.5376C198.825 72.5739 198.535 72.3944 198.587 72.1786C198.64 71.9627 198.827 71.8027 199.189 71.8344C201.551 71.8642 203.779 71.8382 206.141 71.868C206.503 71.8997 206.658 72.0234 206.72 72.2271C206.647 72.375 206.46 72.535 206.232 72.5592ZM63.5723 87.4804C63.3443 87.5046 63.0752 87.393 62.9201 87.2693C62.7444 87.0776 62.9313 86.9176 63.2527 86.8135C65.3157 86.2442 67.5132 85.7308 69.7107 85.2174C70.0321 85.1132 70.3012 85.2248 70.4768 85.4164C70.6525 85.6081 70.4657 85.7681 70.1442 85.8722C67.9467 86.3857 65.8632 86.887 63.8003 87.4562C63.6863 87.4683 63.6863 87.4683 63.5723 87.4804ZM192.215 72.504C189.76 72.5542 187.533 72.5802 185.191 72.6183C184.849 72.6545 184.559 72.475 184.612 72.2592C184.55 72.0555 184.851 71.8834 185.213 71.915C187.555 71.8769 189.896 71.8388 192.124 71.8128C192.466 71.7766 192.755 71.9561 192.703 72.1719C192.765 72.3756 192.557 72.4677 192.215 72.504ZM76.5088 84.3561C76.2808 84.3803 76.0117 84.2687 75.8566 84.1449C75.795 83.9412 75.8678 83.7933 76.1892 83.6892C78.3868 83.1757 80.6048 82.7302 82.7089 82.2968C83.0509 82.2605 83.2994 82.3042 83.4751 82.4958C83.5367 82.6996 83.4639 82.8475 83.1425 82.9516C80.9244 83.3972 78.7063 83.8427 76.5088 84.3561ZM178.395 72.7083C178.395 72.7083 178.281 72.7204 178.395 72.7083C176.053 72.7464 173.733 72.8524 171.391 72.8905C171.049 72.9268 170.759 72.7472 170.812 72.5314C170.75 72.3277 171.051 72.1556 171.413 72.1873C173.734 72.0813 176.076 72.0432 178.417 72.0051C178.759 71.9688 179.049 72.1484 178.996 72.3642C178.83 72.5921 178.623 72.6842 178.395 72.7083ZM89.5687 81.6393C89.3407 81.6634 88.9577 81.5639 88.9165 81.4281C88.8549 81.2244 89.0417 81.0644 89.2491 80.9723C91.4672 80.5268 93.7058 80.1491 95.9445 79.7715C96.2864 79.7353 96.5555 79.8469 96.7106 79.9706C96.7723 80.1743 96.5854 80.3343 96.378 80.4264C94.1394 80.804 91.9213 81.2495 89.5687 81.6393C89.6827 81.6272 89.6827 81.6272 89.5687 81.6393ZM164.542 73.1964C164.542 73.1964 164.428 73.2085 164.542 73.1964C162.222 73.3024 159.901 73.4084 157.58 73.5144C157.238 73.5507 156.948 73.3711 156.907 73.2353C156.845 73.0316 157.146 72.8595 157.374 72.8353C159.695 72.7293 161.995 72.5554 164.316 72.4494C164.658 72.4132 164.948 72.5927 164.875 72.7406C164.957 73.0122 164.77 73.1722 164.542 73.1964ZM102.98 79.3056C102.638 79.3419 102.369 79.2303 102.307 79.0266C102.246 78.8228 102.432 78.6629 102.774 78.6266C105.013 78.249 107.272 77.9393 109.511 77.5616C109.853 77.5254 110.122 77.637 110.184 77.8407C110.245 78.0444 110.058 78.2044 109.716 78.2407C107.478 78.6183 105.219 78.928 102.98 79.3056ZM150.658 73.9682C148.358 74.1421 146.058 74.316 143.757 74.4899C143.416 74.5262 143.146 74.4145 143.085 74.2108C143.023 74.0071 143.324 73.835 143.552 73.8108C145.852 73.6369 148.153 73.463 150.453 73.2891C150.795 73.2528 151.084 73.4324 151.126 73.5682C151.187 73.7719 151 73.9319 150.658 73.9682ZM116.401 77.3916C116.059 77.4278 115.789 77.3162 115.728 77.1125C115.666 76.9088 115.853 76.7488 116.195 76.7125C118.454 76.4028 120.734 76.161 122.993 75.8513C123.335 75.815 123.604 75.9266 123.666 76.1303C123.727 76.3341 123.541 76.4941 123.199 76.5303C120.919 76.7721 118.66 77.0818 116.401 77.3916C116.401 77.3916 116.515 77.3795 116.401 77.3916ZM136.877 75.0795C134.597 75.3213 132.297 75.4952 130.017 75.737C129.675 75.7733 129.406 75.6616 129.345 75.4579C129.283 75.2542 129.47 75.0942 129.812 75.0579C132.091 74.8161 134.371 74.5743 136.672 74.4004C137.014 74.3642 137.283 74.4758 137.344 74.6795C137.406 74.8832 137.219 75.0432 136.877 75.0795Z" fill="#FCFCFC"/>
</g>
<path d="M629.042 91.0066C634.882 93.0646 641.335 92.119 646.341 88.4757C646.591 94.6499 649.845 100.323 655.074 103.633L655.63 103.967L651.486 112.505C647.453 120.793 638.359 125.382 629.292 123.63C622.311 117.595 620.281 107.61 624.286 99.3223L628.43 90.7841L629.042 91.0066Z" fill="#91D4ED"/>
<path d="M630.154 121.877C638.192 123.184 646.174 119.04 649.761 111.698L653.182 104.662C648.816 101.574 645.812 96.9021 644.811 91.6735C640.083 94.1209 634.576 94.6494 629.431 93.1475L626.01 100.184C622.45 107.526 624.147 116.37 630.154 121.877Z" fill="#3AB4DD"/>
<path d="M634.799 95.1783L631.156 102.687C628.402 108.389 627.651 114.952 629.292 119.235C625.065 114.09 624.119 106.804 627.067 100.713L630.043 94.5665C631.628 94.928 633.214 95.1505 634.799 95.1783Z" fill="#91D4ED"/>
<path d="M632.435 102.688L636.218 104.523L638.025 100.769L641.947 102.66L640.139 106.415L643.81 108.194L641.919 112.088L638.248 110.308L636.412 114.035L632.519 112.144L634.326 108.417L630.544 106.581L632.435 102.688Z" fill="#91D4ED"/>
<path d="M507.338 75.2459C509.466 67.7681 505.129 59.981 497.651 57.8531C490.173 55.7251 482.386 60.062 480.258 67.5398C478.13 75.0177 482.467 82.8047 489.945 84.9327C497.423 87.0607 505.21 82.7237 507.338 75.2459Z" fill="#91D4ED"/>
<path d="M504.742 68.1261L486.067 79.9053C484.631 80.7672 482.763 80.3363 481.758 78.8998C480.896 77.4633 481.327 75.5959 482.763 74.5903L501.294 62.8111C502.731 61.9492 504.598 62.3802 505.604 63.8167C506.609 65.2532 506.178 67.2642 504.742 68.1261Z" fill="#3AB4DD"/>
<path d="M608.104 85.0538C609.427 76.1875 603.312 67.9273 594.446 66.6041C585.58 65.2809 577.32 71.3957 575.996 80.262C574.673 89.1282 580.788 97.3884 589.654 98.7116C598.52 100.035 606.781 93.92 608.104 85.0538Z" fill="#91D4ED"/>
<path d="M603.859 88.3804L578.864 83.7836C576.853 83.3527 575.704 81.4853 575.991 79.6178C576.422 77.6068 578.29 76.4576 580.157 76.7449L605.152 81.3416C607.163 81.7726 608.312 83.64 608.025 85.5074C607.594 87.3749 605.727 88.6677 603.859 88.3804Z" fill="#3AB4DD"/>
<path d="M460.498 97.7177C455.183 99.5851 449.437 96.7121 447.569 91.2535C445.702 85.9385 448.575 80.1925 454.034 78.3251C459.349 76.4577 465.095 79.3306 466.962 84.7893C468.686 90.2479 465.813 95.9939 460.498 97.7177Z" fill="#91D4ED"/>
<path d="M457.625 96.2812L452.597 81.1981C452.166 80.0489 452.884 78.756 454.034 78.3251C455.183 77.8941 456.476 78.6124 456.907 79.7616L461.934 94.8447C462.365 95.9939 461.647 97.2867 460.498 97.7177C459.349 98.1486 458.056 97.574 457.625 96.2812Z" fill="#3AB4DD"/>
</svg>
