<svg width="299" height="80" viewBox="0 0 299 80" fill="none" xmlns="http://www.w3.org/2000/svg">
<path fill-rule="evenodd" clip-rule="evenodd" d="M35.9012 16C41.624 16.0034 45.777 41.355 44.7416 53.0499C44.7378 53.0633 43.1626 53.0698 40.9538 53.0721L36.8902 53.0723L36.4962 53.0721L35.7056 53.0713C31.3562 53.0672 27.0698 53.0563 27.0606 53.0499C26.0194 41.3533 30.1784 15.9972 35.9012 16ZM35.9004 29.6584C34.2436 29.6584 32.9004 30.9689 32.9004 32.5853C32.9004 34.2017 34.2436 35.5121 35.9004 35.5121C37.5572 35.5121 38.9004 34.2017 38.9004 32.5853C38.9004 30.9689 37.5572 29.6584 35.9004 29.6584ZM35.9004 55.0245C36.4526 55.0245 36.9004 55.4614 36.9004 56.0001V61.8538C36.9004 62.3927 36.4526 62.8294 35.9004 62.8294C35.348 62.8294 34.9004 62.3927 34.9004 61.8538V56.0001C34.9004 55.4614 35.348 55.0245 35.9004 55.0245ZM31.9004 55.0245C32.4526 55.0245 32.9004 55.4614 32.9004 56.0001V57.9513C32.9004 58.4902 32.4526 58.9269 31.9004 58.9269C31.348 58.9269 30.9004 58.4902 30.9004 57.9513V56.0001C30.9004 55.4614 31.348 55.0245 31.9004 55.0245ZM39.9004 55.0245C40.4526 55.0245 40.9004 55.4614 40.9004 56.0001V57.9513C40.9004 58.4902 40.4526 58.9269 39.9004 58.9269C39.348 58.9269 38.9004 58.4902 38.9004 57.9513V56.0001C38.9004 55.4614 39.348 55.0245 39.9004 55.0245ZM46.9002 39.4149L54.774 48.0567C54.8552 48.146 54.9002 48.2614 54.9002 48.3808V54.4216C54.9002 54.9605 54.4526 55.3972 53.9002 55.3972C53.745 55.3972 53.5918 55.3619 53.453 55.2941L46.9002 52.0977V39.4149ZM24.9004 39.4149V52.0977L18.3476 55.2941C18.2088 55.3619 18.0556 55.3972 17.9004 55.3972C17.3481 55.3972 16.9004 54.9605 16.9004 54.4216V48.3808C16.9004 48.2614 16.9453 48.146 17.0267 48.0567L24.9004 39.4149ZM143.666 52.5919V45.3431H145.769L149.779 52.5919H156.088L151.356 44.2846C152.561 43.6218 153.514 42.7236 154.215 41.5903C154.916 40.4571 155.267 39.2274 155.267 37.9018C155.267 35.635 154.467 33.7855 152.868 32.3529C151.29 30.8774 149.33 30.1396 146.985 30.1396H137.784V52.5919H143.666ZM147.133 40.4668L143.666 40.4676V35.4319H146.92C147.643 35.4319 148.234 35.6672 148.694 36.1377C149.154 36.6081 149.384 37.2175 149.384 37.966C149.384 38.7142 149.154 39.3238 148.694 39.794C148.28 40.2175 147.76 40.4417 147.133 40.4668ZM146.92 40.4676C146.992 40.4698 147.063 40.4696 147.133 40.4668L146.92 40.4676ZM169.332 53.0731C172.684 53.0731 175.532 51.9503 177.876 49.7053C180.221 47.4173 181.393 44.6374 181.393 41.3658C181.393 38.0729 180.221 35.3037 177.876 33.0584C175.554 30.7919 172.706 29.6586 169.332 29.6586C165.936 29.6586 163.077 30.7919 160.755 33.0584C158.433 35.3037 157.271 38.0729 157.271 41.3658C157.271 44.6588 158.433 47.4385 160.755 49.7053C163.077 51.9503 165.936 53.0731 169.332 53.0731ZM169.332 47.46C167.579 47.46 166.101 46.8934 164.896 45.7601C163.713 44.6054 163.121 43.1406 163.121 41.3658C163.121 39.5697 163.713 38.1156 164.896 37.0036C166.079 35.8489 167.557 35.2715 169.332 35.2715C171.107 35.2715 172.586 35.8489 173.769 37.0036C174.952 38.1156 175.543 39.5697 175.543 41.3658C175.543 43.1406 174.952 44.6054 173.769 45.7601C172.564 46.8934 171.085 47.46 169.332 47.46ZM195.228 53.0731C197.331 53.0731 199.265 52.5974 201.028 51.6458C202.792 50.6941 204.178 49.3952 205.186 47.7486L200.092 44.8619C199.654 45.6744 199.002 46.3107 198.136 46.7704C197.271 47.2301 196.302 47.46 195.228 47.46C193.388 47.46 191.898 46.9041 190.759 45.7921C189.641 44.6801 189.083 43.2048 189.083 41.3658C189.083 39.5697 189.641 38.1049 190.759 36.9716C191.92 35.8383 193.41 35.2715 195.228 35.2715C196.302 35.2715 197.271 35.5016 198.136 35.9613C199.002 36.421 199.654 37.0463 200.092 37.8376L205.186 34.9829C204.178 33.3578 202.786 32.0641 201.012 31.102C199.237 30.1396 197.309 29.6586 195.228 29.6586C191.745 29.6586 188.875 30.7812 186.618 33.0264C184.361 35.2288 183.233 38.0087 183.233 41.3658C183.233 44.723 184.361 47.5135 186.618 49.7373C188.896 51.9611 191.766 53.0731 195.228 53.0731ZM213.63 52.5919V42.5525L220.236 52.5919H226.808L219.184 41.045L226.48 30.1396H219.908L213.63 39.5697V30.1396H207.748V52.5919H213.63ZM243.274 52.5919V47.2034H234.368V43.8996H242.288V38.6073H234.368V35.4961H243.108V30.1396H228.484V52.5919H243.274ZM256.156 52.5919V35.6885H261.84V30.1396H244.588V35.6885H250.272V52.5919H256.156ZM272.16 53.0731C274.788 53.0731 276.902 52.453 278.502 51.2128C280.102 49.9726 280.902 48.2512 280.902 46.0487C280.902 43.8034 280.102 42.1677 278.502 41.1414C277.736 40.628 276.99 40.2218 276.268 39.9224C275.632 39.6659 274.734 39.3665 273.572 39.0243C272.018 38.5753 270.972 38.1798 270.434 37.8376C269.898 37.4955 269.63 37.0785 269.63 36.5866C269.63 36.1377 269.816 35.7794 270.188 35.5121C270.56 35.245 271.086 35.1113 271.766 35.1113C273.43 35.1113 274.624 35.9453 275.348 37.613L280.276 34.7905C279.488 33.1439 278.348 31.877 276.858 30.9896C275.37 30.1021 273.66 29.6586 271.732 29.6586C269.476 29.6586 267.57 30.3 266.014 31.5829C264.502 32.866 263.746 34.5445 263.746 36.6188C263.746 38.4577 264.328 39.9332 265.488 41.045C266.65 42.157 268.348 43.0229 270.582 43.643C272.16 44.0922 273.124 44.3808 273.474 44.5092C274.504 44.9367 275.018 45.4713 275.018 46.1129C275.018 47.118 274.12 47.6204 272.324 47.6204C270.154 47.6204 268.644 46.626 267.788 44.6374L262.76 47.492C263.418 49.2456 264.552 50.614 266.162 51.5976C267.772 52.5812 269.772 53.0731 272.16 53.0731ZM74.7828 52.5917V40.5316L80.3368 49.5125H80.9282L86.515 40.4996V52.5917H92.3646V30.1394H86.515L80.6324 39.7299L74.7828 30.1394H68.9004V52.5917H74.7828ZM108.632 52.5917L116.059 30.1394H109.618L105.115 45.5995L100.646 30.1394H94.2048L101.632 52.5917H108.632ZM123.749 52.5917V45.8561H126.805C129.127 45.8561 131.077 45.1183 132.654 43.6428C134.232 42.1675 135.021 40.2858 135.021 37.9978C135.021 35.7098 134.232 33.828 132.654 32.3527C131.077 30.8772 129.127 30.1394 126.805 30.1394H117.866V41.3656V52.5917H123.749ZM126.805 40.4034H123.749V35.6243H126.805C127.462 35.6243 128.015 35.8434 128.464 36.2817C128.914 36.7201 129.138 37.292 129.138 37.9978C129.138 38.7033 128.914 39.2807 128.464 39.7299C128.015 40.1788 127.462 40.4034 126.805 40.4034Z" fill="#1E3A8A"/>
</svg>
