<svg width="28" height="30" viewBox="0 0 28 30" fill="none" xmlns="http://www.w3.org/2000/svg">
<path d="M26.3732 23.9814C25.6995 22.3856 24.7218 20.936 23.4947 19.7135C22.2713 18.4875 20.822 17.51 19.227 16.8349C19.2127 16.8278 19.1984 16.8242 19.1841 16.8171C21.409 15.2099 22.8554 12.5921 22.8554 9.63852C22.8554 4.74566 18.8913 0.781372 13.9986 0.781372C9.10585 0.781372 5.14169 4.74566 5.14169 9.63852C5.14169 12.5921 6.58807 15.2099 8.813 16.8207C8.79872 16.8278 8.78443 16.8314 8.77015 16.8385C7.1702 17.5135 5.73453 18.4814 4.50242 19.7171C3.27642 20.9405 2.29894 22.3898 1.62394 23.9849C0.960826 25.5466 0.603193 27.2208 0.570402 28.9171C0.569449 28.9552 0.576134 28.9931 0.590065 29.0286C0.603996 29.0641 0.624889 29.0965 0.651515 29.1238C0.678141 29.1511 0.70996 29.1727 0.745097 29.1875C0.780234 29.2023 0.817979 29.21 0.856107 29.21H2.9989C3.15604 29.21 3.28103 29.085 3.2846 28.9314C3.35603 26.1742 4.46314 23.5921 6.42022 21.6349C8.44516 19.6099 11.1344 18.4957 13.9986 18.4957C16.8627 18.4957 19.552 19.6099 21.5769 21.6349C23.534 23.5921 24.6411 26.1742 24.7125 28.9314C24.7161 29.0885 24.8411 29.21 24.9982 29.21H27.141C27.1791 29.21 27.2169 29.2023 27.252 29.1875C27.2871 29.1727 27.319 29.1511 27.3456 29.1238C27.3722 29.0965 27.3931 29.0641 27.407 29.0286C27.421 28.9931 27.4277 28.9552 27.4267 28.9171C27.391 27.2099 27.0374 25.5492 26.3732 23.9814ZM13.9986 15.7814C12.3593 15.7814 10.8165 15.1421 9.65583 13.9814C8.49515 12.8207 7.85589 11.2778 7.85589 9.63852C7.85589 7.99923 8.49515 6.45637 9.65583 5.29566C10.8165 4.13494 12.3593 3.49566 13.9986 3.49566C15.6378 3.49566 17.1806 4.13494 18.3413 5.29566C19.502 6.45637 20.1412 7.99923 20.1412 9.63852C20.1412 11.2778 19.502 12.8207 18.3413 13.9814C17.1806 15.1421 15.6378 15.7814 13.9986 15.7814Z" fill="#FCFCFC"/>
</svg>
