<svg width="32" height="52" viewBox="0 0 32 52" fill="none" xmlns="http://www.w3.org/2000/svg">
<g opacity="0.34">
<path d="M18.1772 34.989L15.1725 27.3358C13.9255 24.2279 10.3915 22.6542 7.2837 23.9012C4.17588 25.1483 2.60218 28.6822 3.84921 31.7901L6.85389 39.4434C7.39665 38.067 9.28962 36.518 11.8352 35.4735C14.3891 34.4934 16.8487 34.3095 18.1772 34.989Z" fill="#67C4E5"/>
<path d="M20.8984 41.9596L18.9792 37.1734L18.1127 34.9971C16.7924 34.3818 14.3246 34.5015 11.7789 35.5459C9.2251 36.526 7.34039 38.1394 6.79763 39.5158L7.66411 41.6921L9.58325 46.4783C10.8303 49.5861 14.3643 51.1598 17.4721 49.9128C20.5799 48.6657 22.1454 45.0675 20.8984 41.9596Z" fill="#3AB4DD"/>
<path d="M18.8673 42.9384C18.6826 43.0273 18.5869 43.301 18.483 43.5103C18.2752 43.929 18.0756 44.4119 17.9321 44.8224C17.7885 45.2328 17.5807 45.6515 17.7668 46.0851C17.9612 46.583 18.5727 46.7662 19.0707 46.5718C19.5686 46.3774 19.8407 45.9505 20.0403 45.4675C20.1756 44.9928 20.2698 44.1966 20.2122 43.7465C19.9453 43.1926 19.3488 42.6154 18.8673 42.9384Z" fill="#B2D9FF"/>
<path d="M19.0758 39.9709C19.173 40.2198 19.2784 40.5331 19.3113 40.7903C19.2799 41.0557 19.1281 41.4018 18.8709 41.4347C18.4934 41.5484 18.1951 41.2598 17.9611 40.963C17.5656 40.4254 17.2262 39.8154 17.0071 39.1246C16.8853 38.6828 16.5608 37.6787 17.0423 37.3557C17.9887 36.5812 18.8171 39.4812 19.0758 39.9709Z" fill="#B2D9FF"/>
<path d="M18.1388 7.61336L11.2361 3.20323C8.3929 1.41046 4.64063 2.21716 2.83964 4.99605C1.04688 7.83923 1.8536 11.5915 4.63248 13.3925L11.5352 17.8026C11.1532 16.3485 11.8297 13.9748 13.3025 11.6953C14.7835 9.48016 16.6683 7.86681 18.1388 7.61336Z" fill="#67C4E5"/>
<path d="M24.4779 11.7036L20.1365 8.92624L18.1471 7.67774C16.6765 7.93119 14.7836 9.48025 13.319 11.824C11.8462 14.1035 11.1779 16.5415 11.5517 17.9313L13.5411 19.1798L17.8825 21.9571C20.7257 23.7499 24.4779 22.9432 26.2789 20.1643C28.0635 17.2568 27.2568 13.5046 24.4779 11.7036Z" fill="#3AB4DD"/>
<path d="M23.2937 13.6849C23.1898 13.8942 23.2226 14.1514 23.3198 14.4004C23.4417 14.8422 23.5075 15.3566 23.6294 15.7984C23.7512 16.2403 23.8088 16.6903 24.2275 16.8981C24.6544 17.1703 25.2808 16.9594 25.553 16.5326C25.8251 16.1057 25.8154 15.5188 25.6292 15.0852C25.4348 14.5873 25.0872 13.9129 24.7164 13.5683C24.3538 13.2879 23.5576 13.1937 23.2937 13.6849Z" fill="#B2D9FF"/>
<path d="M21.7992 11.1968C22.0167 11.365 22.2985 11.525 22.46 11.7658C22.6215 12.0065 22.6626 12.328 22.4944 12.5455C22.2702 12.8356 21.8036 12.7646 21.4657 12.6771C20.7899 12.5022 20.2179 12.1179 19.646 11.7336C19.2834 11.4533 18.4214 10.8447 18.6128 10.2975C18.9066 9.0183 21.2997 10.8686 21.7992 11.1968Z" fill="#B2D9FF"/>
</g>
</svg>
