<svg width="24" height="24" viewBox="0 0 24 24" fill="none" xmlns="http://www.w3.org/2000/svg">
<path fill-rule="evenodd" clip-rule="evenodd" d="M17.2975 13.7873C17.3645 13.8543 17.398 13.9313 17.398 14.0183C17.398 14.1054 17.3645 14.1824 17.2975 14.2493L16.7953 14.7516C16.7283 14.8185 16.6513 14.852 16.5643 14.852C16.4772 14.852 16.4002 14.8185 16.3332 14.7516L12.3857 10.804L8.43815 14.7516C8.37118 14.8185 8.29417 14.852 8.20712 14.852C8.12007 14.852 8.04306 14.8185 7.97609 14.7516L7.47386 14.2493C7.4069 14.1824 7.37341 14.1054 7.37341 14.0183C7.37341 13.9313 7.4069 13.8543 7.47386 13.7873L12.1547 9.10649C12.2216 9.03952 12.2986 9.00604 12.3857 9.00604C12.4727 9.00604 12.5498 9.03952 12.6167 9.10649L17.2975 13.7873Z" fill="#1E3A8A"/>
</svg>
