<svg width="14" height="11" viewBox="0 0 14 11" fill="none" xmlns="http://www.w3.org/2000/svg">
<path fill-rule="evenodd" clip-rule="evenodd" d="M13.2528 1.86721C13.4091 2.02346 13.4872 2.21319 13.4872 2.43641C13.4872 2.65962 13.4091 2.84935 13.2528 3.0056L7.19257 9.06585L6.05417 10.2042C5.89792 10.3605 5.70819 10.4386 5.48498 10.4386C5.26176 10.4386 5.07203 10.3605 4.91578 10.2042L3.77739 9.06585L0.747253 6.03572C0.591003 5.87947 0.512878 5.68973 0.512878 5.46652C0.512878 5.24331 0.591003 5.05357 0.747253 4.89733L1.88565 3.75893C2.0419 3.60268 2.23163 3.52456 2.45484 3.52456C2.67806 3.52456 2.86779 3.60268 3.02404 3.75893L5.48498 6.22824L10.976 0.72879C11.1323 0.57254 11.322 0.494415 11.5452 0.494415C11.7684 0.494415 11.9582 0.57254 12.1144 0.72879L13.2528 1.86721Z" fill="#FCFCFC"/>
</svg>
