<svg width="24" height="18" viewBox="0 0 24 18" fill="none" xmlns="http://www.w3.org/2000/svg">
<path d="M22.5625 0.0625H1.4375C0.988086 0.0625 0.625 0.425586 0.625 0.875V17.125C0.625 17.5744 0.988086 17.9375 1.4375 17.9375H22.5625C23.0119 17.9375 23.375 17.5744 23.375 17.125V0.875C23.375 0.425586 23.0119 0.0625 22.5625 0.0625ZM21.5469 16.1094H2.45312V15.0963L5.96973 10.9246L9.78086 15.4441L15.7096 8.41602L21.5469 15.3375V16.1094ZM21.5469 12.8137L15.8645 6.075C15.7832 5.97852 15.6359 5.97852 15.5547 6.075L9.78086 12.9203L6.12461 8.58613C6.04336 8.48965 5.89609 8.48965 5.81484 8.58613L2.45312 12.5725V1.89062H21.5469V12.8137Z" fill="#DC2020"/>
<path d="M6.71875 7.57812C7.01217 7.57812 7.30272 7.52033 7.57381 7.40804C7.8449 7.29575 8.09121 7.13117 8.29869 6.92369C8.50617 6.71621 8.67075 6.4699 8.78304 6.19881C8.89533 5.92772 8.95312 5.63717 8.95312 5.34375C8.95312 5.05033 8.89533 4.75978 8.78304 4.48869C8.67075 4.2176 8.50617 3.97129 8.29869 3.76381C8.09121 3.55633 7.8449 3.39174 7.57381 3.27946C7.30272 3.16717 7.01217 3.10938 6.71875 3.10938C6.12616 3.10938 5.55783 3.34478 5.13881 3.76381C4.71978 4.18283 4.48438 4.75116 4.48438 5.34375C4.48438 5.93634 4.71978 6.50467 5.13881 6.92369C5.55783 7.34272 6.12616 7.57812 6.71875 7.57812ZM6.71875 4.63281C7.1123 4.63281 7.42969 4.9502 7.42969 5.34375C7.42969 5.7373 7.1123 6.05469 6.71875 6.05469C6.3252 6.05469 6.00781 5.7373 6.00781 5.34375C6.00781 4.9502 6.3252 4.63281 6.71875 4.63281Z" fill="#DC2020"/>
</svg>
