<svg width="24" height="24" viewBox="0 0 24 24" fill="none" xmlns="http://www.w3.org/2000/svg">
<path fill-rule="evenodd" clip-rule="evenodd" d="M14.4857 8.31424V3.57316C14.6331 3.66691 14.7536 3.76066 14.8474 3.85441L18.9456 7.95263C19.0393 8.04638 19.1331 8.16691 19.2268 8.31423L14.4857 8.31424ZM13.2 8.63565C13.2 8.9035 13.2938 9.13118 13.4813 9.31868C13.6688 9.50618 13.8965 9.59993 14.1643 9.59993H19.6286V20.2071C19.6286 20.4749 19.5348 20.7026 19.3473 20.8901C19.1598 21.0776 18.9322 21.1714 18.6643 21.1714H5.16431C4.89645 21.1714 4.66878 21.0776 4.48128 20.8901C4.29378 20.7026 4.20003 20.4749 4.20003 20.2071V4.13567C4.20003 3.86781 4.29378 3.64014 4.48128 3.45264C4.66878 3.26514 4.89646 3.17139 5.16431 3.17139H13.2001L13.2 8.63565Z" fill="#14142B"/>
</svg>
