<svg width="20" height="20" viewBox="0 0 20 20" fill="none" xmlns="http://www.w3.org/2000/svg">
<path fill-rule="evenodd" clip-rule="evenodd" d="M9.91821e-05 9.99933C9.91821e-05 4.48033 4.4801 -0.000671387 10.0001 -0.000671387C15.5301 -0.000671387 20.0001 4.48033 20.0001 9.99933C20.0001 15.5203 15.5301 19.9993 10.0001 19.9993C4.4801 19.9993 9.91821e-05 15.5203 9.91821e-05 9.99933ZM9.1201 6.20933C9.1201 5.73033 9.5201 5.32933 10.0001 5.32933C10.4801 5.32933 10.8701 5.73033 10.8701 6.20933V10.6293C10.8701 11.1103 10.4801 11.4993 10.0001 11.4993C9.5201 11.4993 9.1201 11.1103 9.1201 10.6293V6.20933ZM10.0101 14.6803C9.5201 14.6803 9.1301 14.2803 9.1301 13.8003C9.1301 13.3203 9.5201 12.9303 10.0001 12.9303C10.4901 12.9303 10.8801 13.3203 10.8801 13.8003C10.8801 14.2803 10.4901 14.6803 10.0101 14.6803Z" fill="#E99400"/>
</svg>
