<svg width="110" height="110" viewBox="0 0 110 110" fill="none" xmlns="http://www.w3.org/2000/svg">
<path d="M88.72 109.95H20.3901C9.15008 109.95 0.0400391 100.84 0.0400391 89.6V20.38C0.0400391 9.14001 9.15008 0.0299988 20.3901 0.0299988H88.72C99.96 0.0299988 109.07 9.14001 109.07 20.38V89.6C109.07 100.84 99.96 109.95 88.72 109.95Z" fill="url(#paint0_linear)"/>
<path d="M28.71 87.96V21.85C28.71 17.58 31.25 14.94 35.35 14.94C39.51 14.94 41.99 17.59 41.99 21.85V46.53H42.26C45.34 39.56 51.66 35.62 60.35 35.62C72.99 35.62 80.39 43.94 80.39 57.06V87.95C80.39 92.49 77.58 95.03 73.64 95.03C69.7 95.03 66.9399 92.49 66.9399 87.95V59.81C66.9399 51.82 62.94 47.01 55.17 47.01C47.07 47.01 42.15 52.63 42.15 61.05V87.95C42.15 92.49 39.4 95.03 35.45 95.03C31.52 95.04 28.71 92.5 28.71 87.96Z" fill="white"/>
<defs>
<linearGradient id="paint0_linear" x1="13.3742" y1="13.8054" x2="95.1095" y2="95.5407" gradientUnits="userSpaceOnUse">
<stop offset="0.00119874" stop-color="#FFBC08"/>
<stop offset="0.4816" stop-color="#FF73CA"/>
<stop offset="1" stop-color="#FD5900"/>
</linearGradient>
</defs>
</svg>
