<svg width="16" height="10" viewBox="0 0 16 10" fill="none" xmlns="http://www.w3.org/2000/svg">
<path fill-rule="evenodd" clip-rule="evenodd" d="M14.9463 7.68092C15.0467 7.78137 15.097 7.89689 15.097 8.02747C15.097 8.15805 15.0467 8.27356 14.9463 8.37401L14.1929 9.12736C14.0925 9.2278 13.977 9.27802 13.8464 9.27802C13.7158 9.27802 13.6003 9.2278 13.4999 9.12736L7.57854 3.20604L1.65722 9.12736C1.55677 9.2278 1.44126 9.27802 1.31068 9.27802C1.1801 9.27802 1.06458 9.2278 0.964138 9.12736L0.21079 8.37401C0.110343 8.27356 0.0601196 8.15805 0.0601196 8.02747C0.0601196 7.89689 0.110343 7.78137 0.21079 7.68092L7.232 0.659718C7.33244 0.559272 7.44796 0.509048 7.57854 0.509048C7.70912 0.509048 7.82463 0.559272 7.92508 0.659718L14.9463 7.68092Z" fill="#3B82F6"/>
</svg>
