<svg width="34" height="34" viewBox="0 0 34 34" fill="none" xmlns="http://www.w3.org/2000/svg">
<path fill-rule="evenodd" clip-rule="evenodd" d="M21.5298 10.4552C21.6247 10.55 21.6721 10.6591 21.6721 10.7825C21.6721 10.9058 21.6247 11.0149 21.5298 11.1098L15.9375 16.7021L21.5298 22.2945C21.6247 22.3893 21.6721 22.4984 21.6721 22.6218C21.6721 22.7451 21.6247 22.8542 21.5298 22.949L20.8183 23.6605C20.7235 23.7554 20.6144 23.8028 20.491 23.8028C20.3677 23.8028 20.2586 23.7554 20.1638 23.6605L13.5326 17.0294C13.4378 16.9345 13.3903 16.8254 13.3903 16.7021C13.3903 16.5788 13.4378 16.4697 13.5326 16.3748L20.1638 9.74368C20.2586 9.64881 20.3677 9.60138 20.491 9.60138C20.6144 9.60138 20.7235 9.64881 20.8183 9.74368L21.5298 10.4552Z" fill="#4B4B63"/>
</svg>
