<svg width="14" height="15" viewBox="0 0 14 15" fill="none" xmlns="http://www.w3.org/2000/svg">
<g clip-path="url(#clip0_351_12444)">
<path d="M11.1763 2.07632C9.70446 0.604443 7.30758 0.604443 5.83727 2.07632L1.75915 6.15132C1.73258 6.17788 1.71852 6.21382 1.71852 6.25132C1.71852 6.28882 1.73258 6.32476 1.75915 6.35132L2.33571 6.92788C2.36206 6.95412 2.39774 6.96885 2.43493 6.96885C2.47212 6.96885 2.50779 6.95412 2.53415 6.92788L6.61227 2.85288C7.11852 2.34663 7.79196 2.06851 8.50758 2.06851C9.22321 2.06851 9.89665 2.34663 10.4013 2.85288C10.9076 3.35913 11.1857 4.03257 11.1857 4.74663C11.1857 5.46226 10.9076 6.13413 10.4013 6.64038L6.24508 10.7951L5.57165 11.4685C4.94196 12.0982 3.91852 12.0982 3.28883 11.4685C2.98415 11.1638 2.81696 10.7591 2.81696 10.3279C2.81696 9.89663 2.98415 9.49194 3.28883 9.18726L7.41227 5.06538C7.51696 4.96226 7.65446 4.90444 7.80133 4.90444H7.8029C7.94977 4.90444 8.08571 4.96226 8.18883 5.06538C8.29352 5.17007 8.34977 5.30757 8.34977 5.45444C8.34977 5.59976 8.29196 5.73726 8.18883 5.84038L4.81852 9.20757C4.79196 9.23413 4.7779 9.27007 4.7779 9.30757C4.7779 9.34507 4.79196 9.38101 4.81852 9.40757L5.39508 9.98413C5.42144 10.0104 5.45711 10.0251 5.4943 10.0251C5.53149 10.0251 5.56717 10.0104 5.59352 9.98413L8.96227 6.61538C9.27321 6.30444 9.44352 5.89194 9.44352 5.45288C9.44352 5.01382 9.27164 4.59976 8.96227 4.29038C8.32008 3.64819 7.27633 3.64976 6.63415 4.29038L6.23415 4.69194L2.51227 8.41226C2.25966 8.66338 2.05942 8.96216 1.92317 9.29126C1.78691 9.62037 1.71735 9.97325 1.71852 10.3294C1.71852 11.0529 2.00133 11.7326 2.51227 12.2435C3.04196 12.7716 3.73571 13.0357 4.42946 13.0357C5.12321 13.0357 5.81696 12.7716 6.34508 12.2435L11.1763 7.41538C11.8873 6.70288 12.281 5.75444 12.281 4.74663C12.2826 3.73726 11.8888 2.78882 11.1763 2.07632Z" fill="#6B6B80"/>
</g>
<defs>
<clipPath id="clip0_351_12444">
<rect width="14" height="14" fill="white" transform="translate(0 0.00170898)"/>
</clipPath>
</defs>
</svg>
