<svg width="25" height="24" viewBox="0 0 25 24" fill="none" xmlns="http://www.w3.org/2000/svg">
<path fill-rule="evenodd" clip-rule="evenodd" d="M19.0918 8.79633C19.0918 10.0523 19.4238 10.7925 20.1543 11.6456C20.7079 12.2741 20.8848 13.0808 20.8848 13.956C20.8848 14.8302 20.5975 15.6601 20.0221 16.3339C19.2687 17.1417 18.2063 17.6573 17.122 17.747C15.5507 17.8809 13.9784 17.9937 12.3853 17.9937C10.7911 17.9937 9.21981 17.9263 7.64852 17.747C6.56322 17.6573 5.50078 17.1417 4.74843 16.3339C4.17299 15.6601 3.88477 14.8302 3.88477 13.956C3.88477 13.0808 4.06267 12.2741 4.61525 11.6456C5.3686 10.7925 5.67869 10.0523 5.67869 8.79633V8.3703C5.67869 6.68834 6.0981 5.58852 6.96176 4.51186C8.24583 2.9417 10.3041 2 12.3405 2H12.43C14.5101 2 16.635 2.98702 17.8972 4.62466C18.7162 5.67916 19.0918 6.73265 19.0918 8.3703V8.79633ZM9.45844 20.0608C9.45844 19.5573 9.92059 19.3266 10.3479 19.2279C10.8479 19.1222 13.894 19.1222 14.394 19.2279C14.8213 19.3266 15.2835 19.5573 15.2835 20.0608C15.2586 20.5402 14.9774 20.9653 14.5888 21.2352C14.0849 21.628 13.4935 21.8767 12.8753 21.9664C12.5334 22.0107 12.1975 22.0117 11.8676 21.9664C11.2484 21.8767 10.657 21.628 10.1541 21.2342C9.76455 20.9653 9.48329 20.5402 9.45844 20.0608Z" fill="#6C58CE"/>
</svg>
