<svg width="78" height="78" viewBox="0 0 78 78" fill="none" xmlns="http://www.w3.org/2000/svg">
<path fill-rule="evenodd" clip-rule="evenodd" d="M61.9819 61.977C52.0494 71.9106 37.3418 74.0568 25.3059 68.4906C23.529 67.7752 22.0723 67.197 20.6875 67.197C16.8301 67.2199 12.0288 70.9601 9.53342 68.4677C7.03805 65.972 10.7811 61.1669 10.7811 57.2863C10.7811 55.9013 10.2259 54.4705 9.51055 52.6902C3.9417 40.6563 6.09085 25.9437 16.0233 16.0134C28.7027 3.3294 49.3026 3.32941 61.9819 16.0102C74.6841 28.7138 74.6613 49.2963 61.9819 61.977Z" stroke="#D1D1DB" stroke-width="3.2" stroke-linecap="round" stroke-linejoin="round"/>
<path d="M51.8028 40.3422H51.832" stroke="#D1D1DB" stroke-width="4.68" stroke-linecap="round" stroke-linejoin="round"/>
<path d="M38.7735 40.3422H38.8027" stroke="#D1D1DB" stroke-width="4.68" stroke-linecap="round" stroke-linejoin="round"/>
<path d="M25.7442 40.3422H25.7734" stroke="#D1D1DB" stroke-width="4.68" stroke-linecap="round" stroke-linejoin="round"/>
</svg>
