<svg width="14" height="11" viewBox="0 0 14 11" fill="none" xmlns="http://www.w3.org/2000/svg">
<path fill-rule="evenodd" clip-rule="evenodd" d="M13.2528 1.86722C13.4091 2.02347 13.4872 2.2132 13.4872 2.43641C13.4872 2.65963 13.4091 2.84936 13.2528 3.00561L7.19257 9.06586L6.05417 10.2043C5.89792 10.3605 5.70819 10.4386 5.48498 10.4386C5.26176 10.4386 5.07203 10.3605 4.91578 10.2043L3.77739 9.06586L0.747253 6.03572C0.591003 5.87947 0.512878 5.68974 0.512878 5.46653C0.512878 5.24332 0.591003 5.05358 0.747253 4.89734L1.88565 3.75894C2.0419 3.60269 2.23163 3.52456 2.45484 3.52456C2.67806 3.52456 2.86779 3.60269 3.02404 3.75894L5.48498 6.22825L10.976 0.7288C11.1323 0.57255 11.322 0.494425 11.5452 0.494425C11.7684 0.494425 11.9582 0.57255 12.1144 0.7288L13.2528 1.86722Z" fill="#9C9CAF"/>
</svg>
