<svg width="13" height="11" viewBox="0 0 13 11" fill="none" xmlns="http://www.w3.org/2000/svg">
<path fill-rule="evenodd" clip-rule="evenodd" d="M12.7528 1.86722C12.9091 2.02347 12.9872 2.2132 12.9872 2.43641C12.9872 2.65963 12.9091 2.84936 12.7528 3.00561L6.69257 9.06586L5.55417 10.2043C5.39792 10.3605 5.20819 10.4386 4.98498 10.4386C4.76176 10.4386 4.57203 10.3605 4.41578 10.2043L3.27739 9.06586L0.247253 6.03572C0.0910034 5.87947 0.0128784 5.68974 0.0128784 5.46653C0.0128784 5.24331 0.0910034 5.05358 0.247253 4.89733L1.38565 3.75894C1.5419 3.60269 1.73163 3.52456 1.95484 3.52456C2.17806 3.52456 2.36779 3.60269 2.52404 3.75894L4.98498 6.22825L10.476 0.728798C10.6323 0.572548 10.822 0.494423 11.0452 0.494423C11.2684 0.494423 11.4582 0.572548 11.6144 0.728798L12.7528 1.86722Z" fill="#FCFCFC"/>
</svg>
