<svg width="14" height="11" viewBox="0 0 14 11" fill="none" xmlns="http://www.w3.org/2000/svg">
<path fill-rule="evenodd" clip-rule="evenodd" d="M13.2528 1.86723C13.4091 2.02348 13.4872 2.21321 13.4872 2.43642C13.4872 2.65963 13.4091 2.84937 13.2528 3.00562L7.19257 9.06587L6.05417 10.2043C5.89792 10.3605 5.70819 10.4386 5.48498 10.4386C5.26176 10.4386 5.07203 10.3605 4.91578 10.2043L3.77739 9.06587L0.747253 6.03573C0.591003 5.87948 0.512878 5.68975 0.512878 5.46654C0.512878 5.24332 0.591003 5.05359 0.747253 4.89734L1.88565 3.75895C2.0419 3.6027 2.23163 3.52457 2.45484 3.52457C2.67806 3.52457 2.86779 3.6027 3.02404 3.75895L5.48498 6.22826L10.976 0.728806C11.1323 0.572556 11.322 0.494431 11.5452 0.494431C11.7684 0.494431 11.9582 0.572556 12.1144 0.728806L13.2528 1.86723Z" fill="#9C9CAF"/>
</svg>
