<svg width="24" height="20" viewBox="0 0 24 20" fill="none" xmlns="http://www.w3.org/2000/svg">
<g clip-path="url(#clip0_351_11742)">
<path d="M9.62476 4.87369H9.49976C9.56851 4.87369 9.62476 4.81744 9.62476 4.74869V4.87369H14.3748V4.74869C14.3748 4.81744 14.431 4.87369 14.4998 4.87369H14.3748V5.99869H15.4998V4.74869C15.4998 4.19713 15.0513 3.74869 14.4998 3.74869H9.49976C8.94819 3.74869 8.49976 4.19713 8.49976 4.74869V5.99869H9.62476V4.87369ZM17.4998 5.99869H6.49976C6.22319 5.99869 5.99976 6.22213 5.99976 6.49869V6.99869C5.99976 7.06744 6.05601 7.12369 6.12476 7.12369H7.06851L7.45444 15.2956C7.47944 15.8284 7.92007 16.2487 8.45288 16.2487H15.5466C16.081 16.2487 16.5201 15.8299 16.5451 15.2956L16.931 7.12369H17.8748C17.9435 7.12369 17.9998 7.06744 17.9998 6.99869V6.49869C17.9998 6.22213 17.7763 5.99869 17.4998 5.99869ZM15.4263 15.1237H8.57319L8.19507 7.12369H15.8044L15.4263 15.1237Z" fill="#6B6B80"/>
</g>
<defs>
<clipPath id="clip0_351_11742">
<rect width="14" height="14" fill="white" transform="translate(5 3.00012)"/>
</clipPath>
</defs>
</svg>
