<svg width="18" height="18" viewBox="0 0 18 18" fill="none" xmlns="http://www.w3.org/2000/svg">
<path d="M8.61924 2.09167H5.81499C3.50874 2.09167 2.06274 3.72442 2.06274 6.03592V12.2714C2.06274 14.5829 3.50199 16.2157 5.81499 16.2157H12.433C14.7467 16.2157 16.186 14.5829 16.186 12.2714V9.25042" stroke="#14142B" stroke-width="1.5" stroke-linecap="round" stroke-linejoin="round"/>
<path fill-rule="evenodd" clip-rule="evenodd" d="M6.62085 8.19062L12.2256 2.58587C12.9238 1.88837 14.0556 1.88837 14.7538 2.58587L15.6666 3.49862C16.3648 4.19687 16.3648 5.32937 15.6666 6.02687L10.0348 11.6586C9.7296 11.9639 9.3156 12.1356 8.8836 12.1356H6.0741L6.1446 9.30062C6.1551 8.88362 6.32535 8.48612 6.62085 8.19062Z" stroke="#14142B" stroke-width="1.5" stroke-linecap="round" stroke-linejoin="round"/>
<path d="M11.3739 3.45178L14.7984 6.87628" stroke="#14142B" stroke-width="1.5" stroke-linecap="round" stroke-linejoin="round"/>
</svg>
