<svg width="16" height="16" viewBox="0 0 16 16" fill="none" xmlns="http://www.w3.org/2000/svg">
<path d="M8.13151 2.1875C9.40606 2.1875 10.5009 2.56409 11.404 3.2037L10.617 3.99066C9.8899 3.49947 9.04042 3.25083 8.13151 3.25083C5.53495 3.25083 3.45618 5.43318 3.45618 7.99617C3.45618 10.5576 5.53407 12.7448 8.13151 12.7448C10.4057 12.7448 12.0992 11.4115 12.4466 9.4603L12.6035 8.57883H11.7082H8.88151V7.5195H13.6521C13.671 7.72418 13.6808 7.93349 13.6808 8.1475C13.6808 9.85262 13.1127 11.261 12.1641 12.239C11.2179 13.2145 9.84408 13.8128 8.13151 13.8128H8.13129C7.36792 13.8131 6.61199 13.6629 5.90669 13.3709C5.20138 13.0788 4.56053 12.6507 4.02075 12.1109C3.48097 11.5711 3.05284 10.9303 2.76082 10.225C2.4688 9.51969 2.31862 8.76376 2.31885 8.0004L2.31885 7.99994C2.31862 7.23657 2.4688 6.48064 2.76082 5.77534C3.05284 5.07004 3.48097 4.42919 4.02075 3.8894C4.56053 3.34962 5.20138 2.92149 5.90669 2.62947C6.61199 2.33745 7.36792 2.18727 8.13129 2.1875H8.13151Z" fill="#14142B" stroke="#FCFCFC" stroke-width="1.5"/>
</svg>
