<svg width="22" height="21" viewBox="0 0 22 21" fill="none" xmlns="http://www.w3.org/2000/svg">
<path fill-rule="evenodd" clip-rule="evenodd" d="M14.4061 16.8856V14.7428C14.4061 14.6178 14.3659 14.5151 14.2856 14.4347C14.2052 14.3544 14.1025 14.3142 13.9775 14.3142H12.6918V7.45706C12.6918 7.33206 12.6517 7.22939 12.5713 7.14903C12.4909 7.06867 12.3883 7.02849 12.2633 7.02849H7.97755C7.85255 7.02849 7.74987 7.06867 7.66951 7.14903C7.58916 7.22939 7.54898 7.33206 7.54898 7.45706V9.59992C7.54898 9.72492 7.58916 9.8276 7.66951 9.90796C7.74987 9.98831 7.85255 10.0285 7.97755 10.0285H9.26326V14.3142H7.97755C7.85255 14.3142 7.74987 14.3544 7.66951 14.4347C7.58916 14.5151 7.54898 14.6178 7.54898 14.7428V16.8856C7.54898 17.0106 7.58916 17.1133 7.66951 17.1937C7.74987 17.274 7.85255 17.3142 7.97755 17.3142H13.9775C14.1025 17.3142 14.2052 17.274 14.2856 17.1937C14.3659 17.1133 14.4061 17.0106 14.4061 16.8856L14.4061 16.8856ZM12.6918 4.88568V2.74282C12.6918 2.61782 12.6516 2.51514 12.5713 2.43479C12.4909 2.35443 12.3883 2.31425 12.2633 2.31425H9.69182C9.56682 2.31425 9.46414 2.35443 9.38379 2.43479C9.30343 2.51514 9.26325 2.61782 9.26325 2.74282V4.88568C9.26325 5.01068 9.30343 5.11336 9.38379 5.19371C9.46414 5.27407 9.56682 5.31425 9.69182 5.31425H12.2633C12.3883 5.31425 12.4909 5.27407 12.5713 5.19371C12.6516 5.11336 12.6918 5.01068 12.6918 4.88568ZM19.8838 5.30084C20.8034 6.87227 21.2633 8.59101 21.2633 10.4571C21.2633 12.3232 20.8034 14.0441 19.8838 15.62C18.9641 17.1959 17.7164 18.4437 16.1405 19.3633C14.5646 20.283 12.8436 20.7428 10.9775 20.7428C9.11147 20.7428 7.39049 20.283 5.8146 19.3633C4.23871 18.4437 2.99094 17.1959 2.0713 15.62C1.15165 14.0441 0.691833 12.3232 0.691833 10.4571C0.691833 8.59101 1.15165 6.87003 2.0713 5.29414C2.99094 3.71825 4.23871 2.47048 5.8146 1.55084C7.39049 0.631193 9.11147 0.171371 10.9775 0.171371C12.8436 0.171371 14.5646 0.631193 16.1405 1.55084C17.7164 2.47048 18.9641 3.72048 19.8838 5.30084Z" fill="#FCFCFC"/>
</svg>
