<svg width="24" height="24" viewBox="0 0 24 24" fill="none" xmlns="http://www.w3.org/2000/svg">
<g clip-path="url(#clip0_5616_27430)">
<path d="M14.1112 23H9.8696C9.28778 23 8.7998 22.75 8.7998 22.43V13.57C8.7998 13.26 9.26901 13 9.8696 13H14.13C14.7118 13 15.1998 13.25 15.1998 13.57V22.44C15.181 22.75 14.7118 23 14.1112 23Z" stroke="#9C9CAF" stroke-width="1.3" stroke-miterlimit="10"/>
<path d="M21.4473 23H17.7359C17.2268 23 16.7998 22.7449 16.7998 22.4184V15.5816C16.7998 15.2653 17.2104 15 17.7359 15H21.4637C21.9728 15 22.3998 15.2551 22.3998 15.5816V22.4184C22.3834 22.7449 21.9728 23 21.4473 23Z" stroke="#9C9CAF" stroke-width="1.3" stroke-miterlimit="10"/>
<path d="M6.24712 23H2.53568C2.02659 23 1.59961 22.7449 1.59961 22.4184V15.5816C1.59961 15.2653 2.01017 15 2.53568 15H6.26354C6.77263 15 7.19961 15.2551 7.19961 15.5816V22.4184C7.18319 22.7449 6.77263 23 6.24712 23Z" stroke="#9C9CAF" stroke-width="1.3" stroke-miterlimit="10"/>
<path d="M11.9911 9.3058C12.0209 9.28892 12.0574 9.28854 12.0876 9.30479L14.9831 10.8617C15.0565 10.9012 15.1432 10.8387 15.129 10.7566L14.5477 7.40208C14.5423 7.37087 14.552 7.33894 14.5738 7.31601L16.8661 4.91099C16.9222 4.85214 16.8883 4.75452 16.8079 4.743L13.6156 4.28628C13.5824 4.28154 13.5538 4.26053 13.5394 4.23031L12.092 1.19301C12.0555 1.11643 11.9462 1.11722 11.9108 1.19432L10.499 4.2707C10.485 4.30127 10.4565 4.32274 10.4233 4.32783L7.19511 4.82256C7.11414 4.83497 7.08162 4.93414 7.13952 4.99209L9.50336 7.35771C9.52581 7.38018 9.53625 7.41198 9.53149 7.44339L9.02299 10.7969C9.01048 10.8793 9.09844 10.94 9.17104 10.899L11.9911 9.3058Z" stroke="#9C9CAF" stroke-width="1.3" stroke-miterlimit="10"/>
</g>
<defs>
<clipPath id="clip0_5616_27430">
<rect width="24" height="24" fill="white"/>
</clipPath>
</defs>
</svg>
