<svg width="18" height="24" viewBox="0 0 18 24" fill="none" xmlns="http://www.w3.org/2000/svg">
<path fill-rule="evenodd" clip-rule="evenodd" d="M3.14994 0H11.1739L17.9745 7.08846V20.8756C17.9745 22.6027 16.5772 24 14.8561 24H3.14994C1.42281 24 0.0255127 22.6027 0.0255127 20.8756V3.12443C0.0254824 1.3973 1.42278 0 3.14994 0V0Z" fill="#E5252A"/>
<path opacity="0.302" fill-rule="evenodd" clip-rule="evenodd" d="M11.1679 0V7.03449H17.9745L11.1679 0Z" fill="white"/>
<path d="M3.49776 17.9071V13.5233H5.36283C5.8246 13.5233 6.19043 13.6492 6.46629 13.9071C6.74215 14.1589 6.88009 14.5008 6.88009 14.9266C6.88009 15.3523 6.74215 15.6942 6.46629 15.946C6.19043 16.2039 5.8246 16.3299 5.36283 16.3299H4.6192V17.9071H3.49776ZM4.6192 15.3763H5.2369C5.4048 15.3763 5.53674 15.3404 5.62671 15.2564C5.71665 15.1785 5.76465 15.0705 5.76465 14.9266C5.76465 14.7827 5.71668 14.6747 5.62671 14.5968C5.53677 14.5128 5.40483 14.4768 5.2369 14.4768H4.6192V15.3763ZM7.34183 17.9071V13.5233H8.89505C9.2009 13.5233 9.48877 13.5652 9.75862 13.6552C10.0285 13.7451 10.2744 13.8711 10.4902 14.045C10.7062 14.2129 10.8801 14.4408 11.006 14.7287C11.1259 15.0165 11.1919 15.3464 11.1919 15.7182C11.1919 16.084 11.126 16.4138 11.006 16.7017C10.8801 16.9895 10.7062 17.2174 10.4902 17.3853C10.2743 17.5592 10.0285 17.6852 9.75862 17.7751C9.48877 17.8651 9.2009 17.9071 8.89505 17.9071H7.34183ZM8.43928 16.9536H8.76311C8.93702 16.9536 9.09895 16.9356 9.24887 16.8936C9.39279 16.8516 9.53073 16.7856 9.66267 16.6957C9.78861 16.6057 9.89056 16.4798 9.96252 16.3119C10.0345 16.144 10.0705 15.946 10.0705 15.7182C10.0705 15.4843 10.0345 15.2864 9.96252 15.1185C9.89056 14.9506 9.78861 14.8246 9.66267 14.7347C9.53073 14.6447 9.39282 14.5787 9.24887 14.5368C9.09895 14.4948 8.93702 14.4768 8.76311 14.4768H8.43928V16.9536ZM11.7556 17.9071V13.5233H14.8741V14.4768H12.8771V15.1784H14.4723V16.126H12.8771V17.9071H11.7556Z" fill="white"/>
</svg>
