<svg width="24" height="24" viewBox="0 0 24 24" fill="none" xmlns="http://www.w3.org/2000/svg">
<g clip-path="url(#clip0_1802_15684)">
<path d="M21.4264 14.131L19.842 15.7155V9.89045C19.842 8.99443 19.486 8.13492 18.8524 7.50125C18.2187 6.86777 17.3594 6.51184 16.4634 6.51184H9.93921C9.64784 6.51184 9.37856 6.66713 9.23292 6.91949C9.08724 7.17184 9.08724 7.48281 9.23292 7.73497C9.3786 7.98732 9.64787 8.14281 9.93921 8.14281H16.4634C16.9268 8.14281 17.3713 8.32693 17.699 8.65461C18.0269 8.9825 18.211 9.42684 18.211 9.89042V15.7155L16.6263 14.131C16.4153 13.9726 16.1405 13.9263 15.8891 14.0065C15.6375 14.0868 15.4405 14.2838 15.3602 14.5354C15.2798 14.7868 15.3264 15.0616 15.4847 15.2728L18.4672 18.2553L18.5837 18.3485H18.6536L18.7236 18.395H19.3526L19.4226 18.3485H19.4926L19.609 18.2553L22.5915 15.2728C22.7954 15.0647 22.8729 14.7635 22.7947 14.4829C22.7164 14.2021 22.4943 13.9845 22.2121 13.9119C21.93 13.8394 21.6303 13.9229 21.4264 14.131L21.4264 14.131Z" fill="#D0D0D0"/>
<path d="M1.57394 10.8689L3.1584 9.28446V15.1095C3.1584 16.0055 3.51435 16.865 4.1478 17.4985C4.78148 18.1322 5.64099 18.4881 6.53701 18.4881H13.2944C13.5858 18.4881 13.8549 18.3326 14.0006 18.0805C14.1463 17.8281 14.1463 17.5171 14.0006 17.2648C13.8549 17.0124 13.5858 16.8571 13.2944 16.8571H6.53701C6.07343 16.8571 5.62908 16.673 5.3012 16.3451C4.9735 16.0174 4.7894 15.5729 4.7894 15.1095V9.28449L6.37386 10.8689C6.5157 11.0581 6.73269 11.1763 6.96851 11.193C7.20434 11.2099 7.43593 11.1234 7.60297 10.9562C7.77018 10.789 7.85667 10.5576 7.83995 10.3217C7.82304 10.0859 7.70484 9.86892 7.51572 9.72708L4.53323 6.74459L4.41676 6.65138H4.37025L4.27704 6.60487L3.64779 6.60468L3.55458 6.65119H3.50807L3.39159 6.7444L0.408912 9.72708C0.200763 9.931 0.117159 10.2306 0.189811 10.5128C0.262462 10.795 0.480025 11.0171 0.760654 11.0953C1.04145 11.1736 1.34242 11.0961 1.55059 10.8922L1.57394 10.8689Z" fill="#D0D0D0"/>
</g>
<defs>
<clipPath id="clip0_1802_15684">
<rect width="24" height="24" fill="white"/>
</clipPath>
</defs>
</svg>
