<svg width="24" height="24" viewBox="0 0 24 24" fill="none" xmlns="http://www.w3.org/2000/svg">
<path d="M14.75 5.00001C14.75 4.964 14.7523 4.93097 14.7562 4.901L21.1758 10.7371C21.2044 10.7709 21.25 10.8595 21.25 11C21.25 11.1405 21.2044 11.2291 21.1758 11.263L14.7562 17.099C14.7523 17.069 14.75 17.036 14.75 17V13.7V12.95H14C9.51755 12.95 5.59384 15.4034 3.27187 19.09C3.22605 19.1561 3.17246 19.1891 3.11385 19.206C3.04545 19.2258 2.96103 19.2248 2.88089 19.1989C2.79929 19.1725 2.75659 19.132 2.7418 19.111C2.74152 19.1106 2.74123 19.1102 2.74094 19.1098C2.73515 19.1017 2.72731 19.0907 2.73479 19.0506C3.02841 17.6818 3.41014 16.3632 4.06038 15.1556L4.0676 15.1422L4.07427 15.1285C5.86325 11.4564 9.61882 8.75001 14 8.75001H14.75V8.00001V5.00001Z" stroke="#D0D0D0" stroke-width="1.5"/>
</svg>
