<svg width="20" height="31" viewBox="0 0 20 31" fill="none" xmlns="http://www.w3.org/2000/svg">
<path d="M5 13.4688C5 13.7529 5.11288 14.0254 5.31381 14.2264C5.51475 14.4273 5.78727 14.5402 6.07143 14.5402C6.35559 14.5402 6.62811 14.4273 6.82904 14.2264C7.02997 14.0254 7.14286 13.7529 7.14286 13.4688C7.14286 13.1846 7.02997 12.9121 6.82904 12.7111C6.62811 12.5102 6.35559 12.3973 6.07143 12.3973C5.78727 12.3973 5.51475 12.5102 5.31381 12.7111C5.11288 12.9121 5 13.1846 5 13.4688ZM12.8571 13.4688C12.8571 13.7529 12.97 14.0254 13.171 14.2264C13.3719 14.4273 13.6444 14.5402 13.9286 14.5402C14.2127 14.5402 14.4853 14.4273 14.6862 14.2264C14.8871 14.0254 15 13.7529 15 13.4688C15 13.1846 14.8871 12.9121 14.6862 12.7111C14.4853 12.5102 14.2127 12.3973 13.9286 12.3973C13.6444 12.3973 13.3719 12.5102 13.171 12.7111C12.97 12.9121 12.8571 13.1846 12.8571 13.4688ZM10 5.5C4.47768 5.5 0 9.97768 0 15.5C0 21.0223 4.47768 25.5 10 25.5C15.5223 25.5 20 21.0223 20 15.5C20 9.97768 15.5223 5.5 10 5.5ZM15.8705 21.3705C15.1071 22.1339 14.2188 22.7321 13.2299 23.1518C12.2098 23.5848 11.1228 23.8036 10 23.8036C8.87723 23.8036 7.79018 23.5848 6.76786 23.1518C5.78052 22.7348 4.88367 22.1298 4.12723 21.3705C3.36384 20.6071 2.76563 19.7188 2.34598 18.7299C1.91518 17.7098 1.69643 16.6228 1.69643 15.5C1.69643 14.3772 1.91518 13.2902 2.34821 12.2679C2.7652 11.2805 3.37017 10.3837 4.12946 9.62723C4.89286 8.86384 5.78125 8.26563 6.77009 7.84598C7.79018 7.41518 8.87723 7.19643 10 7.19643C11.1228 7.19643 12.2098 7.41518 13.2321 7.84821C14.2195 8.2652 15.1163 8.87017 15.8728 9.62946C16.6362 10.3929 17.2344 11.2812 17.654 12.2701C18.0848 13.2902 18.3036 14.3772 18.3036 15.5C18.3036 16.6228 18.0848 17.7098 17.6518 18.7321C17.2353 19.7191 16.6303 20.6153 15.8705 21.3705ZM13.3929 15.9688H12.3192C12.2254 15.9688 12.1451 16.0402 12.1384 16.1339C12.0536 17.2388 11.1272 18.1116 10 18.1116C8.87277 18.1116 7.9442 17.2388 7.86161 16.1339C7.85491 16.0402 7.77455 15.9688 7.6808 15.9688H6.60714C6.58292 15.9687 6.55895 15.9736 6.53668 15.9831C6.51441 15.9927 6.49431 16.0066 6.47761 16.0242C6.46091 16.0417 6.44794 16.0625 6.43951 16.0852C6.43108 16.1079 6.42736 16.1321 6.42857 16.1563C6.52679 18.0379 8.09152 19.5402 10 19.5402C11.9085 19.5402 13.4732 18.0379 13.5714 16.1563C13.5726 16.1321 13.5689 16.1079 13.5605 16.0852C13.5521 16.0625 13.5391 16.0417 13.5224 16.0242C13.5057 16.0066 13.4856 15.9927 13.4633 15.9831C13.4411 15.9736 13.4171 15.9687 13.3929 15.9688Z" fill="#E5E5EB"/>
</svg>
