<svg width="16" height="16" viewBox="0 0 16 16" fill="none" xmlns="http://www.w3.org/2000/svg">
<path fill-rule="evenodd" clip-rule="evenodd" d="M11.1299 9.27019C11.2148 9.35502 11.2572 9.45546 11.2572 9.57153C11.2572 9.6876 11.2148 9.78805 11.1299 9.87287L8.12993 12.8729C8.04511 12.9577 7.94467 13.0001 7.8286 13.0001C7.71252 13.0001 7.61208 12.9577 7.52726 12.8729L4.52726 9.87287C4.44244 9.78805 4.40002 9.6876 4.40002 9.57153C4.40002 9.45546 4.44244 9.35502 4.52726 9.27019C4.61208 9.18537 4.71252 9.14296 4.8286 9.14296H10.8286C10.9447 9.14296 11.0451 9.18537 11.1299 9.27019ZM11.1299 6.6987C11.2148 6.78353 11.2572 6.88397 11.2572 7.00004C11.2572 7.11612 11.2148 7.21656 11.1299 7.30138C11.0451 7.3862 10.9447 7.42862 10.8286 7.42862H4.8286C4.71252 7.42862 4.61208 7.3862 4.52726 7.30138C4.44244 7.21656 4.40002 7.11612 4.40002 7.00004C4.40002 6.88397 4.44244 6.78353 4.52726 6.6987L7.52726 3.6987C7.61208 3.61388 7.71252 3.57147 7.8286 3.57147C7.94467 3.57147 8.04511 3.61388 8.12993 3.6987L11.1299 6.6987Z" fill="#14142B"/>
</svg>
