<svg width="20" height="31" viewBox="0 0 20 31" fill="none" xmlns="http://www.w3.org/2000/svg">
<mask id="mask0_351_9630" style="mask-type:alpha" maskUnits="userSpaceOnUse" x="0" y="5" width="20" height="20">
<path d="M19.2836 11.7755L13.3328 10.9106L10.6726 5.51766C10.6 5.37 10.4805 5.25047 10.3328 5.17782C9.96248 4.995 9.51248 5.14735 9.32733 5.51766L6.66717 10.9106L0.716389 11.7755C0.552327 11.7989 0.402327 11.8763 0.287483 11.9934C0.148643 12.1361 0.0721362 12.3281 0.074773 12.5272C0.0774098 12.7263 0.158975 12.9162 0.301545 13.0552L4.60701 17.2528L3.58983 23.1802C3.56597 23.318 3.58123 23.4598 3.63387 23.5895C3.68651 23.7192 3.77442 23.8315 3.88764 23.9137C4.00086 23.9959 4.13486 24.0448 4.27444 24.0547C4.41401 24.0647 4.55359 24.0353 4.67733 23.97L9.99998 21.1716L15.3226 23.97C15.468 24.0473 15.6367 24.0731 15.7984 24.045C16.2062 23.9747 16.4805 23.588 16.4101 23.1802L15.393 17.2528L19.6984 13.0552C19.8156 12.9403 19.893 12.7903 19.9164 12.6263C19.9797 12.2161 19.6937 11.8364 19.2836 11.7755Z" fill="#C4C4C4"/>
</mask>
<g mask="url(#mask0_351_9630)">
<path d="M-2 0H10V31H-2V0Z" fill="#FADB14"/>
<path d="M10 0H22V31H10V0Z" fill="#E5E5EB"/>
</g>
</svg>
