<svg width="20" height="31" viewBox="0 0 20 31" fill="none" xmlns="http://www.w3.org/2000/svg">
<path d="M19.2838 11.7755L13.333 10.9106L10.6728 5.51766C10.6002 5.37 10.4806 5.25047 10.333 5.17782C9.96267 4.995 9.51267 5.14735 9.32751 5.51766L6.66735 10.9106L0.716572 11.7755C0.55251 11.7989 0.40251 11.8763 0.287666 11.9934C0.148826 12.1361 0.0723193 12.3281 0.0749561 12.5272C0.0775929 12.7263 0.159158 12.9162 0.301728 13.0552L4.6072 17.2528L3.59001 23.1802C3.56616 23.318 3.58141 23.4598 3.63405 23.5895C3.68669 23.7192 3.77461 23.8315 3.88783 23.9137C4.00105 23.9959 4.13504 24.0448 4.27462 24.0547C4.4142 24.0647 4.55377 24.0353 4.67751 23.97L10.0002 21.1716L15.3228 23.97C15.4681 24.0473 15.6369 24.0731 15.7986 24.045C16.2064 23.9747 16.4806 23.588 16.4103 23.1802L15.3931 17.2528L19.6986 13.0552C19.8158 12.9403 19.8931 12.7903 19.9166 12.6263C19.9799 12.2161 19.6939 11.8364 19.2838 11.7755Z" fill="#FADB14"/>
</svg>
