<svg width="37" height="36" viewBox="0 0 37 36" fill="none" xmlns="http://www.w3.org/2000/svg">
<path d="M35.9939 14.9129L35.9845 14.8754L30.7252 1.51133C30.4908 0.75664 29.7923 0.236328 29.0002 0.236328H7.68141C6.88453 0.236328 6.17672 0.766016 5.95172 1.53008L1.03453 14.7582L1.02047 14.791L1.01109 14.8285C0.950156 15.0582 0.931406 15.2926 0.964219 15.5223C0.959531 15.5973 0.954844 15.6723 0.954844 15.7473V32.8988C0.956083 33.6543 1.25675 34.3785 1.79096 34.9127C2.32517 35.4469 3.04936 35.7476 3.80484 35.7488H33.2048C34.7752 35.7488 36.0548 34.4691 36.0595 32.8988V15.7473C36.0595 15.6863 36.0595 15.6254 36.0548 15.5738C36.0736 15.3441 36.0548 15.1238 35.9939 14.9129ZM22.1283 12.8973L22.1142 13.6332C22.0767 15.7379 20.6236 17.1535 18.5002 17.1535C17.4642 17.1535 16.5736 16.8207 15.9314 16.1879C15.2892 15.5551 14.9377 14.6738 14.9189 13.6332L14.9048 12.8973H5.25797L8.98453 3.83633H27.697L31.5267 12.8973H22.1283ZM4.55016 16.4973H11.9236C13.0627 19.1738 15.4861 20.7535 18.5048 20.7535C20.0845 20.7535 21.5517 20.3129 22.7377 19.4785C23.7783 18.7473 24.5892 17.7254 25.1142 16.4973H32.4502V32.1488H4.55016V16.4973Z" fill="#1E3A8A"/>
</svg>
