<svg width="13" height="12" viewBox="0 0 13 12" fill="none" xmlns="http://www.w3.org/2000/svg">
<path d="M4.81226 2.96848H5.96694V8.25441C5.96694 8.32316 6.02319 8.37941 6.09194 8.37941H7.02944C7.09819 8.37941 7.15444 8.32316 7.15444 8.25441V2.96848H8.31226C8.41694 2.96848 8.47476 2.84816 8.41069 2.76691L6.66069 0.551287C6.649 0.536347 6.63406 0.524264 6.61701 0.515954C6.59995 0.507645 6.58123 0.503326 6.56226 0.503326C6.54328 0.503326 6.52456 0.507645 6.50751 0.515954C6.49045 0.524264 6.47551 0.536347 6.46382 0.551287L4.71382 2.76535C4.64976 2.84816 4.70757 2.96848 4.81226 2.96848ZM12.281 7.78566H11.3435C11.2748 7.78566 11.2185 7.84191 11.2185 7.91066V10.3169H1.90601V7.91066C1.90601 7.84191 1.84976 7.78566 1.78101 7.78566H0.843506C0.774756 7.78566 0.718506 7.84191 0.718506 7.91066V11.0044C0.718506 11.281 0.941943 11.5044 1.21851 11.5044H11.906C12.1826 11.5044 12.406 11.281 12.406 11.0044V7.91066C12.406 7.84191 12.3498 7.78566 12.281 7.78566Z" fill="#373751"/>
</svg>
