<svg width="34" height="34" viewBox="0 0 34 34" fill="none" xmlns="http://www.w3.org/2000/svg">
<path fill-rule="evenodd" clip-rule="evenodd" d="M21.0745 16.3748C21.1694 16.4697 21.2168 16.5788 21.2168 16.7021C21.2168 16.8254 21.1694 16.9345 21.0745 17.0294L14.4434 23.6605C14.3485 23.7554 14.2394 23.8028 14.1161 23.8028C13.9928 23.8028 13.8837 23.7554 13.7888 23.6605L13.0773 22.949C12.9824 22.8542 12.935 22.7451 12.935 22.6217C12.935 22.4984 12.9824 22.3893 13.0773 22.2945L18.6697 16.7021L13.0773 11.1098C12.9824 11.0149 12.935 10.9058 12.935 10.7825C12.935 10.6591 12.9824 10.55 13.0773 10.4552L13.7888 9.74368C13.8837 9.64881 13.9928 9.60138 14.1161 9.60138C14.2394 9.60138 14.3485 9.64881 14.4434 9.74368L21.0745 16.3748Z" fill="#4B4B63"/>
</svg>
