<svg width="8" height="10" viewBox="0 0 8 10" fill="none" xmlns="http://www.w3.org/2000/svg">
<path fill-rule="evenodd" clip-rule="evenodd" d="M7.12993 6.27019C7.21476 6.35502 7.25717 6.45546 7.25717 6.57153C7.25717 6.6876 7.21476 6.78805 7.12993 6.87287L4.12993 9.87287C4.04511 9.95769 3.94467 10.0001 3.8286 10.0001C3.71252 10.0001 3.61208 9.95769 3.52726 9.87287L0.527256 6.87287C0.442435 6.78805 0.400024 6.6876 0.400024 6.57153C0.400024 6.45546 0.442435 6.35502 0.527256 6.27019C0.612078 6.18537 0.712524 6.14296 0.828596 6.14296H6.8286C6.94467 6.14296 7.04511 6.18537 7.12993 6.27019ZM7.12993 3.6987C7.21476 3.78353 7.25717 3.88397 7.25717 4.00004C7.25717 4.11612 7.21476 4.21656 7.12993 4.30138C7.04511 4.3862 6.94467 4.42862 6.8286 4.42862H0.828596C0.712524 4.42862 0.612078 4.3862 0.527256 4.30138C0.442435 4.21656 0.400024 4.11612 0.400024 4.00004C0.400024 3.88397 0.442435 3.78353 0.527256 3.6987L3.52726 0.698704C3.61208 0.613883 3.71252 0.571472 3.8286 0.571472C3.94467 0.571472 4.04511 0.613883 4.12993 0.698704L7.12993 3.6987Z" fill="#14142B"/>
</svg>
